<svg id="App_Store_-_eng_1_" data-name="App Store - eng (1)" xmlns="http://www.w3.org/2000/svg" width="216" height="64" viewBox="0 0 216 64">
  <path fill="none" id="Path_127" data-name="Path 127" d="M208,0H8A8,8,0,0,0,0,8V56a8,8,0,0,0,8,8H208a8,8,0,0,0,8-8V8A8,8,0,0,0,208,0Z"/>
  <path id="Path_128" data-name="Path 128" d="M208,1.28A6.72,6.72,0,0,1,214.72,8V56A6.72,6.72,0,0,1,208,62.72H8A6.72,6.72,0,0,1,1.28,56V8A6.72,6.72,0,0,1,8,1.28ZM208,0H8A8,8,0,0,0,0,8V56a8,8,0,0,0,8,8H208a8,8,0,0,0,8-8V8a8,8,0,0,0-8-8Z" fill="#fff"/>
  <path id="Path_129" data-name="Path 129" d="M41.665,34.572H21.93a2.5,2.5,0,1,0,0,5.007H44.669s1.178-1.178-.088-3.093A3.852,3.852,0,0,0,41.665,34.572Z" fill="#fff"/>
  <path id="Path_130" data-name="Path 130" d="M40.663,13.511,28.41,34.719a2.5,2.5,0,1,0,4.33,2.5L44.993,16.015A2.5,2.5,0,0,0,44.08,12.6,2.471,2.471,0,0,0,40.663,13.511Z" fill="#fff"/>
  <path id="Path_131" data-name="Path 131" d="M55.656,43.821,43.079,21.994a5.5,5.5,0,0,0-1.826,4.212A9.728,9.728,0,0,0,42.4,30.89l8.925,15.464a2.471,2.471,0,0,0,3.417.913A2.565,2.565,0,0,0,55.656,43.821Z" fill="#fff"/>
  <path id="Path_132" data-name="Path 132" d="M56.923,34.572H49.942a2.5,2.5,0,1,0,0,5.007h6.981a2.5,2.5,0,1,0,0-5.007Z" fill="#fff"/>
  <path id="Path_133" data-name="Path 133" d="M40.811,18.106,38.16,13.482a2.5,2.5,0,0,0-4.33,2.5l2.651,4.624a2.5,2.5,0,0,0,4.33-2.5Z" fill="#fff"/>
  <path id="Path_134" data-name="Path 134" d="M23.167,43.791l1.591-2.739s.383-.766,1.885-.766a4.039,4.039,0,0,1,3.24,1.826L27.5,46.295a2.471,2.471,0,0,1-3.417.913A2.5,2.5,0,0,1,23.167,43.791Z" fill="#fff"/>
  <path id="Path_135" data-name="Path 135" d="M87.232,48.768H83.77l-1.9-5.959H75.281l-1.807,5.959H70.1L76.635,28.48h4.034ZM81.3,40.308l-1.715-5.3q-.272-.812-1.023-3.822H78.5q-.3,1.294-.964,3.822l-1.685,5.3Z" fill="#fff"/>
  <path id="Path_136" data-name="Path 136" d="M104.027,41.273a8.316,8.316,0,0,1-2.017,5.9A5.9,5.9,0,0,1,97.525,49.1a4.485,4.485,0,0,1-4.154-2.076h-.061v7.706h-3.25V38.954q0-2.346-.12-4.816H92.8l.182,2.319h.061a5.783,5.783,0,0,1,9.256-.573A8.063,8.063,0,0,1,104.027,41.273Zm-3.312.119a6.024,6.024,0,0,0-.963-3.522,3.328,3.328,0,0,0-2.829-1.445,3.38,3.38,0,0,0-2.182.8,3.7,3.7,0,0,0-1.279,2.093,4.255,4.255,0,0,0-.151.991v2.439a3.909,3.909,0,0,0,.979,2.7,3.244,3.244,0,0,0,2.543,1.1,3.328,3.328,0,0,0,2.858-1.415A6.226,6.226,0,0,0,100.715,41.392Z" fill="#fff"/>
  <path id="Path_137" data-name="Path 137" d="M120.853,41.273a8.307,8.307,0,0,1-2.019,5.9,5.891,5.891,0,0,1-4.483,1.927,4.482,4.482,0,0,1-4.153-2.076h-.061v7.706h-3.25V38.954q0-2.346-.121-4.816h2.859l.181,2.319h.061a5.785,5.785,0,0,1,9.257-.573A8.083,8.083,0,0,1,120.853,41.273Zm-3.312.119a6.018,6.018,0,0,0-.965-3.522,3.321,3.321,0,0,0-2.827-1.445,3.386,3.386,0,0,0-2.184.8,3.7,3.7,0,0,0-1.277,2.093,4.344,4.344,0,0,0-.151.991v2.439a3.918,3.918,0,0,0,.976,2.7,3.25,3.25,0,0,0,2.546,1.1,3.326,3.326,0,0,0,2.858-1.415A6.226,6.226,0,0,0,117.541,41.392Z" fill="#fff"/>
  <path id="Path_138" data-name="Path 138" d="M139.665,43.078a5.406,5.406,0,0,1-1.8,4.214,7.987,7.987,0,0,1-5.526,1.776,9.675,9.675,0,0,1-5.258-1.264l.753-2.709a8.911,8.911,0,0,0,4.7,1.3,4.443,4.443,0,0,0,2.862-.829,2.709,2.709,0,0,0,1.021-2.217,2.824,2.824,0,0,0-.843-2.079,7.834,7.834,0,0,0-2.8-1.569q-5.328-1.987-5.326-5.817a5.149,5.149,0,0,1,1.867-4.1,7.363,7.363,0,0,1,4.967-1.6,9.847,9.847,0,0,1,4.6.963l-.813,2.65a7.986,7.986,0,0,0-3.882-.933,3.928,3.928,0,0,0-2.677.843,2.406,2.406,0,0,0-.813,1.837,2.479,2.479,0,0,0,.931,1.986,10.544,10.544,0,0,0,2.952,1.566,10.009,10.009,0,0,1,3.852,2.467A5.152,5.152,0,0,1,139.665,43.078Z" fill="#fff"/>
  <path id="Path_139" data-name="Path 139" d="M150.411,36.578h-3.582v7.1q0,2.71,1.9,2.709a5.783,5.783,0,0,0,1.444-.151l.09,2.468a7.371,7.371,0,0,1-2.528.36,3.9,3.9,0,0,1-3.011-1.174,5.767,5.767,0,0,1-1.084-3.944V36.575H141.5V34.136h2.134V31.457l3.193-.963v3.642h3.582Z" fill="#fff"/>
  <path id="Path_140" data-name="Path 140" d="M166.575,41.333a8.023,8.023,0,0,1-1.927,5.538,6.88,6.88,0,0,1-5.36,2.227,6.543,6.543,0,0,1-5.13-2.136,7.781,7.781,0,0,1-1.911-5.388,7.944,7.944,0,0,1,1.971-5.567,6.821,6.821,0,0,1,5.311-2.168,6.679,6.679,0,0,1,5.177,2.137A7.69,7.69,0,0,1,166.575,41.333Zm-3.372.105a6.579,6.579,0,0,0-.872-3.471,3.21,3.21,0,0,0-2.918-1.75,3.259,3.259,0,0,0-2.98,1.75,6.705,6.705,0,0,0-.872,3.532,6.569,6.569,0,0,0,.872,3.47,3.322,3.322,0,0,0,5.869-.03A6.605,6.605,0,0,0,163.2,41.438Z" fill="#fff"/>
  <path id="Path_141" data-name="Path 141" d="M177.14,37a5.646,5.646,0,0,0-1.025-.09,3.07,3.07,0,0,0-2.649,1.3,4.872,4.872,0,0,0-.813,2.889v7.676H169.4l.031-10.022q0-2.529-.122-4.606h2.831l.119,2.8h.09a5,5,0,0,1,1.625-2.317,3.929,3.929,0,0,1,2.349-.784,5.231,5.231,0,0,1,.813.059Z" fill="#fff"/>
  <path id="Path_142" data-name="Path 142" d="M191.676,40.761a7.606,7.606,0,0,1-.119,1.474h-9.751a4.243,4.243,0,0,0,1.415,3.313,4.83,4.83,0,0,0,3.189,1.023,10.779,10.779,0,0,0,3.945-.692l.51,2.256a12.2,12.2,0,0,1-4.9.9,7.106,7.106,0,0,1-5.345-2,7.4,7.4,0,0,1-1.94-5.372,8.38,8.38,0,0,1,1.808-5.508,6.229,6.229,0,0,1,5.115-2.346,5.451,5.451,0,0,1,4.788,2.346A7.914,7.914,0,0,1,191.676,40.761Zm-3.1-.843a4.407,4.407,0,0,0-.631-2.5,2.839,2.839,0,0,0-2.59-1.355,3.084,3.084,0,0,0-2.587,1.325,4.851,4.851,0,0,0-.962,2.528h6.77Z" fill="#fff"/>
  <path id="Path_143" data-name="Path 143" d="M80.227,16a5,5,0,0,1-1.613,4.052,6.415,6.415,0,0,1-4.243,1.256,19.688,19.688,0,0,1-2.337-.119v-9.8a17.247,17.247,0,0,1,2.752-.207,5.932,5.932,0,0,1,3.948,1.139A4.6,4.6,0,0,1,80.227,16Zm-1.684.044a3.644,3.644,0,0,0-.924-2.677,3.641,3.641,0,0,0-2.7-.932,6.763,6.763,0,0,0-1.287.1v7.453a8.427,8.427,0,0,0,1.079.044,3.779,3.779,0,0,0,2.831-1.02A4.084,4.084,0,0,0,78.543,16.043Z" fill="#fff"/>
  <path id="Path_144" data-name="Path 144" d="M89.159,17.566a3.942,3.942,0,0,1-.947,2.721,3.379,3.379,0,0,1-2.633,1.094,3.212,3.212,0,0,1-2.521-1.05,3.825,3.825,0,0,1-.938-2.646,3.9,3.9,0,0,1,.968-2.735,3.357,3.357,0,0,1,2.61-1.064,3.287,3.287,0,0,1,2.544,1.049A3.794,3.794,0,0,1,89.159,17.566Zm-1.657.052a3.25,3.25,0,0,0-.428-1.706,1.578,1.578,0,0,0-1.433-.86,1.6,1.6,0,0,0-1.465.86,3.294,3.294,0,0,0-.428,1.735,3.25,3.25,0,0,0,.428,1.706,1.612,1.612,0,0,0,1.45.86,1.594,1.594,0,0,0,1.433-.875A3.23,3.23,0,0,0,87.5,17.618Z" fill="#fff"/>
  <path id="Path_145" data-name="Path 145" d="M101.136,14.032l-2.249,7.186H97.424L96.492,18.1a23.348,23.348,0,0,1-.578-2.322h-.029a16.99,16.99,0,0,1-.578,2.322l-.989,3.121h-1.48l-2.115-7.186h1.642l.813,3.416q.3,1.212.488,2.306h.029q.178-.9.593-2.291l1.02-3.43h1.3l.977,3.357q.354,1.228.576,2.366h.044a22.643,22.643,0,0,1,.488-2.366l.872-3.357h1.569Z" fill="#fff"/>
  <path id="Path_146" data-name="Path 146" d="M109.418,21.219h-1.6V17.1q0-1.9-1.448-1.9a1.441,1.441,0,0,0-1.154.523,1.857,1.857,0,0,0-.444,1.232v4.262h-1.6V16.086q0-.947-.058-2.056h1.4l.075,1.124h.044a2.3,2.3,0,0,1,.828-.867,2.7,2.7,0,0,1,1.448-.4,2.291,2.291,0,0,1,1.672.651,3.163,3.163,0,0,1,.828,2.381Z" fill="#fff"/>
  <path id="Path_147" data-name="Path 147" d="M113.824,21.219h-1.6V10.735h1.6Z" fill="#fff"/>
  <path id="Path_148" data-name="Path 148" d="M123.23,17.566a3.943,3.943,0,0,1-.947,2.721,3.379,3.379,0,0,1-2.633,1.094,3.207,3.207,0,0,1-2.521-1.05,3.826,3.826,0,0,1-.938-2.646,3.905,3.905,0,0,1,.968-2.735,3.359,3.359,0,0,1,2.609-1.064,3.292,3.292,0,0,1,2.546,1.049A3.793,3.793,0,0,1,123.23,17.566Zm-1.659.052a3.251,3.251,0,0,0-.428-1.706,1.576,1.576,0,0,0-1.432-.86,1.6,1.6,0,0,0-1.465.86,3.3,3.3,0,0,0-.428,1.735,3.251,3.251,0,0,0,.428,1.706,1.613,1.613,0,0,0,1.45.86,1.593,1.593,0,0,0,1.432-.875A3.218,3.218,0,0,0,121.571,17.618Z" fill="#fff"/>
  <path id="Path_149" data-name="Path 149" d="M130.962,21.219h-1.435l-.118-.828h-.045a2.46,2.46,0,0,1-2.1.991,2.166,2.166,0,0,1-1.64-.651,2.042,2.042,0,0,1-.563-1.463,2.233,2.233,0,0,1,1.1-2.011,5.723,5.723,0,0,1,3.1-.68v-.134q0-1.42-1.493-1.419a3.339,3.339,0,0,0-1.873.532l-.325-1.049a4.608,4.608,0,0,1,2.465-.621q2.817,0,2.82,2.973v2.646A11.166,11.166,0,0,0,130.962,21.219Zm-1.659-2.47V17.641q-2.643-.046-2.643,1.448a1.085,1.085,0,0,0,.306.843,1.118,1.118,0,0,0,.781.281,1.612,1.612,0,0,0,.977-.332,1.359,1.359,0,0,0,.553-.851A1.336,1.336,0,0,0,129.3,18.749Z" fill="#fff"/>
  <path id="Path_150" data-name="Path 150" d="M140.04,21.219h-1.418l-.074-1.154H138.5a2.388,2.388,0,0,1-2.308,1.317,2.7,2.7,0,0,1-2.158-1.02,3.972,3.972,0,0,1-.857-2.647,4.166,4.166,0,0,1,.931-2.825,2.866,2.866,0,0,1,2.219-1.006,2.153,2.153,0,0,1,2.024.976h.031V10.735h1.6v8.548Q139.984,20.332,140.04,21.219Zm-1.655-3.031v-1.2a2.342,2.342,0,0,0-.045-.5,1.819,1.819,0,0,0-.577-.968,1.573,1.573,0,0,0-1.069-.392,1.64,1.64,0,0,0-1.406.71,3.044,3.044,0,0,0-.512,1.819,2.837,2.837,0,0,0,.491,1.73,1.645,1.645,0,0,0,1.4.709,1.541,1.541,0,0,0,1.263-.591A1.969,1.969,0,0,0,138.385,18.188Z" fill="#fff"/>
  <path id="Path_151" data-name="Path 151" d="M153.705,17.566a3.943,3.943,0,0,1-.947,2.721,3.378,3.378,0,0,1-2.633,1.094,3.215,3.215,0,0,1-2.521-1.05,3.826,3.826,0,0,1-.938-2.646,3.905,3.905,0,0,1,.968-2.735,3.358,3.358,0,0,1,2.612-1.064,3.282,3.282,0,0,1,2.542,1.049A3.794,3.794,0,0,1,153.705,17.566Zm-1.656.052a3.251,3.251,0,0,0-.428-1.706,1.581,1.581,0,0,0-1.435-.86,1.606,1.606,0,0,0-1.465.86,3.29,3.29,0,0,0-.428,1.735,3.251,3.251,0,0,0,.428,1.706,1.613,1.613,0,0,0,1.45.86,1.6,1.6,0,0,0,1.434-.875A3.237,3.237,0,0,0,152.049,17.618Z" fill="#fff"/>
  <path id="Path_152" data-name="Path 152" d="M162.295,21.219h-1.6V17.1q0-1.9-1.45-1.9a1.438,1.438,0,0,0-1.153.523,1.851,1.851,0,0,0-.443,1.232v4.262h-1.6V16.086q0-.947-.056-2.056h1.4l.074,1.124h.045a2.324,2.324,0,0,1,.827-.867,2.708,2.708,0,0,1,1.45-.4,2.294,2.294,0,0,1,1.671.651,3.159,3.159,0,0,1,.828,2.381Z" fill="#fff"/>
  <path id="Path_153" data-name="Path 153" d="M173.047,15.229h-1.76V18.72c0,.887.313,1.331.932,1.331a2.815,2.815,0,0,0,.712-.075l.041,1.212a3.591,3.591,0,0,1-1.241.178,1.909,1.909,0,0,1-1.477-.576,2.817,2.817,0,0,1-.534-1.938V15.229h-1.05v-1.2h1.05V12.715l1.566-.473v1.788h1.759v1.2Z" fill="#fff"/>
  <path id="Path_154" data-name="Path 154" d="M181.505,21.219h-1.6V17.133q0-1.932-1.447-1.933a1.524,1.524,0,0,0-1.524,1.12,1.981,1.981,0,0,0-.075.575v4.322h-1.6V10.735h1.6v4.331h.031a2.414,2.414,0,0,1,2.158-1.181,2.228,2.228,0,0,1,1.644.651,3.273,3.273,0,0,1,.812,2.41Z" fill="#fff"/>
  <path id="Path_155" data-name="Path 155" d="M190.23,17.285a3.872,3.872,0,0,1-.059.724h-4.792a2.093,2.093,0,0,0,.694,1.627,2.378,2.378,0,0,0,1.568.5,5.294,5.294,0,0,0,1.938-.34l.25,1.11a6.014,6.014,0,0,1-2.412.444,3.481,3.481,0,0,1-2.623-.983,3.619,3.619,0,0,1-.953-2.639,4.113,4.113,0,0,1,.887-2.706,3.055,3.055,0,0,1,2.512-1.153,2.674,2.674,0,0,1,2.35,1.153A3.839,3.839,0,0,1,190.23,17.285Zm-1.525-.413a2.149,2.149,0,0,0-.309-1.227,1.4,1.4,0,0,0-1.271-.666,1.517,1.517,0,0,0-1.272.651,2.422,2.422,0,0,0-.474,1.243Z" fill="#fff"/>
</svg>
