<svg xmlns="http://www.w3.org/2000/svg" width="208.509" height="174.742" viewBox="0 0 208.509 174.742">
  <g id="Group_2928" data-name="Group 2928" transform="translate(-770.234 -2459.371)">
    <g id="freepik--background-simple--inject-4" transform="translate(771.233 2460.285)">
      <path id="Path_1203" data-name="Path 1203" d="M114.6,55.681c54.548-14.151,72.519,23.28,95.041,59.641s45.922,81.673,7.118,110.123H55s-23.616-6-24-37.805c-.293-23.4,23.093-26.578,30.744-62.468S86.836,62.881,114.6,55.681Z" transform="translate(-30.994 -52.617)" fill="#05c1e7" stroke="#fff" stroke-width="2"/>
      <path id="Path_1204" data-name="Path 1204" d="M114.6,55.681c54.548-14.151,72.519,23.28,95.041,59.641s45.922,81.673,7.118,110.123H55s-23.616-6-24-37.805c-.293-23.4,23.093-26.578,30.744-62.468S86.836,62.881,114.6,55.681Z" transform="translate(-30.994 -52.617)" fill="#05c1e7" stroke="#fff" stroke-width="2" opacity="0.7"/>
    </g>
    <g id="bucket" transform="translate(792.138 2441.754)">
      <g id="Group_287" data-name="Group 287" transform="translate(8 51.999)">
        <g id="Group_264" data-name="Group 264" transform="translate(4.998 57.834)">
          <path id="Path_398" data-name="Path 398" d="M25.283,252l11.286,56.428a4.627,4.627,0,0,0,4.537,3.719H142.894a4.627,4.627,0,0,0,4.537-3.719L158.717,252Z" transform="translate(-25.283 -251.999)" fill="#d68a31"/>
        </g>
        <g id="Group_274" data-name="Group 274" transform="translate(4.998 48.581)">
          <g id="Group_265" data-name="Group 265" transform="translate(57.463)">
            <path id="Path_399" data-name="Path 399" d="M239.708,220H224v30.074h12.7Z" transform="translate(-224 -219.999)" fill="#d7e6f0"/>
          </g>
          <g id="Group_266" data-name="Group 266" transform="translate(32.502)">
            <path id="Path_400" data-name="Path 400" d="M140.687,250.073h12.7V220H137.68Z" transform="translate(-137.68 -219.999)" fill="#d7e6f0"/>
          </g>
          <g id="Group_267" data-name="Group 267" transform="translate(15.452 39.327)">
            <path id="Path_401" data-name="Path 401" d="M92.482,376.819,90.4,356H78.717l4.164,20.82Z" transform="translate(-78.717 -355.999)" fill="#d7e6f0"/>
          </g>
          <g id="Group_268" data-name="Group 268" transform="translate(7.586)">
            <path id="Path_402" data-name="Path 402" d="M70.141,250.073,67.133,220H51.517l6.015,30.074Z" transform="translate(-51.517 -219.999)" fill="#d7e6f0"/>
          </g>
          <g id="Group_269" data-name="Group 269" transform="translate(79.464)">
            <path id="Path_403" data-name="Path 403" d="M300.08,250.073h12.609L318.7,220H303.087Z" transform="translate(-300.08 -219.999)" fill="#d7e6f0"/>
          </g>
          <g id="Group_270" data-name="Group 270" transform="translate(76.456 39.327)">
            <path id="Path_404" data-name="Path 404" d="M291.762,356l-2.082,20.82h9.6L303.445,356Z" transform="translate(-289.68 -355.999)" fill="#d7e6f0"/>
          </g>
          <g id="Group_271" data-name="Group 271" transform="translate(36.435 39.327)">
            <path id="Path_405" data-name="Path 405" d="M163.055,356H151.28l2.082,20.82h9.693Z" transform="translate(-151.28 -355.999)" fill="#d7e6f0"/>
          </g>
          <g id="Group_272" data-name="Group 272" transform="translate(57.463 39.327)">
            <path id="Path_406" data-name="Path 406" d="M235.775,356H224v20.82h9.693Z" transform="translate(-224 -355.999)" fill="#d7e6f0"/>
          </g>
          <g id="Group_273" data-name="Group 273" transform="translate(0 9.254)">
            <path id="Path_407" data-name="Path 407" d="M121.519,252l-4.164,20.82H104.747L106.829,252h-9.3l-2.082,20.82h-12.7V252H73.493v20.82h-12.7L58.71,252h-9.3l2.082,20.82H38.884L34.72,252H25.283l11.286,56.428a4.627,4.627,0,0,0,4.537,3.719h74.028a4.627,4.627,0,0,0,4.537-3.719L130.956,252ZM44.9,302.893l-4.164-20.82H52.418l2.082,20.82Zm28.594,0H63.8l-2.082-20.82H73.493Zm18.947,0H82.746v-20.82H94.521Zm18.9,0h-9.6l2.082-20.82H115.5Z" transform="translate(-25.283 -251.999)" fill="#faa037"/>
          </g>
        </g>
        <g id="Group_275" data-name="Group 275" transform="translate(0 39.327)">
          <path id="Path_408" data-name="Path 408" d="M149.116,206.506H10.313A2.313,2.313,0,0,1,8,204.193v-13.88A2.313,2.313,0,0,1,10.313,188h138.8a2.313,2.313,0,0,1,2.313,2.313v13.88A2.313,2.313,0,0,1,149.116,206.506Z" transform="translate(-8 -187.999)" fill="#d68a31"/>
        </g>
        <g id="Group_276" data-name="Group 276" transform="translate(0 39.327)">
          <path id="Path_409" data-name="Path 409" d="M121.355,206.506H10.313A2.313,2.313,0,0,1,8,204.193v-13.88A2.313,2.313,0,0,1,10.313,188H121.355a2.313,2.313,0,0,1,2.313,2.313v13.88A2.313,2.313,0,0,1,121.355,206.506Z" transform="translate(-8 -187.999)" fill="#faa037"/>
        </g>
        <g id="Group_282" data-name="Group 282" transform="translate(4.998 57.834)">
          <g id="Group_277" data-name="Group 277" transform="translate(48.21)">
            <path id="Path_410" data-name="Path 410" d="M192,252h9.254v6.94H192Z" transform="translate(-192 -251.999)" fill="#faa037"/>
          </g>
          <g id="Group_278" data-name="Group 278">
            <path id="Path_411" data-name="Path 411" d="M34.72,252H25.283l1.388,6.94h9.437Z" transform="translate(-25.283 -251.999)" fill="#faa037"/>
          </g>
          <g id="Group_279" data-name="Group 279" transform="translate(71.552)">
            <path id="Path_412" data-name="Path 412" d="M282.714,252h-9.3l-.694,6.94h9.3Z" transform="translate(-272.72 -251.999)" fill="#faa037"/>
          </g>
          <g id="Group_280" data-name="Group 280" transform="translate(94.848)">
            <path id="Path_413" data-name="Path 413" d="M364.108,252h-9.437l-1.388,6.94h9.437Z" transform="translate(-353.283 -251.999)" fill="#faa037"/>
          </g>
          <g id="Group_281" data-name="Group 281" transform="translate(24.128)">
            <path id="Path_414" data-name="Path 414" d="M118.02,252h-9.3l.694,6.94h9.3Z" transform="translate(-108.72 -251.999)" fill="#faa037"/>
          </g>
        </g>
        <g id="Group_283" data-name="Group 283" transform="translate(50.894)">
          <path id="Path_415" data-name="Path 415" d="M227.954,52H197.88a4.627,4.627,0,0,0-4.627,4.627V100.58A9.254,9.254,0,0,1,184,109.833h6.94a9.254,9.254,0,0,0,9.254-9.254V58.939h6.94V91.326h25.447v-34.7A4.627,4.627,0,0,0,227.954,52Z" transform="translate(-184 -51.999)" fill="#463c4b"/>
        </g>
        <g id="Group_284" data-name="Group 284" transform="translate(74.028 6.94)">
          <path id="Path_416" data-name="Path 416" d="M264,76h18.507v32.387H264Z" transform="translate(-264 -75.999)" fill="#555a6e"/>
        </g>
        <g id="Group_285" data-name="Group 285" transform="translate(41.641)">
          <path id="Path_417" data-name="Path 417" d="M161.254,109.833A9.254,9.254,0,0,1,152,100.58V56.626A4.627,4.627,0,0,1,156.627,52h18.507a4.627,4.627,0,0,0-4.627,4.627V100.58A9.253,9.253,0,0,1,161.254,109.833Z" transform="translate(-152 -51.999)" fill="#555a6e"/>
        </g>
        <g id="Group_286" data-name="Group 286" transform="translate(46.318 43.562)">
          <circle id="Ellipse_18" data-name="Ellipse 18" cx="4.5" cy="4.5" r="4.5" transform="translate(-0.137 -0.011)" fill="#ffd241"/>
        </g>
      </g>
    </g>
  </g>
</svg>
