<svg xmlns="http://www.w3.org/2000/svg" width="189.821" height="184.912" viewBox="0 0 189.821 184.912">
  <g id="Group_2930" data-name="Group 2930" transform="translate(-433.523 -2788.814)">
    <g id="freepik--background-simple--inject-2" transform="translate(434.523 2789.814)">
      <path id="Path_1205" data-name="Path 1205" d="M172.559,226.177c-10.328,10.6-49.358,11.418-70.538-6.773-6.715-5.77-13.334-11.622-20.068-17.369C68.871,190.865,50.191,170,47.2,140.226a164.662,164.662,0,0,1-.855-16.488v-1.97c0-.583,0-1.166.034-1.749v-.7c0-.565.039-1.13.063-1.69s.058-1.211.092-1.807v-.316c.034-.615.073-1.22.121-1.83s.092-1.22.146-1.807a1.493,1.493,0,0,1,.039-.416c.049-.542.1-1.075.16-1.609s.126-1.139.194-1.7l.058-.483c.063-.524.136-1.048.209-1.568.083-.619.175-1.229.272-1.839s.194-1.211.3-1.807a.29.29,0,0,0,0-.059c.1-.583.209-1.157.32-1.726s.228-1.175.354-1.758.248-1.157.384-1.726.267-1.143.408-1.7.3-1.179.456-1.758a.5.5,0,0,1,.024-.09c.189-.7.388-1.392.6-2.079.1-.33.194-.66.3-.985s.175-.56.267-.84.2-.61.306-.9c.049-.154.1-.3.155-.452.175-.515.359-1.03.544-1.536l.029-.081q.277-.746.568-1.478c.034-.09.068-.181.107-.267.18-.452.364-.9.549-1.356l.039-.081c.219-.515.437-1.026.665-1.532s.486-1.026.714-1.527l.291-.615c.092-.194.189-.393.286-.587q1.173-2.332,2.491-4.519c.155-.258.316-.511.486-.764q.932-1.5,1.942-2.9c.18-.253.359-.5.544-.746.306-.42.622-.831.937-1.238.2-.262.408-.52.617-.773.262-.325.524-.642.8-.958a.16.16,0,0,1,.034-.041c.238-.28.486-.556.724-.831.073-.09.151-.176.228-.258.2-.226.4-.452.607-.664l.277-.294c.175-.19.354-.38.539-.565.1-.108.209-.217.311-.316.194-.2.393-.393.592-.587.083-.086.16-.163.243-.239.209-.2.413-.4.626-.592s.486-.452.743-.682.422-.38.636-.56.316-.276.486-.407a1.809,1.809,0,0,1,.18-.154c.238-.2.486-.4.719-.592.117-.095.228-.19.345-.276.248-.2.486-.4.757-.587s.651-.493.971-.727.665-.452,1-.7.675-.452,1.015-.678.656-.425.971-.628a.736.736,0,0,1,.112-.068c.238-.149.486-.294.719-.452a4.844,4.844,0,0,1,.486-.271c.286-.167.573-.33.864-.488.714-.4,1.457-.777,2.18-1.134.369-.181.738-.357,1.117-.529s.748-.339,1.131-.5.719-.307,1.083-.452l.1-.041c.359-.145.719-.285,1.083-.42h.049q.753-.285,1.515-.542l.612-.2L86.7,51.8l.515-.149.515-.136.291-.072.408-.1h.063c.272-.063.549-.117.821-.172h.121c.364-.068.724-.127,1.083-.172l.534-.068.486-.05c.2,0,.4-.036.6-.05l.524-.032h1.568a5.564,5.564,0,0,1,.811.036h.117c.238,0,.486.027.714.05l.524.054a4.2,4.2,0,0,1,.694.09c.325.045.646.1.971.158l.486.095c.316.063.626.136.937.212.636.158,1.267.343,1.894.547l.316.1c.422.145.845.3,1.267.452l.486.2c.486.2.971.416,1.457.642q.243.108.486.23a42.358,42.358,0,0,1,4.093,2.313c.291.185.578.375.869.569,1.01.673,2.015,1.392,3.011,2.142q.33.244.656.5c1.573,1.211,3.137,2.5,4.691,3.836l.864.75.063.054.845.709.879.8,1.238,1.1c.029.032.063.059.1.09l1.335,1.193,1.078.958,1.292,1.143c.253.23.486.452.762.673l.1.086c.146.131.286.258.432.38.432.375.864.75,1.3,1.121.286.253.578.5.869.741l.558.452c.4.334.8.66,1.2.981.879.714,1.767,1.41,2.661,2.079l.447.334a47.461,47.461,0,0,0,9.8,5.748c.141.063.282.117.427.176q1.012.407,2.039.741l.486.154.772.221.524.14.427.1.325.077.515.113.52.1.486.086c.32.054.641.1.971.145l.549.063q.277.032.554.054a25.806,25.806,0,0,0,4.424,0l1.3-.1c.757-.054,1.515-.1,2.277-.145h.141q1.792-.095,3.6-.136h.058c.816,0,1.641-.027,2.462-.027h1.942c.762,0,1.53.032,2.292.059.486,0,1,.041,1.5.068l1.034.059.947.063.971.072q.486.032.971.081l.971.09.971.1c1.525.163,3.045.366,4.555.6l1.02.167,1.209.212q.607.108,1.209.23l1.01.208c1.33.276,2.646.587,3.953.9.267.072.534.14.8.217l.432.117c.612.172,1.224.348,1.831.538h0l.8.253.185.059c.277.086.554.176.825.271q2.841.949,5.56,2.142c.262.108.52.226.777.343s.646.3.971.452c.486.221.937.452,1.4.687.558.285,1.112.574,1.661.877l.049.027c.257.14.486.28.767.429l.743.452c.825.488,1.636.994,2.428,1.527l.6.4.364.249.573.407c.413.294.821.592,1.224.9s.738.569,1.1.863l.51.416.32.267.486.452c.486.407.937.827,1.394,1.256l.554.529c.068.063.136.131.2.2.2.194.4.389.592.587s.437.452.656.678l.641.691c.214.235.422.452.631.709s.413.483.617.723.408.493.607.741.384.474.568.718.486.619.709.94l.4.569.432.615c.359.529.714,1.071,1.063,1.622.141.23.282.452.418.687s.34.565.486.849.359.633.529.953l.053.095c.16.294.316.592.486.9.049.09.1.181.141.271.18.348.35.7.52,1.053.185.38.364.768.534,1.157a1.131,1.131,0,0,1,.049.113c.131.285.252.574.374.868.063.145.126.294.185.452.146.352.287.714.427,1.075s.3.8.447,1.206l.034.1c.151.42.291.84.432,1.27a71.613,71.613,0,0,1,3.268,15.191c.1,1.053.18,2.088.228,3.118C236.163,183.5,190.01,208.248,172.559,226.177Z" transform="translate(-46.267 -50.8)" fill="#05c1e7" stroke="#fff" stroke-width="2"/>
      <path id="Path_1206" data-name="Path 1206" d="M187.83,222.651c-10.323,10.6-64.814,15.015-85.979-3.181-6.715-5.784-13.334-11.635-20.069-17.383-13.081-11.17-31.761-32.032-34.747-61.809a164.662,164.662,0,0,1-.855-16.488v-1.97c0-.583,0-1.166.034-1.749v-.7c0-.565.039-1.13.063-1.69s.058-1.211.092-1.807v-.316c.034-.615.073-1.22.121-1.83s.092-1.22.146-1.807a3.9,3.9,0,0,1,.039-.416c.049-.542.1-1.075.16-1.609s.126-1.139.194-1.7l.058-.483c.063-.524.136-1.048.209-1.568.083-.619.175-1.229.272-1.839s.194-1.211.3-1.807a.291.291,0,0,0,0-.059c.1-.583.209-1.157.32-1.726s.228-1.175.354-1.758.248-1.157.384-1.726.267-1.143.408-1.7.286-1.121.437-1.676q.019-.086.044-.172c.189-.7.388-1.392.6-2.079.1-.33.194-.66.3-.985s.175-.56.267-.84.2-.61.306-.9c.049-.154.1-.3.155-.452.175-.515.359-1.03.544-1.536l.029-.081q.277-.746.568-1.478c.034-.09.068-.181.107-.267.18-.452.364-.9.549-1.356l.039-.081c.219-.515.437-1.026.665-1.532s.486-1.026.714-1.527l.291-.615c.092-.194.189-.393.286-.587q1.173-2.332,2.491-4.519c.155-.258.316-.511.486-.764q.932-1.5,1.942-2.9c.18-.253.359-.5.544-.746.306-.42.622-.831.937-1.238.2-.262.408-.52.617-.773.262-.325.524-.642.8-.958a.161.161,0,0,1,.034-.041c.238-.28.486-.556.723-.831.073-.09.151-.176.228-.258.2-.226.4-.452.607-.664l.277-.294c.175-.19.354-.38.539-.565.1-.108.209-.217.311-.316.194-.2.393-.393.592-.587.083-.086.16-.163.243-.239.209-.2.413-.4.626-.592s.486-.452.743-.682.422-.38.636-.56.316-.276.486-.407a1.81,1.81,0,0,1,.18-.154c.238-.2.486-.4.719-.592.117-.095.228-.19.345-.276.248-.2.486-.4.757-.587s.651-.493.971-.727.665-.452,1-.7.675-.452,1.015-.678.656-.425.971-.628a.736.736,0,0,1,.112-.068c.238-.149.486-.294.719-.452a4.847,4.847,0,0,1,.486-.271c.286-.167.573-.33.864-.488.714-.4,1.457-.773,2.18-1.134.369-.181.738-.357,1.117-.529s.748-.339,1.131-.5.719-.307,1.083-.452l.1-.041c.359-.145.719-.285,1.083-.42h.049q.753-.285,1.515-.542l.612-.2.432-.131.515-.149.515-.136.291-.072.35-.081h.063c.272-.063.549-.122.821-.172H89.2c.364-.068.723-.127,1.083-.172L90.818,51l.486-.05c.2-.023.4-.036.6-.05l.524-.032h.524c.665,0,1.321,0,1.971.041.238,0,.486.027.714.05l.524.054.393.054.3.036c.325.045.646.1.971.158l.486.095c.316.063.626.136.937.212.636.158,1.267.343,1.894.547l.316.1c.422.145.845.3,1.267.452l.486.2c.486.2.971.416,1.457.642q.238.108.486.23a42.363,42.363,0,0,1,4.093,2.313c.291.185.578.375.869.569,1.01.673,2.015,1.392,3.011,2.142q.325.244.656.5c1.573,1.211,3.137,2.5,4.691,3.836l.864.75.063.054.855.75.913.727,1.238,1.1.1.09c.447.393.889.791,1.335,1.193l1.078.958,1.3,1.139.762.673.1.086.432.38c.432.375.864.75,1.3,1.121l.869.741.558.452c.4.334.8.66,1.2.981.879.714,1.767,1.41,2.661,2.079l.447.334a47.461,47.461,0,0,0,9.8,5.748l.427.176q1.012.407,2.039.741l.486.154.772.221.524.14.427.1.325.077.515.113.52.1.486.086c.32.054.641.1.971.145l.549.063q.277.032.554.054a25.8,25.8,0,0,0,4.424,0l1.3-.1c.753-.059,1.515-.1,2.277-.145h.141q1.792-.095,3.6-.136h.058c.816,0,1.641-.027,2.462-.027h1.942c.762,0,1.53.032,2.292.059.486,0,1,.041,1.5.068l1.034.059.971.063.971.072q.486.032.971.081l.971.09.971.1c1.525.163,3.044.366,4.555.6l1.02.167,1.209.212q.607.108,1.209.23l1.01.208c1.33.276,2.646.587,3.953.9.267.072.534.14.8.217l.432.117c.612.172,1.224.348,1.831.538h0l.8.253.185.059c.277.086.554.176.825.271q2.841.949,5.56,2.142c.262.108.52.226.777.343s.646.3.971.452c.486.221.937.452,1.4.687.558.285,1.112.574,1.661.877l.049.027c.257.14.51.28.767.429l.743.452c.825.488,1.636.994,2.428,1.527l.6.4.364.249.573.407q.622.452,1.224.9c.374.28.738.569,1.1.863l.51.416.32.267.486.452c.486.411.937.827,1.394,1.256l.554.529c.068.063.136.131.2.2.2.194.4.389.592.587l.656.678.641.691c.214.235.422.452.631.709s.413.483.617.723.408.493.607.741.384.474.568.718.486.619.709.94l.4.569.432.615c.359.529.714,1.071,1.063,1.622.141.23.282.452.418.687s.34.565.486.849.359.633.529.953l.053.095c.16.294.316.592.486.9.049.09.1.181.141.271.175.348.35.7.52,1.053.184.38.364.768.534,1.157a1.13,1.13,0,0,1,.049.113c.131.285.253.574.374.868.063.145.126.294.185.452.146.352.286.714.427,1.075s.3.8.447,1.206l.034.1c.151.42.291.84.432,1.27a71.593,71.593,0,0,1,3.21,15.209c.1,1.053.18,2.088.228,3.118C235.979,183.547,205.276,204.7,187.83,222.651Z" transform="translate(-46.18 -50.836)" fill="#05c1e7" stroke="#fff" stroke-width="2" opacity="0.7"/>
    </g>
    <g id="Group_2891" data-name="Group 2891" transform="translate(-1519.613 -493.041)">
      <rect id="Rectangle_131" data-name="Rectangle 131" width="82" height="30" transform="translate(2000.932 3348.795)" fill="#fff"/>
      <path id="Path_1284" data-name="Path 1284" d="M90.7,9.67H87.222V47.9c0,5.952-3.465,11.334-10.413,11.334H8.743v1.817c0,5.262,5.985,10.574,12.131,10.574h52.04L92.822,83.328,89.935,71.623H90.7c6.142,0,8.914-5.3,8.914-10.574v-42.3C99.613,13.482,96.841,9.67,90.7,9.67Z" transform="translate(2014.369 3346.684)" fill="#d68a31"/>
      <path id="Path_1285" data-name="Path 1285" d="M94.017,3.24H14.96C8,3.24,0,9.419,0,15.375V63.288c0,5.485,6.782,9.446,13.288,10.058L9.054,89.418l27.129-15.96H94.017c6.956,0,13.374-4.217,13.374-10.169V15.375C107.392,9.419,100.969,3.24,94.017,3.24Zm-67,40.445a7.142,7.142,0,1,1,7.142-7.142A7.141,7.141,0,0,1,27.021,43.685Zm26.674,0a7.142,7.142,0,1,1,7.142-7.142A7.141,7.141,0,0,1,53.7,43.685Zm26.679,0a7.142,7.142,0,1,1,7.142-7.142A7.145,7.145,0,0,1,80.374,43.685Z" transform="translate(1987 3326.555)" fill="#faa037"/>
    </g>
  </g>
</svg>
