<svg xmlns="http://www.w3.org/2000/svg" width="184.874" height="181.859" viewBox="0 0 184.874 181.859">
  <g id="Group_2929" data-name="Group 2929" transform="translate(-1372.495 -2459.275)">
    <g id="freepik--background-simple--inject-6" transform="translate(1373.468 2460.285)">
      <path id="Path_1207" data-name="Path 1207" d="M79.03,32.985c40.337-7.836,67.958,24.1,78.029,35.207l30.327,33.455c9.182,10.132,18.619,20.719,21.661,33.16,3.775,15.438,1.6,42.081-11.283,53.629s-30.982,18.422-49.585,21.354-37.786,2.047-56.536-.1c-10.849-1.228-21.747-2.96-31.715-6.734s-19.02-9.8-23.961-17.923c-5.94-9.768-5.367-21.4-2.837-32.145s6.861-21.218,8.057-32.12C42.239,111.321,22.543,43.965,79.03,32.985Z" transform="translate(-31.314 -31.762)" fill="#05c1e7" stroke="#fff" stroke-width="2"/>
      <path id="Path_1208" data-name="Path 1208" d="M79.03,32.985c40.337-7.836,67.958,24.1,78.029,35.207l30.327,33.455c9.182,10.132,18.619,20.719,21.661,33.16,3.775,15.438,1.6,42.081-11.283,53.629s-30.982,18.422-49.585,21.354-37.786,2.047-56.536-.1c-10.849-1.228-21.747-2.96-31.715-6.734s-19.02-9.8-23.961-17.923c-5.94-9.768-5.367-21.4-2.837-32.145s6.861-21.218,8.057-32.12C42.239,111.321,22.543,43.965,79.03,32.985Z" transform="translate(-31.314 -31.762)" fill="#05c1e7" stroke="#fff" stroke-width="2" opacity="0.7"/>
    </g>
    <g id="Group_2890" data-name="Group 2890" transform="translate(-3609.132 -215.246)">
      <path id="Path_1286" data-name="Path 1286" d="M71.184,219.7a1.916,1.916,0,0,0-1.681-1.023H13.221A1.927,1.927,0,0,0,11.53,219.7L2.575,236.31a3.824,3.824,0,0,1,2.878-1.323h71.81a3.825,3.825,0,0,1,2.878,1.323Z" transform="translate(5015.177 2519.104)" fill="#dd9c51"/>
      <path id="Path_1287" data-name="Path 1287" d="M23.883,218.676H13.222a1.927,1.927,0,0,0-1.691,1.029L2.576,236.31a3.824,3.824,0,0,1,2.878-1.323H17.622L22.817,219.7C23.033,219.069,23.44,218.676,23.883,218.676Z" transform="translate(5015.176 2519.104)" fill="#d68a31"/>
      <path id="Path_1288" data-name="Path 1288" d="M104.545,218.676v16.311h17.782V218.676Z" transform="translate(4942.981 2519.104)" fill="#ddd"/>
      <path id="Path_1289" data-name="Path 1289" d="M104.545,218.676v16.311h8.891V218.676Z" transform="translate(4942.981 2519.104)" fill="#ceccca"/>
      <g id="Group_2104" data-name="Group 2104" transform="translate(5104.208 2738.818)">
        <path id="Path_1290" data-name="Path 1290" d="M359.285,379.552H325.5a2.223,2.223,0,1,0,0,4.445h33.787a2.223,2.223,0,0,0,0-4.445Z" transform="translate(-316.089 -333.615)" fill="#faa037"/>
        <path id="Path_1291" data-name="Path 1291" d="M344.657,239.122H309.33a6.224,6.224,0,0,1,0-12.448h23.34a2.223,2.223,0,1,0,0-4.445H309.33a10.669,10.669,0,0,0,0,21.339h35.326a11.868,11.868,0,0,1,11.853,11.862,12.733,12.733,0,0,1-8.27,11.892,2.223,2.223,0,0,0,1.546,4.168,17.2,17.2,0,0,0,11.17-16.07A16.317,16.317,0,0,0,344.657,239.122Z" transform="translate(-298.661 -222.229)" fill="#faa037"/>
      </g>
      <path id="Path_1292" data-name="Path 1292" d="M79.132,276.35a3.879,3.879,0,0,0-3.879-3.879H3.879A3.878,3.878,0,0,0,0,276.35v60.112a3.879,3.879,0,0,0,3.879,3.879H75.253a3.879,3.879,0,0,0,3.879-3.879C79.132,333.514,79.132,279.047,79.132,276.35Z" transform="translate(5017 2481.017)" fill="#faa037"/>
      <path id="Path_1293" data-name="Path 1293" d="M16,336.461V272.47H3.879A3.879,3.879,0,0,0,0,276.349v60.112a3.879,3.879,0,0,0,3.879,3.879h16A3.879,3.879,0,0,1,16,336.461Z" transform="translate(5017 2481.018)" fill="#d68a31"/>
      <path id="Path_1294" data-name="Path 1294" d="M107.622,291.639c2.868,0,2.868,2.1,5.735,2.1s2.868-2.1,5.736-2.1a4.066,4.066,0,0,1,2.595.851.407.407,0,0,0,.639-.335V272.47H104.545v19.586a.4.4,0,0,0,.625.336A4,4,0,0,1,107.622,291.639Z" transform="translate(4942.981 2481.018)" fill="#efefef"/>
      <path id="Path_1295" data-name="Path 1295" d="M113.435,272.47h-8.891v19.586a.4.4,0,0,0,.625.336,4,4,0,0,1,2.452-.753c2.868,0,2.868,2.1,5.735,2.1.028,0,.051,0,.079,0Z" transform="translate(4942.982 2481.018)" fill="#ddd"/>
      <path id="Path_1296" data-name="Path 1296" d="M374,7.1a21.051,21.051,0,0,0-12.509,4.119h0a21.179,21.179,0,0,0-4.5,29.612l14.681,19.949a2.9,2.9,0,0,0,4.664,0l14.681-19.949C401.334,26.8,391.138,7.115,374,7.1Zm-.139,31.846A10.818,10.818,0,1,1,384.68,28.125,10.817,10.817,0,0,1,373.863,38.942Z" transform="translate(4767.17 2668.904)" fill="#3c9fb7"/>
      <path id="Path_1297" data-name="Path 1297" d="M199.989,463.168H190.5a2.223,2.223,0,1,1,0-4.445h9.484a2.223,2.223,0,1,1,0,4.445Z" transform="translate(4883.695 2349.15)" fill="#ffd241"/>
      <path id="Path_1298" data-name="Path 1298" d="M415.606,224.3a4.053,4.053,0,1,1,4.3-3.782A4.051,4.051,0,0,1,415.606,224.3Z" transform="translate(4725.432 2520.857)" fill="#647892"/>
      <path id="Path_1299" data-name="Path 1299" d="M415.871,216.217a4.05,4.05,0,1,0,3.5,6.069A4.041,4.041,0,0,1,415.871,216.217Z" transform="translate(4725.432 2520.845)" fill="#4d6682"/>
      <path id="Path_1300" data-name="Path 1300" d="M380.827,125.436a22.115,22.115,0,0,1-18.321-9.709,21.323,21.323,0,0,0,1.308,2.011L378.5,137.686a2.9,2.9,0,0,0,4.664,0l14.681-19.949a21.331,21.331,0,0,0,1.308-2.012A22.115,22.115,0,0,1,380.827,125.436Z" transform="translate(4760.344 2591.993)" fill="#177288"/>
      <path id="Path_1301" data-name="Path 1301" d="M447.481,381.318a4.053,4.053,0,1,1,4.28-4.576A4.05,4.05,0,0,1,447.481,381.318Z" transform="translate(4702.865 2409.686)" fill="#647892"/>
      <path id="Path_1302" data-name="Path 1302" d="M447.746,373.236a4.05,4.05,0,1,0,3.5,6.069A4.041,4.041,0,0,1,447.746,373.236Z" transform="translate(4702.865 2409.675)" fill="#4d6682"/>
      <path id="Path_1303" data-name="Path 1303" d="M310.136,381.317a4.053,4.053,0,1,1,4.3-3.782A4.051,4.051,0,0,1,310.136,381.317Z" transform="translate(4800.106 2409.687)" fill="#647892"/>
      <path id="Path_1304" data-name="Path 1304" d="M310.4,373.236a4.051,4.051,0,1,0,3.5,6.069A4.041,4.041,0,0,1,310.4,373.236Z" transform="translate(4800.106 2409.675)" fill="#4d6682"/>
    </g>
  </g>
</svg>
