<svg xmlns="http://www.w3.org/2000/svg" width="189.348" height="174.887" viewBox="0 0 189.348 174.887">
  <g id="Group_2931" data-name="Group 2931" transform="translate(-1051.274 -2804.152)">
    <g id="freepik--background-simple--inject-6" transform="translate(1052.319 2805.152)">
      <path id="Path_1193" data-name="Path 1193" d="M33.762,157.174a49.115,49.115,0,0,1,2.619-29.181c5.225-12.914,16.447-22.1,29.027-27.448,18.275-7.767,36.219-7.934,51.083-23.183,4.582-4.7,8.432-10.092,13.118-14.7,13.805-13.57,34.016-11.937,49.1-1.163,31.479,22.477,42.8,66.992,41.05,103.794a60.712,60.712,0,0,1-21.152,42.724c-28.226,24.508-76.156,20.387-108.562,7.595C65.828,206.073,39.439,183.817,33.762,157.174Z" transform="translate(-32.648 -52.951)" fill="#05c1e7" stroke="#fff" stroke-width="2"/>
      <path id="Path_1194" data-name="Path 1194" d="M33.762,157.174a49.115,49.115,0,0,1,2.619-29.181c5.225-12.914,16.447-22.1,29.027-27.448,18.275-7.767,36.219-7.934,51.083-23.183,4.582-4.7,8.432-10.092,13.118-14.7,13.805-13.57,34.016-11.937,49.1-1.163,31.479,22.477,42.8,66.992,41.05,103.794a60.712,60.712,0,0,1-21.152,42.724c-28.226,24.508-76.156,20.387-108.562,7.595C65.828,206.073,39.439,183.817,33.762,157.174Z" transform="translate(-32.648 -52.951)" fill="#05c1e7" stroke="#fff" stroke-width="2" opacity="0.7"/>
    </g>
    <g id="Group_2892" data-name="Group 2892" transform="translate(-3886.972 -397.246)">
      <g id="Group_2106" data-name="Group 2106" transform="translate(4991.215 3246.551)">
        <path id="Path_1305" data-name="Path 1305" d="M30.281,98.836H137.85v96.055H30.281Z" transform="translate(-30.281 -98.836)" fill="#f1f1f4"/>
        <path id="Path_1306" data-name="Path 1306" d="M255.642,98.836h53.87v96.055h-53.87Z" transform="translate(-201.943 -98.836)" fill="#e2dff4"/>
      </g>
      <path id="Path_1307" data-name="Path 1307" d="M120.574,17.193,112.933,1.971A3.574,3.574,0,0,0,109.738,0H12.827A3.574,3.574,0,0,0,9.671,1.9L1.5,17.268A21.708,21.708,0,0,0,.087,22.931a12.118,12.118,0,0,0,12.2,12.039,12.118,12.118,0,0,0,12.2-12.039,12.2,12.2,0,0,0,24.392,0,12.2,12.2,0,0,0,24.392,0,12.2,12.2,0,0,0,24.392,0,12.2,12.2,0,0,0,24.392,0,11.87,11.87,0,0,0-1.473-5.738Z" transform="translate(4983.934 3223)" fill="#faa037"/>
      <path id="Path_1308" data-name="Path 1308" d="M315.235,17.193,307.594,1.971A3.574,3.574,0,0,0,304.4,0H255.642V34.968l.085,0a12.118,12.118,0,0,0,12.2-12.039,12.2,12.2,0,0,0,24.392,0,12.2,12.2,0,0,0,24.392,0,11.864,11.864,0,0,0-1.472-5.738Z" transform="translate(4789.273 3223)" fill="#d68a31"/>
      <g id="Group_2109" data-name="Group 2109" transform="translate(4984 3338.127)">
        <path id="Path_1309" data-name="Path 1309" d="M118.426,490.029H3.574A3.574,3.574,0,0,1,0,486.454a3.3,3.3,0,0,1,3.3-3.3H118.7a3.3,3.3,0,0,1,3.3,3.3A3.574,3.574,0,0,1,118.426,490.029Z" transform="translate(0 -483.156)" fill="#555a6e"/>
        <path id="Path_1310" data-name="Path 1310" d="M255.642,483.156v6.873h57.511a3.574,3.574,0,0,0,3.574-3.574,3.3,3.3,0,0,0-3.3-3.3Z" transform="translate(-194.727 -483.156)" fill="#424242"/>
      </g>
      <g id="Group_2111" data-name="Group 2111" transform="translate(5021.112 3265.6)">
        <path id="Path_1311" data-name="Path 1311" d="M182.265,238.629a3.574,3.574,0,0,1-5.427,0c-6.242-7.278-21.089-25.676-21.089-36.042a23.8,23.8,0,1,1,47.605,0C203.354,212.953,188.507,231.351,182.265,238.629Z" transform="translate(-155.749 -178.782)" fill="#faa037"/>
        <path id="Path_1312" data-name="Path 1312" d="M255.642,178.783v61.095a3.559,3.559,0,0,0,2.714-1.248c6.242-7.278,21.089-25.676,21.089-36.042A23.83,23.83,0,0,0,255.642,178.783Z" transform="translate(-231.839 -178.783)" fill="#d68a31"/>
      </g>
      <g id="Group_2114" data-name="Group 2114" transform="translate(5034.539 3279.899)">
        <g id="Group_2112" data-name="Group 2112">
          <path id="Path_1313" data-name="Path 1313" d="M222.473,259.542a10.377,10.377,0,1,1,10.376-10.377A10.388,10.388,0,0,1,222.473,259.542Z" transform="translate(-212.097 -238.789)" fill="#f1f1f4"/>
          <path id="Path_1314" data-name="Path 1314" d="M255.642,238.788v20.754a10.377,10.377,0,0,0,0-20.754Z" transform="translate(-245.266 -238.788)" fill="#e2dff4"/>
        </g>
        <g id="Group_2113" data-name="Group 2113" transform="translate(7.149 7.149)">
          <path id="Path_1315" data-name="Path 1315" d="M245.325,275.246a3.228,3.228,0,1,1,3.228-3.228A3.231,3.231,0,0,1,245.325,275.246Z" transform="translate(-242.098 -268.79)" fill="#ffd241"/>
          <path id="Path_1316" data-name="Path 1316" d="M255.642,268.791v6.456a3.228,3.228,0,0,0,0-6.456Z" transform="translate(-252.415 -268.791)" fill="#faa037"/>
        </g>
      </g>
    </g>
  </g>
</svg>
