<svg xmlns="http://www.w3.org/2000/svg" width="189.348" height="174.887" viewBox="0 0 189.348 174.887">
  <g id="Group_2951" data-name="Group 2951" transform="translate(-1000.955 -2805.398)">
    <g id="Group_2950" data-name="Group 2950">
      <g id="freepik--background-simple--inject-6" transform="translate(1002 2806.398)">
        <path id="Path_1193" data-name="Path 1193" d="M33.762,157.174a49.115,49.115,0,0,1,2.619-29.181c5.225-12.914,16.447-22.1,29.027-27.448,18.275-7.767,36.219-7.934,51.083-23.183,4.582-4.7,8.432-10.092,13.118-14.7,13.805-13.57,34.016-11.937,49.1-1.163,31.479,22.477,42.8,66.992,41.05,103.794a60.712,60.712,0,0,1-21.152,42.724c-28.226,24.508-76.156,20.387-108.562,7.595C65.828,206.073,39.439,183.817,33.762,157.174Z" transform="translate(-32.648 -52.951)" fill="#ffdf78" stroke="#fff" stroke-width="2"/>
        <path id="Path_1194" data-name="Path 1194" d="M33.762,157.174a49.115,49.115,0,0,1,2.619-29.181c5.225-12.914,16.447-22.1,29.027-27.448,18.275-7.767,36.219-7.934,51.083-23.183,4.582-4.7,8.432-10.092,13.118-14.7,13.805-13.57,34.016-11.937,49.1-1.163,31.479,22.477,42.8,66.992,41.05,103.794a60.712,60.712,0,0,1-21.152,42.724c-28.226,24.508-76.156,20.387-108.562,7.595C65.828,206.073,39.439,183.817,33.762,157.174Z" transform="translate(-32.648 -52.951)" fill="#ffd241" stroke="#fff" stroke-width="2"/>
      </g>
      <g id="moresales" transform="translate(1032.723 2816.688)">
        <g id="Group_141" data-name="Group 141" transform="translate(0 0)">
          <g id="Group_99" data-name="Group 99" transform="translate(17.908 53.725)">
            <path id="Path_248" data-name="Path 248" d="M86.716,232.624a2.239,2.239,0,0,1-2.239-2.239v-9.338a12.961,12.961,0,0,0-3.821-9.226,2.238,2.238,0,1,1,3.165-3.166,17.409,17.409,0,0,1,5.133,12.391v9.338A2.239,2.239,0,0,1,86.716,232.624Z" transform="translate(-80 -208)" fill="#faa037"/>
          </g>
          <g id="Group_100" data-name="Group 100" transform="translate(8.954 35.817)">
            <path id="Path_249" data-name="Path 249" d="M52.477,152.954H48v-6.716a2.239,2.239,0,1,1,4.477,0Z" transform="translate(-48 -144)" fill="#ffd241"/>
          </g>
          <g id="Group_101" data-name="Group 101" transform="translate(8.954 49.248)">
            <path id="Path_250" data-name="Path 250" d="M50.239,200.954A2.239,2.239,0,0,1,48,198.716V192h4.477v6.716A2.239,2.239,0,0,1,50.239,200.954Z" transform="translate(-48 -192)" fill="#ffd241"/>
          </g>
          <g id="Group_102" data-name="Group 102" transform="translate(13.431 44.771)">
            <path id="Path_251" data-name="Path 251" d="M64,180.477V176h6.716a2.239,2.239,0,1,1,0,4.477Z" transform="translate(-64 -176)" fill="#ffd241"/>
          </g>
          <g id="Group_103" data-name="Group 103" transform="translate(0 44.771)">
            <path id="Path_252" data-name="Path 252" d="M16,178.239A2.239,2.239,0,0,1,18.239,176h6.716v4.477H18.239A2.239,2.239,0,0,1,16,178.239Z" transform="translate(-16 -176)" fill="#ffd241"/>
          </g>
          <g id="Group_104" data-name="Group 104" transform="translate(107.45 53.725)">
            <path id="Path_253" data-name="Path 253" d="M402.239,232.624A2.239,2.239,0,0,1,400,230.386v-9.338a17.409,17.409,0,0,1,5.133-12.391,2.238,2.238,0,1,1,3.165,3.166,12.962,12.962,0,0,0-3.821,9.226v9.338A2.239,2.239,0,0,1,402.239,232.624Z" transform="translate(-400 -208)" fill="#faa037"/>
          </g>
          <g id="Group_105" data-name="Group 105" transform="translate(53.725 67.156)">
            <path id="Path_254" data-name="Path 254" d="M232.624,262.716H210.239A2.239,2.239,0,0,1,208,260.477V256h26.863v4.477A2.239,2.239,0,0,1,232.624,262.716Z" transform="translate(-208 -256)" fill="#555a6e"/>
          </g>
          <g id="Group_106" data-name="Group 106" transform="translate(53.725 67.156)">
            <path id="Path_255" data-name="Path 255" d="M208,256h26.863v2.239H208Z" transform="translate(-208 -256)" fill="#463c4b"/>
          </g>
          <g id="Group_107" data-name="Group 107" transform="translate(67.156 69.395)">
            <path id="Path_256" data-name="Path 256" d="M269.431,264H256v4.477h11.193a2.239,2.239,0,0,0,2.239-2.239Z" transform="translate(-256 -264)" fill="#463c4b"/>
          </g>
          <g id="Group_108" data-name="Group 108" transform="translate(13.431 76.111)">
            <path id="Path_257" data-name="Path 257" d="M162.5,346.2H72.954A8.954,8.954,0,0,1,64,337.248V288H171.45v49.248A8.954,8.954,0,0,1,162.5,346.2Z" transform="translate(-64 -288)" fill="#177288"/>
          </g>
          <g id="Group_109" data-name="Group 109" transform="translate(13.431 76.111)">
            <path id="Path_258" data-name="Path 258" d="M108.771,346.2H72.954A8.954,8.954,0,0,1,64,337.248V288h53.725v49.248A8.954,8.954,0,0,1,108.771,346.2Z" transform="translate(-64 -288)" fill="#87d3e5"/>
          </g>
          <g id="Group_110" data-name="Group 110" transform="translate(4.477 76.111)">
            <path id="Path_259" data-name="Path 259" d="M94.679,288a8.954,8.954,0,0,0-8.954,8.954v8.954a2.239,2.239,0,0,1-2.239,2.239H34.239A2.239,2.239,0,0,1,32,305.908v-8.954A8.954,8.954,0,0,1,40.954,288Z" transform="translate(-32 -288)" fill="#d6f7ff"/>
          </g>
          <g id="Group_111" data-name="Group 111" transform="translate(67.156 76.111)">
            <path id="Path_260" data-name="Path 260" d="M256,288a8.954,8.954,0,0,1,8.954,8.954v8.954a2.239,2.239,0,0,0,2.239,2.239h49.248a2.239,2.239,0,0,0,2.239-2.239v-8.954A8.954,8.954,0,0,0,309.725,288Z" transform="translate(-256 -288)" fill="#d6f7ff"/>
          </g>
          <g id="Group_112" data-name="Group 112" transform="translate(67.156 0)">
            <path id="Path_261" data-name="Path 261" d="M269.431,83.156H256V16a10.809,10.809,0,0,1,7.643,3.166,35.048,35.048,0,0,1,10.265,24.783v34.73A4.477,4.477,0,0,1,269.431,83.156Z" transform="translate(-256 -16)" fill="#a5c3dc"/>
          </g>
          <g id="Group_113" data-name="Group 113" transform="translate(49.248 0)">
            <path id="Path_262" data-name="Path 262" d="M196.477,83.156h13.431V16a10.809,10.809,0,0,0-7.643,3.166A35.048,35.048,0,0,0,192,43.949v34.73A4.477,4.477,0,0,0,196.477,83.156Z" transform="translate(-192 -16)" fill="#d7e6f0"/>
          </g>
          <g id="Group_114" data-name="Group 114" transform="translate(55.964 17.848)">
            <circle id="Ellipse_5" data-name="Ellipse 5" cx="11" cy="11" r="11" transform="translate(0.314 0.465)" fill="#21c2e9"/>
          </g>
          <g id="Group_115" data-name="Group 115" transform="translate(67.156 17.908)">
            <path id="Path_263" data-name="Path 263" d="M267.193,91.193A11.193,11.193,0,0,0,256,80v22.385A11.193,11.193,0,0,0,267.193,91.193Z" transform="translate(-256 -80)" fill="#177288"/>
          </g>
          <g id="Group_116" data-name="Group 116" transform="translate(60.501 22.385)">
            <ellipse id="Ellipse_6" data-name="Ellipse 6" cx="7" cy="6.5" rx="7" ry="6.5" transform="translate(-0.224 -0.073)" fill="#00d2d2"/>
          </g>
          <g id="Group_117" data-name="Group 117" transform="translate(64.918 44.771)">
            <path id="Path_264" data-name="Path 264" d="M250.239,176A2.239,2.239,0,0,0,248,178.239v22.385a2.239,2.239,0,1,0,4.477,0V178.239A2.239,2.239,0,0,0,250.239,176Z" transform="translate(-248 -176)" fill="#21c2e9"/>
          </g>
          <g id="Group_118" data-name="Group 118" transform="translate(85.065 44.771)">
            <path id="Path_265" data-name="Path 265" d="M320,193.908l8.027,8.027a3.166,3.166,0,0,0,5.4-2.239v-7.484a6.717,6.717,0,0,0-1.967-4.749L320,176Z" transform="translate(-320 -176)" fill="#177288"/>
          </g>
          <g id="Group_119" data-name="Group 119" transform="translate(35.817 44.771)">
            <path id="Path_266" data-name="Path 266" d="M157.431,193.908l-8.027,8.027A3.166,3.166,0,0,1,144,199.7v-7.484a6.717,6.717,0,0,1,1.967-4.749L157.431,176Z" transform="translate(-144 -176)" fill="#87d3e5"/>
          </g>
          <g id="Group_120" data-name="Group 120" transform="translate(54.842)">
            <path id="Path_267" data-name="Path 267" d="M224.3,16v8.954H211.99a34.946,34.946,0,0,1,4.673-5.789A10.81,10.81,0,0,1,224.3,16Z" transform="translate(-211.99 -16)" fill="#21c2e9"/>
          </g>
          <g id="Group_121" data-name="Group 121" transform="translate(67.156 0)">
            <path id="Path_268" data-name="Path 268" d="M268.315,24.954H256V16a10.81,10.81,0,0,1,7.642,3.165A34.946,34.946,0,0,1,268.315,24.954Z" transform="translate(-256 -16)" fill="#177288"/>
          </g>
          <g id="Group_122" data-name="Group 122" transform="translate(55.964 73.872)">
            <path id="Path_269" data-name="Path 269" d="M216,280h22.385v2.239H216Z" transform="translate(-216 -280)" fill="#00d2d2"/>
          </g>
          <g id="Group_123" data-name="Group 123" transform="translate(120.881 35.817)">
            <path id="Path_270" data-name="Path 270" d="M448,152.954h4.477v-6.716a2.239,2.239,0,0,0-4.477,0Z" transform="translate(-448 -144)" fill="#ffd241"/>
          </g>
          <g id="Group_124" data-name="Group 124" transform="translate(120.881 49.248)">
            <path id="Path_271" data-name="Path 271" d="M450.239,200.954a2.239,2.239,0,0,0,2.239-2.239V192H448v6.716A2.239,2.239,0,0,0,450.239,200.954Z" transform="translate(-448 -192)" fill="#ffd241"/>
          </g>
          <g id="Group_125" data-name="Group 125" transform="translate(111.927 44.771)">
            <path id="Path_272" data-name="Path 272" d="M424.954,180.477V176h-6.716a2.239,2.239,0,1,0,0,4.477Z" transform="translate(-416 -176)" fill="#ffd241"/>
          </g>
          <g id="Group_126" data-name="Group 126" transform="translate(125.359 44.771)">
            <path id="Path_273" data-name="Path 273" d="M472.954,178.239A2.239,2.239,0,0,0,470.716,176H464v4.477h6.716A2.239,2.239,0,0,0,472.954,178.239Z" transform="translate(-464 -176)" fill="#ffd241"/>
          </g>
          <g id="Group_127" data-name="Group 127" transform="translate(96.257 2.239)">
            <path id="Path_274" data-name="Path 274" d="M360,30.716h4.477V26.239a2.239,2.239,0,0,0-4.477,0Z" transform="translate(-360 -24)" fill="#ffd241"/>
          </g>
          <g id="Group_128" data-name="Group 128" transform="translate(96.257 13.431)">
            <path id="Path_275" data-name="Path 275" d="M362.239,70.716a2.239,2.239,0,0,0,2.239-2.239V64H360v4.477A2.239,2.239,0,0,0,362.239,70.716Z" transform="translate(-360 -64)" fill="#ffd241"/>
          </g>
          <g id="Group_129" data-name="Group 129" transform="translate(89.542 8.954)">
            <path id="Path_276" data-name="Path 276" d="M342.716,52.477V48h-4.477a2.239,2.239,0,1,0,0,4.477Z" transform="translate(-336 -48)" fill="#ffd241"/>
          </g>
          <g id="Group_130" data-name="Group 130" transform="translate(100.735 8.954)">
            <path id="Path_277" data-name="Path 277" d="M382.716,50.239A2.239,2.239,0,0,0,380.477,48H376v4.477h4.477A2.239,2.239,0,0,0,382.716,50.239Z" transform="translate(-376 -48)" fill="#ffd241"/>
          </g>
          <g id="Group_131" data-name="Group 131" transform="translate(96.257 24.624)">
            <path id="Path_278" data-name="Path 278" d="M362.239,121.908A2.239,2.239,0,0,1,360,119.67V106.239a2.239,2.239,0,0,1,4.477,0V119.67A2.239,2.239,0,0,1,362.239,121.908Z" transform="translate(-360 -104)" fill="#faa037"/>
          </g>
          <g id="Group_132" data-name="Group 132" transform="translate(96.257 44.771)">
            <path id="Path_279" data-name="Path 279" d="M362.239,182.716A2.239,2.239,0,0,1,360,180.477v-2.239a2.239,2.239,0,0,1,4.477,0v2.239A2.239,2.239,0,0,1,362.239,182.716Z" transform="translate(-360 -176)" fill="#faa037"/>
          </g>
          <g id="Group_133" data-name="Group 133" transform="translate(33.578 2.239)">
            <path id="Path_280" data-name="Path 280" d="M136,30.716h4.477V26.239a2.239,2.239,0,0,0-4.477,0Z" transform="translate(-136 -24)" fill="#ffd241"/>
          </g>
          <g id="Group_134" data-name="Group 134" transform="translate(33.578 13.431)">
            <path id="Path_281" data-name="Path 281" d="M138.239,70.716a2.239,2.239,0,0,0,2.239-2.239V64H136v4.477A2.239,2.239,0,0,0,138.239,70.716Z" transform="translate(-136 -64)" fill="#ffd241"/>
          </g>
          <g id="Group_135" data-name="Group 135" transform="translate(26.863 8.954)">
            <path id="Path_282" data-name="Path 282" d="M118.716,52.477V48h-4.477a2.239,2.239,0,1,0,0,4.477Z" transform="translate(-112 -48)" fill="#ffd241"/>
          </g>
          <g id="Group_136" data-name="Group 136" transform="translate(38.055 8.954)">
            <path id="Path_283" data-name="Path 283" d="M158.716,50.239A2.239,2.239,0,0,0,156.477,48H152v4.477h4.477A2.239,2.239,0,0,0,158.716,50.239Z" transform="translate(-152 -48)" fill="#ffd241"/>
          </g>
          <g id="Group_137" data-name="Group 137" transform="translate(33.578 24.624)">
            <path id="Path_284" data-name="Path 284" d="M138.239,121.908A2.239,2.239,0,0,1,136,119.67V106.239a2.239,2.239,0,1,1,4.477,0V119.67A2.239,2.239,0,0,1,138.239,121.908Z" transform="translate(-136 -104)" fill="#faa037"/>
          </g>
          <g id="Group_138" data-name="Group 138" transform="translate(33.578 44.771)">
            <path id="Path_285" data-name="Path 285" d="M138.239,182.716A2.239,2.239,0,0,1,136,180.477v-2.239a2.239,2.239,0,0,1,4.477,0v2.239A2.239,2.239,0,0,1,138.239,182.716Z" transform="translate(-136 -176)" fill="#faa037"/>
          </g>
          <g id="Group_139" data-name="Group 139" transform="translate(116.465 17.848)">
            <circle id="Ellipse_7" data-name="Ellipse 7" cx="4.5" cy="4.5" r="4.5" transform="translate(-0.188 0.465)" fill="#faa037"/>
          </g>
          <g id="Group_140" data-name="Group 140" transform="translate(9.075 17.848)">
            <circle id="Ellipse_8" data-name="Ellipse 8" cx="4.5" cy="4.5" r="4.5" transform="translate(0.202 0.465)" fill="#faa037"/>
          </g>
        </g>
      </g>
    </g>
  </g>
</svg>
