<svg xmlns="http://www.w3.org/2000/svg" width="129.323" height="208.559" viewBox="0 0 129.323 208.559">
  <g id="Group_10918" data-name="Group 10918" transform="translate(338.076 664.307)">
    <g id="Group_10859" data-name="Group 10859">
      <g id="Group_10858" data-name="Group 10858" transform="translate(-743.103 -837.572)">
        <path id="Path_86" data-name="Path 86" d="M523.827,341.3a78.765,78.765,0,0,1,.784,11.088c0,37.691-26.567,68.245-59.338,68.245s-59.338-30.554-59.338-68.245a78.81,78.81,0,0,1,.784-11.088,55.2,55.2,0,0,0-1.691,13.526c0,42.8,36.516,82.494,60.224,110.851,24.3-28.735,60.268-68.8,60.268-110.851A55.18,55.18,0,0,0,523.827,341.3Z" transform="translate(0 -114.09)" fill="#fff"/>
        <path id="Logo" d="M524.944,184.245c-.667,0-1.326.035-1.975.1a56.119,56.119,0,0,0-62.377-3.062,21.563,21.563,0,0,1,11.6,3.093,55.919,55.919,0,0,0-31.75,12.573,13.428,13.428,0,0,1,5.573.408c-5.887,2-11.773,4.639-16.984,12.3q-.924,1.41-1.766,2.878a12.747,12.747,0,0,1,6.6-1.223c-4.163,2.082-10.872,8.833-13.186,19.583a56.521,56.521,0,0,0,1.705,26.078c-.034-8.573,4.366-24.476,15.669-32.878-10.4,10.776-13.653,31.806-9.938,45.536a56.331,56.331,0,0,0,25.961,22.4c-11.5-29.455-6.4-64.638,16.765-88.3-21.356,26.421-22.617,64.467-4.576,91.9a56.339,56.339,0,0,0,29.829-2.871c-21.716-18.517-29.081-50.945-14.217-76.5-10.741,26.363.5,57.918,26.237,70.115a56.347,56.347,0,0,0,18.209-21.185,34.807,34.807,0,0,1,7.367-68.823c.4,0,.794.017,1.189.03a34.707,34.707,0,0,1,9.556,1.668A20.666,20.666,0,0,0,524.944,184.245Zm-10.708,4.407c-1.05.45-5.026-3.376-5.777-4.311,1.126.73,7.427,1.31,8.617,1.458C517.077,185.8,515.287,188.2,514.237,188.652Z" transform="translate(-10.087 0)" fill="#fff"/>
      </g>
    </g>
  </g> 
</svg>
