<svg xmlns="http://www.w3.org/2000/svg" width="181.46" height="181.859" viewBox="0 0 181.46 181.859">
  <g id="Group_2948" data-name="Group 2948" transform="translate(-1322.176 -2452.522)">
    <g id="freepik--background-simple--inject-6" transform="translate(1323.149 2453.532)">
      <path id="Path_1207" data-name="Path 1207" d="M79.03,32.985c40.337-7.836,67.958,24.1,78.029,35.207l30.327,33.455c9.182,10.132,18.619,20.719,21.661,33.16,3.775,15.438,1.6,42.081-11.283,53.629s-30.982,18.422-49.585,21.354-37.786,2.047-56.536-.1c-10.849-1.228-21.747-2.96-31.715-6.734s-19.02-9.8-23.961-17.923c-5.94-9.768-5.367-21.4-2.837-32.145s6.861-21.218,8.057-32.12C42.239,111.321,22.543,43.965,79.03,32.985Z" transform="translate(-31.314 -31.762)" fill="#ffdf78" stroke="#fff" stroke-width="2"/>
      <path id="Path_1208" data-name="Path 1208" d="M79.03,32.985c40.337-7.836,67.958,24.1,78.029,35.207l30.327,33.455c9.182,10.132,18.619,20.719,21.661,33.16,3.775,15.438,1.6,42.081-11.283,53.629s-30.982,18.422-49.585,21.354-37.786,2.047-56.536-.1c-10.849-1.228-21.747-2.96-31.715-6.734s-19.02-9.8-23.961-17.923c-5.94-9.768-5.367-21.4-2.837-32.145s6.861-21.218,8.057-32.12C42.239,111.321,22.543,43.965,79.03,32.985Z" transform="translate(-31.314 -31.762)" fill="#ffd241" stroke="#fff" stroke-width="2"/>
    </g>
    <g id="Group_2102" data-name="Group 2102" transform="translate(2148.188 335.132)">
      <path id="Path_1247" data-name="Path 1247" d="M237.772,181.406a21.407,21.407,0,0,1-.68-7.367l1.214-11.436a39.583,39.583,0,0,0-3.677-20.825c-8.207-16.694-6.324-17.906-6.579-34.474a6.129,6.129,0,0,0-12.257,0c0,67.378.125,62.433-.29,64.409v8.823a13.5,13.5,0,0,1-13.481,13.481H168.473A47.6,47.6,0,0,0,188.86,210.2l.152.064c6.322,2.67,13.381,8,14.56,14.609l.114.472a74.1,74.1,0,0,0,43.049-20.422Z" transform="translate(-928.01 2069.528)" fill="#f9ba8f"/>
      <path id="Path_1248" data-name="Path 1248" d="M61.7,93.569l-1.867-1.729a7.133,7.133,0,1,0-9.7,10.464L61.7,113.016Z" transform="translate(-843.999 2077.348)" fill="#f9ba8f"/>
      <path id="Path_1249" data-name="Path 1249" d="M53.931,98.76a7.134,7.134,0,0,1-2.206-6.2,7.06,7.06,0,0,0-1.971,1.484,7.154,7.154,0,0,0,.384,10.08L61.7,114.835v-8.876Z" transform="translate(-843.999 2075.53)" fill="#fcad6d"/>
      <g id="Group_2086" data-name="Group 2086" transform="translate(-734.47 2252.398)">
        <path id="Path_1250" data-name="Path 1250" d="M295.867,370.388a36.127,36.127,0,0,1-44.79,29.716c4.808,2.94,9.133,7.236,10.033,12.281L262.2,415c15.644-.943,31.009-3.676,46.641-11.186Z" transform="translate(-251.077 -370.388)" fill="#fd995b"/>
      </g>
      <g id="Group_2087" data-name="Group 2087" transform="translate(-782.565 2140)">
        <path id="Path_1251" data-name="Path 1251" d="M152.378,123.834H103.146a10.57,10.57,0,0,1-10.558-10.558V10.558A10.57,10.57,0,0,1,103.146,0h49.232a10.57,10.57,0,0,1,10.558,10.558V113.276A10.57,10.57,0,0,1,152.378,123.834Z" transform="translate(-92.588)" fill="#555a6e"/>
      </g>
      <g id="Group_2088" data-name="Group 2088" transform="translate(-758.048 2143.917)">
        <path id="Path_1253" data-name="Path 1253" d="M176.259,16.556H175.2a1.825,1.825,0,1,1,0-3.649h1.054a1.825,1.825,0,1,1,0,3.649Z" transform="translate(-173.38 -12.907)" fill="#ffd241"/>
      </g>
      <g id="Group_2089" data-name="Group 2089" transform="translate(-750.766 2143.917)">
        <path id="Path_1254" data-name="Path 1254" d="M209.331,16.556H199.2a1.825,1.825,0,1,1,0-3.649h10.13a1.825,1.825,0,1,1,0,3.649Z" transform="translate(-197.376 -12.907)" fill="#faa037"/>
      </g>
      <path id="Path_1255" data-name="Path 1255" d="M167.455,21.646h-7.4a2.5,2.5,0,0,0-2.5,2.5,2.928,2.928,0,0,1-2.919,2.92h-23.6a2.928,2.928,0,0,1-2.92-2.92,2.5,2.5,0,0,0-2.5-2.5h-7.4a3.989,3.989,0,0,0-3.989,3.989V128.353a3.989,3.989,0,0,0,3.989,3.989h49.232a3.989,3.989,0,0,0,3.989-3.989V25.635a3.989,3.989,0,0,0-3.989-3.989Z" transform="translate(-890.23 2124.923)" fill="#6690c3"/>
      <path id="Path_1256" data-name="Path 1256" d="M133.441,132.343c-.759-3.273,3.038-4.038,3.038-4.038s2.415-21.154,0-23.569a3.175,3.175,0,0,1,0-4.7s2.638-20.93,0-23.569,0-4.7,0-4.7V48.208c-4.725-2.984-2.24-7.277-2.24-7.277v-6.76a4.988,4.988,0,0,1-.233-7.108H131.04a2.928,2.928,0,0,1-2.92-2.92,2.5,2.5,0,0,0-2.5-2.5h-7.4a3.989,3.989,0,0,0-3.989,3.989V128.354a3.989,3.989,0,0,0,3.989,3.989h15.218Z" transform="translate(-890.23 2124.922)" fill="#177288"/>
      <g id="Group_2090" data-name="Group 2090" transform="translate(-765.613 2159.094)">
        <path id="Path_1257" data-name="Path 1257" d="M151.83,69.68h29.684a3.38,3.38,0,0,0,0-6.759H151.83a3.38,3.38,0,1,0,0,6.759Z" transform="translate(-148.45 -62.921)" fill="#e9efff"/>
      </g>
      <path id="Path_1258" data-name="Path 1258" d="M151.831,62.921h6.243v6.76h-6.243a3.38,3.38,0,0,1,0-6.76Z" transform="translate(-914.064 2096.173)" fill="#9bd8f9"/>
      <g id="Group_2091" data-name="Group 2091" transform="translate(-771.272 2173.13)">
        <path id="Path_1259" data-name="Path 1259" d="M174.524,132.743H132.843a3.049,3.049,0,0,1-3.04-3.04V112.214a3.049,3.049,0,0,1,3.04-3.04h41.681a3.049,3.049,0,0,1,3.04,3.04V129.7A3.049,3.049,0,0,1,174.524,132.743Z" transform="translate(-129.803 -109.174)" fill="#e9efff"/>
        <path id="Path_1260" data-name="Path 1260" d="M174.524,225.883H132.843a3.049,3.049,0,0,1-3.04-3.04V205.354a3.049,3.049,0,0,1,3.04-3.04h41.681a3.049,3.049,0,0,1,3.04,3.04v17.489A3.049,3.049,0,0,1,174.524,225.883Z" transform="translate(-129.803 -174.05)" fill="#e9efff"/>
        <path id="Path_1261" data-name="Path 1261" d="M174.524,319.023H132.843a3.049,3.049,0,0,1-3.04-3.04V298.494a3.049,3.049,0,0,1,3.04-3.04h41.681a3.049,3.049,0,0,1,3.04,3.04v17.489A3.049,3.049,0,0,1,174.524,319.023Z" transform="translate(-129.803 -238.926)" fill="#e9efff"/>
        <path id="Path_1262" data-name="Path 1262" d="M174.524,132.743H132.843a3.049,3.049,0,0,1-3.04-3.04V112.214a3.049,3.049,0,0,1,3.04-3.04h41.681a3.049,3.049,0,0,1,3.04,3.04V129.7A3.049,3.049,0,0,1,174.524,132.743Z" transform="translate(-129.803 -109.174)" fill="#e9efff"/>
        <path id="Path_1263" data-name="Path 1263" d="M174.524,225.883H132.843a3.049,3.049,0,0,1-3.04-3.04V205.354a3.049,3.049,0,0,1,3.04-3.04h41.681a3.049,3.049,0,0,1,3.04,3.04v17.489A3.049,3.049,0,0,1,174.524,225.883Z" transform="translate(-129.803 -174.05)" fill="#e9efff"/>
        <path id="Path_1264" data-name="Path 1264" d="M174.524,319.023H132.843a3.049,3.049,0,0,1-3.04-3.04V298.494a3.049,3.049,0,0,1,3.04-3.04h41.681a3.049,3.049,0,0,1,3.04,3.04v17.489A3.049,3.049,0,0,1,174.524,319.023Z" transform="translate(-129.803 -238.926)" fill="#e9efff"/>
      </g>
      <path id="Path_1265" data-name="Path 1265" d="M144.284,129.7V112.215a3.049,3.049,0,0,1,3.04-3.04H132.843a3.049,3.049,0,0,0-3.04,3.04V129.7a3.049,3.049,0,0,0,3.04,3.04h14.481A3.049,3.049,0,0,1,144.284,129.7Z" transform="translate(-901.075 2063.955)" fill="#d3dcfb"/>
      <path id="Path_1266" data-name="Path 1266" d="M144.284,222.843V205.354a3.049,3.049,0,0,1,3.04-3.04H132.843a3.049,3.049,0,0,0-3.04,3.04v17.489a3.049,3.049,0,0,0,3.04,3.04h14.481A3.049,3.049,0,0,1,144.284,222.843Z" transform="translate(-901.075 1999.08)" fill="#d3dcfb"/>
      <path id="Path_1267" data-name="Path 1267" d="M144.284,315.983V298.494a3.049,3.049,0,0,1,3.04-3.04H132.843a3.049,3.049,0,0,0-3.04,3.04v17.489a3.049,3.049,0,0,0,3.04,3.04h14.481A3.049,3.049,0,0,1,144.284,315.983Z" transform="translate(-901.075 1934.204)" fill="#d3dcfb"/>
      <g id="Group_2092" data-name="Group 2092" transform="translate(-763.5 2178.353)">
        <path id="Path_1268" data-name="Path 1268" d="M169.879,130.939h-12.19a2.276,2.276,0,1,1,0-4.552h12.19a2.276,2.276,0,1,1,0,4.552Z" transform="translate(-155.413 -126.387)" fill="#ffd241"/>
      </g>
      <g id="Group_2093" data-name="Group 2093" transform="translate(-763.5 2186.924)">
        <path id="Path_1269" data-name="Path 1269" d="M185.355,159.181H157.689a2.276,2.276,0,1,1,0-4.552h27.666a2.276,2.276,0,0,1,0,4.552Z" transform="translate(-155.413 -154.629)" fill="#424242"/>
      </g>
      <g id="Group_2094" data-name="Group 2094" transform="translate(-743.522 2178.353)">
        <path id="Path_1270" data-name="Path 1270" d="M225.244,130.939h-1.72a2.276,2.276,0,1,1,0-4.552h1.72a2.276,2.276,0,1,1,0,4.552Z" transform="translate(-221.248 -126.387)" fill="#faa037"/>
      </g>
      <g id="Group_2095" data-name="Group 2095" transform="translate(-763.5 2206.617)">
        <path id="Path_1271" data-name="Path 1271" d="M169.879,224.079h-12.19a2.276,2.276,0,1,1,0-4.552h12.19a2.276,2.276,0,1,1,0,4.552Z" transform="translate(-155.413 -219.527)" fill="#ffd241"/>
      </g>
      <g id="Group_2096" data-name="Group 2096" transform="translate(-763.5 2215.188)">
        <path id="Path_1272" data-name="Path 1272" d="M185.355,252.321H157.689a2.276,2.276,0,1,1,0-4.552h27.666a2.276,2.276,0,0,1,0,4.552Z" transform="translate(-155.413 -247.769)" fill="#424242"/>
      </g>
      <g id="Group_2097" data-name="Group 2097" transform="translate(-743.522 2206.617)">
        <path id="Path_1273" data-name="Path 1273" d="M225.244,224.079h-1.72a2.276,2.276,0,1,1,0-4.552h1.72a2.276,2.276,0,1,1,0,4.552Z" transform="translate(-221.248 -219.527)" fill="#faa037"/>
      </g>
      <g id="Group_2098" data-name="Group 2098" transform="translate(-763.5 2234.882)">
        <path id="Path_1274" data-name="Path 1274" d="M169.879,317.219h-12.19a2.276,2.276,0,1,1,0-4.552h12.19a2.276,2.276,0,1,1,0,4.552Z" transform="translate(-155.413 -312.667)" fill="#ffd241"/>
      </g>
      <g id="Group_2099" data-name="Group 2099" transform="translate(-763.5 2243.452)">
        <path id="Path_1275" data-name="Path 1275" d="M185.355,345.461H157.689a2.276,2.276,0,1,1,0-4.552h27.666a2.276,2.276,0,1,1,0,4.552Z" transform="translate(-155.413 -340.909)" fill="#424242"/>
      </g>
      <g id="Group_2100" data-name="Group 2100" transform="translate(-743.522 2234.882)">
        <path id="Path_1276" data-name="Path 1276" d="M225.244,317.219h-1.72a2.276,2.276,0,1,1,0-4.552h1.72a2.276,2.276,0,1,1,0,4.552Z" transform="translate(-221.248 -312.667)" fill="#faa037"/>
      </g>
      <path id="Path_1277" data-name="Path 1277" d="M78.773,179.483a6.25,6.25,0,0,1-8.832.337l-10.468-9.7a6.25,6.25,0,0,1,8.5-9.168l10.468,9.7a6.25,6.25,0,0,1,.337,8.832Z" transform="translate(-850.692 2029.051)" fill="#f9ba8f"/>
      <path id="Path_1278" data-name="Path 1278" d="M74.248,175.992l-10.468-9.7a6.247,6.247,0,0,1-1.8-6.172,6.24,6.24,0,0,0-2.51,10.581l10.468,9.7a6.248,6.248,0,0,0,10.292-3,6.24,6.24,0,0,1-5.985-1.413Z" transform="translate(-850.692 2028.47)" fill="#fcad6d"/>
      <g id="Group_2101" data-name="Group 2101" transform="translate(-793.222 2222.43)">
        <path id="Path_1279" data-name="Path 1279" d="M78.773,291.832a6.25,6.25,0,0,1-8.832.337l-10.468-9.7a6.25,6.25,0,0,1,8.5-9.168L78.437,283a6.249,6.249,0,0,1,.337,8.832Z" transform="translate(-57.471 -271.635)" fill="#f9ba8f"/>
      </g>
      <path id="Path_1280" data-name="Path 1280" d="M74.248,288.34l-10.468-9.7a6.247,6.247,0,0,1-1.8-6.172,6.24,6.24,0,0,0-2.51,10.581l10.468,9.7a6.248,6.248,0,0,0,10.292-3A6.239,6.239,0,0,1,74.248,288.34Z" transform="translate(-850.692 1950.215)" fill="#fcad6d"/>
      <path id="Path_1281" data-name="Path 1281" d="M78.773,235.658a6.25,6.25,0,0,1-8.832.337l-10.468-9.7a6.25,6.25,0,1,1,8.5-9.168l10.468,9.7a6.25,6.25,0,0,1,.337,8.832Z" transform="translate(-850.692 1989.923)" fill="#f9ba8f"/>
      <path id="Path_1282" data-name="Path 1282" d="M74.248,232.166l-10.468-9.7a6.247,6.247,0,0,1-1.8-6.172,6.24,6.24,0,0,0-2.51,10.581l10.468,9.7a6.248,6.248,0,0,0,10.292-3A6.239,6.239,0,0,1,74.248,232.166Z" transform="translate(-850.692 1989.342)" fill="#fcad6d"/>
    </g>
  </g>
</svg>
