<svg xmlns="http://www.w3.org/2000/svg" width="211.524" height="188.977" viewBox="0 0 211.524 188.977">
  <g id="Group_2946" data-name="Group 2946" transform="translate(-81.608 -2445.603)">
    <g id="freepik--background-simple--inject-2" transform="translate(82.657 2446.573)">
      <path id="Path_1197" data-name="Path 1197" d="M119.281,50.654c59.1-5.091,59.219,27.169,85.859,57.2s32.336,43.675,22.3,78.313-43.885,61.793-85.749,46.406-65.844-.6-92.246-14.252-36.225-40.062-16.883-71.168S46.377,56.932,119.281,50.654Z" transform="translate(-22.422 -50.12)" fill="#05c1e7" stroke="#fff" stroke-width="2"/>
      <path id="Path_1198" data-name="Path 1198" d="M119.281,50.654c59.1-5.091,59.219,27.169,85.859,57.2s32.336,43.675,22.3,78.313-43.885,61.793-85.749,46.406-65.844-.6-92.246-14.252-36.225-40.062-16.883-71.168S46.377,56.932,119.281,50.654Z" transform="translate(-22.422 -50.12)" fill="#ffd241" stroke="#fff" stroke-width="2"/>
    </g>
    <g id="Group_2085" data-name="Group 2085" transform="translate(516.049 -374.544)">
      <g id="Group_2071" data-name="Group 2071" transform="translate(-367.762 2847)">
        <path id="Path_1209" data-name="Path 1209" d="M187.324,9.745V5.387A5.387,5.387,0,0,0,181.937,0H112.5a5.387,5.387,0,0,0-5.387,5.387V9.745Z" transform="translate(-107.117 0)" fill="#555a6e"/>
      </g>
      <g id="Group_2072" data-name="Group 2072" transform="translate(-334.002 2847)">
        <path id="Path_1211" data-name="Path 1211" d="M363.277,9.745V5.387A5.386,5.386,0,0,0,357.89,0h-9.95q2,4.773,3.6,9.745Z" transform="translate(-316.831 0)" fill="#424242"/>
        <path id="Path_1212" data-name="Path 1212" d="M242.027,476.355a122.663,122.663,0,0,1-9.577,9.6h41.059a5.386,5.386,0,0,0,5.387-5.387v-4.214Z" transform="translate(-232.45 -348.043)" fill="#424242"/>
      </g>
      <path id="Path_1213" data-name="Path 1213" d="M107.12,30.58h80.205V152.02H107.12Z" transform="translate(-474.882 2824.657)" fill="#424242"/>
      <path id="Path_1214" data-name="Path 1214" d="M187.325,30.58V69.945a11.68,11.68,0,0,1-5.1-1.818,11.686,11.686,0,0,1-6.381,1.888H165.273a11.687,11.687,0,0,1-6.381-1.888,11.686,11.686,0,0,1-6.381,1.888H141.935a11.686,11.686,0,0,1-6.381-1.888,11.687,11.687,0,0,1-6.381,1.888H118.6a11.687,11.687,0,0,1-6.381-1.888,11.68,11.68,0,0,1-5.1,1.818V30.58Z" transform="translate(-474.882 2824.657)" fill="#555a6e"/>
      <path id="Path_1215" data-name="Path 1215" d="M301.517,30.58V152.02H263.41A122.135,122.135,0,0,0,289.285,30.58Z" transform="translate(-589.073 2824.657)" fill="#555a6e"/>
      <path id="Path_1218" data-name="Path 1218" d="M62.747,44.765H39.41L57.649,30.58H73.69Z" transform="translate(-425.41 2824.657)" fill="#177288"/>
      <path id="Path_1220" data-name="Path 1220" d="M236.018,44.765H212.682L216.33,30.58h16.041Z" transform="translate(-552.009 2824.657)" fill="#177288"/>
      <path id="Path_1222" data-name="Path 1222" d="M379.608,44.765H356.271L345.328,30.58h16.041Z" transform="translate(-648.925 2824.657)" fill="#177288"/>
      <path id="Path_1223" data-name="Path 1223" d="M39.41,83.243V96.109A5.387,5.387,0,0,0,44.8,101.5H57.359a5.387,5.387,0,0,0,5.387-5.387V83.243Z" transform="translate(-425.41 2786.18)" fill="#87d3e5"/>
      <path id="Path_1225" data-name="Path 1225" d="M212.682,83.243V96.109a5.387,5.387,0,0,0,5.387,5.387h12.562a5.387,5.387,0,0,0,5.387-5.387V83.243Z" transform="translate(-552.009 2786.18)" fill="#87d3e5"/>
      <path id="Path_1227" data-name="Path 1227" d="M385.954,83.243V96.109a5.387,5.387,0,0,0,5.387,5.387H403.9a5.387,5.387,0,0,0,5.387-5.387V83.243Z" transform="translate(-678.608 2786.18)" fill="#87d3e5"/>
      <g id="Group_2084" data-name="Group 2084" transform="translate(-346.23 2894.672)">
        <g id="Group_2082" data-name="Group 2082" transform="translate(0 47.449)">
          <g id="Group_2080" data-name="Group 2080" transform="translate(0 10.648)">
            <path id="Path_1238" data-name="Path 1238" d="M190.252,399.062H221a3.2,3.2,0,0,0,0-6.4H190.252a3.2,3.2,0,0,0,0,6.4Z" transform="translate(-187.054 -392.665)" fill="#05c1e7"/>
          </g>
          <g id="Group_2081" data-name="Group 2081">
            <path id="Path_1241" data-name="Path 1241" d="M190.252,359.53H221a3.2,3.2,0,1,0,0-6.4H190.252a3.2,3.2,0,1,0,0,6.4Z" transform="translate(-187.054 -353.133)" fill="#05c1e7"/>
          </g>
        </g>
        <g id="Group_2083" data-name="Group 2083" transform="translate(0.263)">
          <path id="Path_1244" data-name="Path 1244" d="M222.661,194.3a17.315,17.315,0,1,0-23,16.354,5.61,5.61,0,0,1,3.061,2.618l.984,1.8a1.874,1.874,0,0,0,3.288,0l.983-1.8A5.56,5.56,0,0,1,211,210.66,17.318,17.318,0,0,0,222.661,194.3Z" transform="translate(-188.031 -176.98)" fill="#05c1e7"/>
          <path id="Path_1245" data-name="Path 1245" d="M226.888,203.734A17.316,17.316,0,0,1,215.23,220.1a5.576,5.576,0,0,0-3.029,2.61l-.984,1.8a1.874,1.874,0,0,1-3.289,0l-.984-1.8a5.593,5.593,0,0,0-3.059-2.62,17.363,17.363,0,0,1-10.069-9.167A17.6,17.6,0,0,0,219.988,189.9,17.288,17.288,0,0,1,226.888,203.734Z" transform="translate(-192.258 -186.418)" fill="#05c1e7"/>
        </g>
      </g>
      <path id="Path_1219" data-name="Path 1219" d="M149.382,44.765H126.046L136.989,30.58H153.03Z" transform="translate(-488.71 2824.657)" fill="#faa037"/>
      <path id="Path_1221" data-name="Path 1221" d="M312.76,44.765H289.424L285.776,30.58h16.041Z" transform="translate(-605.414 2824.657)" fill="#faa037"/>
      <path id="Path_1224" data-name="Path 1224" d="M126.046,83.243V96.109a5.387,5.387,0,0,0,5.387,5.387H144a5.387,5.387,0,0,0,5.387-5.387V83.243Z" transform="translate(-488.71 2786.18)" fill="#ffd241"/>
      <path id="Path_1226" data-name="Path 1226" d="M299.318,83.243V96.109a5.387,5.387,0,0,0,5.387,5.387h12.562a5.387,5.387,0,0,0,5.387-5.387V83.243Z" transform="translate(-615.309 2786.18)" fill="#ffd241"/>
    </g>
  </g>
</svg>
