<svg id="Google_Play_-_eng" data-name="Google Play - eng" xmlns="http://www.w3.org/2000/svg" width="216" height="64" viewBox="0 0 216 64">
  <path fill='none' id="Path_197" data-name="Path 197" d="M208,0H8A8,8,0,0,0,0,8V56a8,8,0,0,0,8,8H208a8,8,0,0,0,8-8V8A8,8,0,0,0,208,0Z"/>
  <path id="Path_198" data-name="Path 198" d="M208,1.28A6.72,6.72,0,0,1,214.72,8V56A6.72,6.72,0,0,1,208,62.72H8A6.72,6.72,0,0,1,1.28,56V8A6.72,6.72,0,0,1,8,1.28ZM208,0H8A8,8,0,0,0,0,8V56a8,8,0,0,0,8,8H208a8,8,0,0,0,8-8V8a8,8,0,0,0-8-8Z" fill="#fff"/>
  <path id="Path_199" data-name="Path 199" d="M109.024,34.8a6.8,6.8,0,1,0,6.832,6.8,6.7,6.7,0,0,0-6.832-6.8Zm0,10.928a4.128,4.128,0,1,1,3.84-4.128,3.936,3.936,0,0,1-3.84,4.128ZM94.128,34.8a6.8,6.8,0,1,0,6.816,6.8,6.7,6.7,0,0,0-6.832-6.8Zm0,10.928A4.128,4.128,0,1,1,97.952,41.6a3.936,3.936,0,0,1-3.84,4.128ZM76.384,36.9v2.88H83.3a6.032,6.032,0,0,1-1.6,3.632,7.072,7.072,0,0,1-5.328,2.112,7.68,7.68,0,1,1,0-15.36A7.36,7.36,0,0,1,81.6,32.224l2.032-2.032A10.063,10.063,0,0,0,76.384,27.2a10.576,10.576,0,1,0,0,21.136,9.34,9.34,0,0,0,9.872-9.712,9.386,9.386,0,0,0-.16-1.808Zm72.5,2.24A6.29,6.29,0,0,0,136.656,41.6a6.657,6.657,0,0,0,6.752,6.8,6.768,6.768,0,0,0,5.664-3.008l-2.32-1.6a3.89,3.89,0,0,1-3.344,1.888,3.456,3.456,0,0,1-3.3-2.064l9.1-3.76Zm-9.28,2.272a3.727,3.727,0,0,1,3.552-3.968,2.64,2.64,0,0,1,2.528,1.44ZM132.208,48H135.2V28h-2.992Zm-4.9-11.68H127.2a4.8,4.8,0,0,0-3.584-1.6,6.816,6.816,0,0,0,0,13.616,4.638,4.638,0,0,0,3.584-1.6h.1v.976c0,2.608-1.392,4-3.632,4A3.76,3.76,0,0,1,120.24,49.3l-2.608,1.088a6.48,6.48,0,0,0,6.032,4.016c3.5,0,6.4-2.064,6.4-7.088V35.2h-2.752Zm-3.424,9.408a4.144,4.144,0,0,1,0-8.256A3.84,3.84,0,0,1,127.52,41.6a3.808,3.808,0,0,1-3.648,4.128ZM162.9,28h-7.152V48h2.992V40.416h4.176a6.224,6.224,0,1,0,0-12.416Zm0,9.6H158.72V30.784h4.24a3.432,3.432,0,1,1,0,6.864Zm18.448-2.88a5.6,5.6,0,0,0-5.328,3.056l2.656,1.1a2.831,2.831,0,0,1,2.72-1.472,2.88,2.88,0,0,1,3.2,2.576v.208a6.609,6.609,0,0,0-3.12-.768c-2.864,0-5.76,1.6-5.76,4.5a4.625,4.625,0,0,0,4.96,4.4,4.209,4.209,0,0,0,3.84-1.92h.1V48h2.88V40.3c0-3.5-2.656-5.536-6.064-5.536Zm-.368,10.96c-.976,0-2.336-.5-2.336-1.7,0-1.6,1.7-2.128,3.2-2.128a5.312,5.312,0,0,1,2.72.672,3.617,3.617,0,0,1-3.5,3.2ZM197.984,35.2l-3.424,8.672h-.1L190.912,35.2h-3.2l5.328,12.128L190,54.064h3.12L201.312,35.2ZM171.088,48h2.992V28h-2.992Z" fill="#fff"/>
  <path id="Path_200" data-name="Path 200" d="M75.772,16.484a4.337,4.337,0,0,1-1.2,3.2,4.657,4.657,0,0,1-3.52,1.424,5.04,5.04,0,0,1-3.536-8.592,4.8,4.8,0,0,1,3.536-1.44,4.96,4.96,0,0,1,1.968.4,3.953,3.953,0,0,1,1.5,1.072l-.848.848a3.2,3.2,0,0,0-2.624-1.136,3.712,3.712,0,0,0-3.728,3.84,3.776,3.776,0,0,0,6.4,2.768,3.024,3.024,0,0,0,.8-1.952H71.052V15.764h4.656A4.071,4.071,0,0,1,75.772,16.484Zm7.328-4H78.78v3.04h3.936v1.152H78.78v3.04H83.1V20.9H77.5V11.3h5.6ZM88.348,20.9H87.116V12.484H84.428V11.3H91.1v1.184H88.348Zm7.456,0V11.3h1.232v9.6Zm6.7,0h-1.232V12.484H98.588V11.3h6.592v1.184h-2.672Zm15.168-1.248a4.992,4.992,0,0,1-7.04,0,5.183,5.183,0,0,1,0-7.12,4.959,4.959,0,0,1,7.04,0,5.167,5.167,0,0,1,0,7.12Zm-6.128-.8a3.7,3.7,0,0,0,5.216,0,4.1,4.1,0,0,0,0-5.5,3.7,3.7,0,0,0-5.216,0,4.1,4.1,0,0,0,0,5.5Zm9.28,2.048V11.3h1.5L127,18.772V11.3h1.232v9.6h-1.28l-4.88-7.824V20.9Z" fill="#fff"/>
  <path id="Path_201" data-name="Path 201" d="M114.156,11.226a4.8,4.8,0,0,0-3.4,1.417,5.023,5.023,0,0,0,0,6.9,4.832,4.832,0,0,0,6.811,0,5.007,5.007,0,0,0,0-6.9,4.8,4.8,0,0,0-3.4-1.417Zm-1.968.073a5.121,5.121,0,0,1,5.6,1.12l0,0a5.327,5.327,0,0,1,0,7.34l0,0a5.152,5.152,0,0,1-7.266,0l0,0a5.342,5.342,0,0,1,0-7.34l0,0A5.115,5.115,0,0,1,112.188,11.3Zm-41.139-.064a4.641,4.641,0,0,0-3.418,1.392h0a4.88,4.88,0,0,0,3.424,8.319h0a4.5,4.5,0,0,0,3.4-1.375,4.176,4.176,0,0,0,1.156-3.082l.16-.007h-.16a3.913,3.913,0,0,0-.04-.56h-4.36v.832h3.477l-.005.165a3.184,3.184,0,0,1-.842,2.055l-.006.007A3.936,3.936,0,0,1,67.164,16.1a3.872,3.872,0,0,1,3.884-4,3.36,3.36,0,0,1,2.635,1.063l.62-.62a3.791,3.791,0,0,0-1.343-.918h0a4.8,4.8,0,0,0-1.9-.387Zm4.884,5.244a4.5,4.5,0,0,1-1.244,3.314,4.817,4.817,0,0,1-3.639,1.473A5.2,5.2,0,0,1,67.4,12.4a4.96,4.96,0,0,1,3.651-1.488,5.119,5.119,0,0,1,2.028.412,4.112,4.112,0,0,1,1.563,1.115l.1.113-1.077,1.077-.112-.134a3.04,3.04,0,0,0-2.493-1.079h-.009a3.551,3.551,0,0,0-3.567,3.674V16.1a3.616,3.616,0,0,0,6.125,2.654,2.864,2.864,0,0,0,.744-1.68H70.892V15.6h4.95l.024.132A4.226,4.226,0,0,1,75.932,16.48Zm1.408-5.34h5.92v1.5H78.94v2.72h3.936v1.472H78.94v2.72h4.32v1.5H77.34Zm.32.32v9.28h5.28v-.864H78.62v-3.36h3.936v-.832H78.62v-3.36h4.32V11.46Zm6.608-.32H91.26v1.5H88.508V21.06H86.956V12.644H84.268Zm.32.32v.864h2.688V20.74h.912V12.324H90.94V11.46Zm11.056-.32H97.2v9.92H95.644Zm.32.32v9.28h.912V11.46Zm2.464-.32h6.912v1.5h-2.672V21.06h-1.552V12.644H98.428Zm.32.32v.864h2.688V20.74h.912V12.324h2.672V11.46Zm21.92-.32h1.753l4.423,7.074V11.14H128.4v9.92h-1.529l-4.631-7.425V21.06h-1.568Zm.32.32v9.28h.928V12.517l5.129,8.223h1.031V11.46h-.912v7.87l-4.921-7.87Zm-9.553,1.775a3.856,3.856,0,0,1,5.442,0l.006.006a4.258,4.258,0,0,1,0,5.719l-.006.006a3.856,3.856,0,0,1-5.442,0l.113-.113-.118.108a4.255,4.255,0,0,1,0-5.719Zm.229,5.507a3.535,3.535,0,0,0,4.984,0,3.936,3.936,0,0,0,0-5.283,3.535,3.535,0,0,0-4.984,0,3.936,3.936,0,0,0,0,5.283Z" fill="#fff" fill-rule="evenodd"/>
  <path id="Path_202" data-name="Path 202" d="M16.7,12.064a3.2,3.2,0,0,0-.736,2.24V49.7a3.2,3.2,0,0,0,.736,2.24l.112.112L36.64,32.24v-.464L16.816,11.952Z" fill="#fff"/>
  <path id="Path_203" data-name="Path 203" d="M43.2,38.848,36.64,32.24v-.464l6.56-6.624.144.08L51.2,29.7c2.24,1.264,2.24,3.344,0,4.624l-7.824,4.448Z" fill="#fff"/>
  <path id="Path_204" data-name="Path 204" d="M43.392,38.752,36.64,32,16.7,51.936a2.608,2.608,0,0,0,3.328.1l23.376-13.28" fill="#fff"/>
  <path id="Path_205" data-name="Path 205" d="M43.392,25.248,20.016,11.968a2.608,2.608,0,0,0-3.328.1L36.64,32Z" fill="#fff"/>
  <path id="Path_206" data-name="Path 206" d="M43.2,38.608l-23.184,13.2a2.672,2.672,0,0,1-3.2,0l-.112.112.112.112a2.656,2.656,0,0,0,3.2,0l23.376-13.28Z" opacity="0.2"/>
  <path id="Path_207" data-name="Path 207" d="M16.7,51.712a3.2,3.2,0,0,1-.736-2.24v.24a3.2,3.2,0,0,0,.736,2.24l.112-.112ZM51.2,34.08l-8,4.528.144.144L51.2,34.3A2.8,2.8,0,0,0,52.8,32a2.976,2.976,0,0,1-1.6,2.08Z" opacity="0.12"/>
  <path id="Path_208" data-name="Path 208" d="M20.016,12.191,51.2,29.919A2.976,2.976,0,0,1,52.8,32a2.8,2.8,0,0,0-1.6-2.3L20.016,11.967c-2.24-1.264-4.064-.208-4.064,2.352v.24C16,11.983,17.792,10.927,20.016,12.191Z" fill="#fff" opacity="0.25"/>
</svg>
