<svg id="Group_225" data-name="Group 225" xmlns="http://www.w3.org/2000/svg" width="575.425" height="483.13" viewBox="0 0 575.425 483.13">
  <path id="Path_324" data-name="Path 324" d="M525.537,992.149H664.081a8.139,8.139,0,0,1,8.139,8.139v57.723a8.139,8.139,0,0,1-8.139,8.14H649.694c.835,6.354,1.928,15.469,1.328,15.469-.638,0-7.62-9.589-11.841-15.469H525.537a8.139,8.139,0,0,1-8.139-8.14v-57.723A8.139,8.139,0,0,1,525.537,992.149Z" transform="translate(-249.551 -757.069)" fill="#daeef7" opacity="0.3" style="mix-blend-mode: multiply;isolation: isolate"/>
  <path id="Path_325" data-name="Path 325" d="M544.93,947.222H683.474a8.139,8.139,0,0,1,8.139,8.139v57.722a8.139,8.139,0,0,1-8.139,8.14H669.087c.835,6.355,1.928,15.469,1.328,15.469-.638,0-7.62-9.589-11.841-15.469H544.93a8.139,8.139,0,0,1-8.139-8.14V955.361A8.139,8.139,0,0,1,544.93,947.222Z" transform="translate(-275.567 -727.485)" fill="#faa037"/>
  <circle id="Ellipse_15" data-name="Ellipse 15" cx="20.405" cy="20.405" r="20.405" transform="translate(389.223 285.799) rotate(-135)" fill="#fff"/>
  <g id="Group_217" data-name="Group 217" transform="translate(375.335 240.678)">
    <rect id="Rectangle_35" data-name="Rectangle 35" width="5.991" height="5.982" transform="translate(10.66 26.545)" fill="#ffc0bb"/>
    <path id="Path_326" data-name="Path 326" d="M607.244,1089.857v-3.587h5.991v3.051A8.781,8.781,0,0,1,607.244,1089.857Z" transform="translate(-596.584 -1059.724)" fill="#f99893"/>
    <path id="Path_327" data-name="Path 327" d="M575.878,1034.509a2.227,2.227,0,0,1,2.007.079,10.668,10.668,0,0,1,21.337,0,2.228,2.228,0,0,1,2.008-.079,3.1,3.1,0,0,1-2.678,5.421,1.971,1.971,0,0,1-.449-.308,9.617,9.617,0,0,1-19.1,0,1.973,1.973,0,0,1-.449.308,3.1,3.1,0,0,1-2.678-5.421Z" transform="translate(-574.665 -1018.671)" fill="#ffc0bb"/>
    <path id="Path_328" data-name="Path 328" d="M597.382,1011.463s-3.007-2.545-9.841-2.134-8.135,3.977-8.523,9.07l.4,6.06s1.775-1.824,4.085-6.883c0,0,3.827,4.294,5.493,3.785s-.63-3.6-.63-3.6,7.8,6.708,12.389,6.7c0,0,2.43-7.851-.981-10.731,0,0,2.569.123,2.706-.383s-1.226-1.261-3.7-.976c0,0,1.76-3.442.777-3.8S597.382,1011.463,597.382,1011.463Z" transform="translate(-576.197 -1008.541)" fill="#07085b"/>
    <path id="Path_329" data-name="Path 329" d="M607.244,1075.334a3.74,3.74,0,0,0,6.683.2Z" transform="translate(-597.276 -1052.523)" fill="#fff"/>
  </g>
  <path id="Rectangle_36" data-name="Rectangle 36" d="M1.773,0H79.44a1.772,1.772,0,0,1,1.772,1.772v0a1.773,1.773,0,0,1-1.773,1.773H1.773A1.773,1.773,0,0,1,0,1.773v0A1.773,1.773,0,0,1,1.773,0Z" transform="translate(280.584 236.371)" fill="#fff"/>
  <path id="Rectangle_37" data-name="Rectangle 37" d="M1.773,0H17.407a1.773,1.773,0,0,1,1.773,1.773v0a1.773,1.773,0,0,1-1.773,1.773H1.773A1.773,1.773,0,0,1,0,1.773v0A1.773,1.773,0,0,1,1.773,0Z" transform="translate(342.617 245.727)" fill="#fff"/>
  <path id="Rectangle_38" data-name="Rectangle 38" d="M1.773,0h51.25a1.772,1.772,0,0,1,1.772,1.772v0a1.773,1.773,0,0,1-1.773,1.773H1.773A1.773,1.773,0,0,1,0,1.773v0A1.773,1.773,0,0,1,1.773,0Z" transform="translate(280.584 245.727)" fill="#fff"/>
  <path id="Rectangle_39" data-name="Rectangle 39" d="M1.773,0H40.182a1.773,1.773,0,0,1,1.773,1.773v0a1.773,1.773,0,0,1-1.773,1.773H1.773A1.773,1.773,0,0,1,0,1.773v0A1.773,1.773,0,0,1,1.773,0Z" transform="translate(319.842 255.084)" fill="#fff"/>
  <path id="Rectangle_40" data-name="Rectangle 40" d="M1.773,0H31.348a1.773,1.773,0,0,1,1.773,1.773v0a1.773,1.773,0,0,1-1.773,1.773H1.773A1.773,1.773,0,0,1,0,1.773v0A1.773,1.773,0,0,1,1.773,0Z" transform="translate(280.584 255.084)" fill="#fff"/>
  <path id="Rectangle_41" data-name="Rectangle 41" d="M1.773,0H79.44a1.773,1.773,0,0,1,1.773,1.773v0A1.773,1.773,0,0,1,79.44,3.546H1.773A1.773,1.773,0,0,1,0,1.773v0A1.773,1.773,0,0,1,1.773,0Z" transform="translate(280.584 264.44)" fill="#fff"/>
  <path id="Path_330" data-name="Path 330" d="M1179.06,702.819l-5.048,31.659-10.665-42.21s14.947-7.253,15.606-4.616S1179.06,702.819,1179.06,702.819Z" transform="translate(-977.209 -556.182)" fill="#606060"/>
  <path id="Path_331" data-name="Path 331" d="M1289.121,932.694l-4.616,54.731,48.3-2.308-5.568-48.467Z" transform="translate(-1172.111 -717.919)" fill="#fab991"/>
  <path id="Path_332" data-name="Path 332" d="M1335.345,959.743l-2.707-23.043-38.122-3.859-1.551,18.958C1300.562,959.328,1314.209,967.121,1335.345,959.743Z" transform="translate(-1177.543 -718.015)" fill="#f0915a"/>
  <path id="Path_333" data-name="Path 333" d="M1152.567,810.338c-2.9,6.006-1.363,12.758,3.442,15.081s11.054-.662,13.958-6.668,1.364-12.758-3.442-15.081S1155.471,804.332,1152.567,810.338Z" transform="translate(-965.183 -632.439)" fill="#f0915a"/>
  <path id="Path_334" data-name="Path 334" d="M1290.036,729.128a95.5,95.5,0,0,0,6.659-23.369c.253-1.566.6-3.114.968-4.656A51.606,51.606,0,1,0,1196,685.718a11.149,11.149,0,0,0-9.976-1.417c-6.285,2.342-9.006,10.61-6.078,18.466s10.4,12.326,16.682,9.983a9.849,9.849,0,0,0,2.4-1.312c.97,25.378,20.4,46.152,45.2,47.314a46.3,46.3,0,0,0,32.179-11.067C1282.016,743.562,1287.315,735.536,1290.036,729.128Z" transform="translate(-1102.302 -523.462)" fill="#fab991"/>
  <path id="Path_335" data-name="Path 335" d="M1291.723,789.14c.1,2.957.122,5.843.275,8.67.175,2.615.461,6.373,2.09,8.366a6.281,6.281,0,0,1,1.551,3.823,6.1,6.1,0,0,1-2.252,4.777,9.953,9.953,0,0,1-8.881,1.731c2.886-.51,5.652-1.5,7.261-3.386a3.53,3.53,0,0,0,.085-5.02c-.8-1.062-1.767-2.168-2.179-5.781a24.128,24.128,0,0,1,.02-4.55A30.886,30.886,0,0,1,1291.723,789.14Z" transform="translate(-1134.951 -623.391)" fill="#f0915a"/>
  <path id="Path_336" data-name="Path 336" d="M1355.094,791.492a4.5,4.5,0,1,1-4.289-4.71A4.5,4.5,0,0,1,1355.094,791.492Z" transform="translate(-1215.44 -621.834)" fill="#333"/>
  <path id="Path_337" data-name="Path 337" d="M1242.293,804.211A4.5,4.5,0,1,1,1238,799.5,4.5,4.5,0,0,1,1242.293,804.211Z" transform="translate(-1064.116 -630.209)" fill="#333"/>
  <path id="Path_338" data-name="Path 338" d="M1268.691,889.889c4.585,4,10.551,7.119,16.475,7.836,6.406.809,12.064-1.145,17.518-4.5-5.077,4.266-10.958,6.427-17.662,5.677A26.737,26.737,0,0,1,1268.691,889.889Z" transform="translate(-1136.593 -689.732)" fill="#f0915a"/>
  <path id="Path_339" data-name="Path 339" d="M1354.493,760.488c-6.348-1.962-9.942-2.072-12.843-1.719-6.33.849-9.891,3.649-12.1,4.618a15.072,15.072,0,0,1,24.947-2.9Z" transform="translate(-1209.184 -601.003)" fill="#07085b"/>
  <path id="Path_340" data-name="Path 340" d="M1201.433,770.978a15.072,15.072,0,0,1,23.908,7.689c-1.986-1.384-4.926-4.816-10.976-6.881C1211.6,770.88,1208.054,770.285,1201.433,770.978Z" transform="translate(-1036.28 -609.259)" fill="#07085b"/>
  <path id="Path_341" data-name="Path 341" d="M1058.667,1020.694s41.954,5.772,52.609,15.15,61.932,147.175,61.932,147.175l-42.62,54.108-90.567.721s-67.926,39.68-110.546,2.164-20.644-168.1,4-196.233,68.592-27.415,68.592-27.415S1042.018,1046.667,1058.667,1020.694Z" transform="translate(-905.36 -773.014)" fill="#21c2e9"/>
  <path id="Path_342" data-name="Path 342" d="M1518.235,1229.73a190.557,190.557,0,0,1,3.328,22.781c.392,3.823.561,7.662.781,11.5.115,3.843.2,7.688.152,11.538a151.7,151.7,0,0,1-1.895,23.027c-1.291,7.588-3.169,15.2-6.7,22.056a113.121,113.121,0,0,0,4.4-22.368c.837-7.543,1.127-15.151,1.224-22.755.157-7.607-.029-15.229-.27-22.855Q1518.856,1241.214,1518.235,1229.73Z" transform="translate(-1440.165 -913.512)" fill="#fff"/>
  <path id="Path_343" data-name="Path 343" d="M1017.322,1214.942c2.077,11.177,4.276,22.311,6.51,33.427,2.283,11.107,4.644,22.191,7.332,33.188,2.657,11,5.611,21.931,9.183,32.646a159.868,159.868,0,0,0,6.131,15.771,60.726,60.726,0,0,0,8.719,14.468c-4.176-3.9-7.248-8.841-10.022-13.819a130.1,130.1,0,0,1-7.008-15.637c-2.043-5.333-3.794-10.767-5.454-16.221-1.6-5.472-3.066-10.979-4.433-16.508-1.3-5.544-2.553-11.1-3.676-16.677-1.083-5.587-2.148-11.176-3.043-16.793C1019.706,1237.565,1018.263,1226.275,1017.322,1214.942Z" transform="translate(-803.26 -903.774)" fill="#fff"/>
  <path id="Path_344" data-name="Path 344" d="M1134.222,1558.026c-.289-2.284-17.628-4.834-24-5.164-4.829-.25-36.84-1.319-47.728-1.811l.8,2.8-.165,12.364-1.788,8.194c9.553.6,32.9,1.519,37.767,2.48,6.5,1.284,17.763,6.182,17.763,6.182s4.686-1.065-1.269-3.635a28.571,28.571,0,0,1-9.556-6.847c-.818-.914.069-2.542.663-2.386,16.213,4.249,17.88,4.951,17.88,4.951s19.055-.107.108-4.389c-11.358-2.567-15.427-4.059-16.439-5.333-.431-.543.339-2.389,1.03-2.432,9.84-.607,27.5,2.881,22.663.593-3.945-1.865-16.368-3.91-21.2-4.68-.3-.047-.775-1.848.543-1.957C1120.664,1556.175,1134.49,1560.147,1134.222,1558.026Z" transform="translate(-897.32 -1125.097)" fill="#ffc0bb"/>
  <path id="Path_345" data-name="Path 345" d="M1277.655,1493.28c3.978.948,8.014,1.641,12.01,2.482,8.043,1.467,16.111,2.744,24.2,3.88,8.1,1.063,16.214,2.042,24.347,2.827,8.1.8,16.342,1.494,24.361,1.942l1.08.06.236.934a66.34,66.34,0,0,1,1.48,8.092,64.835,64.835,0,0,1,.478,8.172,52.572,52.572,0,0,1-.708,8.179,37.74,37.74,0,0,1-2.375,7.891l-.093.22-.175.117-8.911,5.978q-4.453,2.993-8.957,5.913,4.189-3.358,8.447-6.621l8.288-6.4a35.976,35.976,0,0,0,1.8-7.407,52.353,52.353,0,0,0,.381-7.847,73.654,73.654,0,0,0-.714-7.855,66.612,66.612,0,0,0-1.331-6.724c-3.847-.126-7.532-.377-11.307-.651-4.1-.3-8.192-.627-12.278-1.058-8.172-.844-16.327-1.863-24.441-3.16s-16.183-2.893-24.18-4.782c-3.983-1.018-7.972-2-11.893-3.236-3.953-1.111-7.826-2.5-11.686-3.869C1269.712,1491.327,1273.646,1492.443,1277.655,1493.28Z" transform="translate(-1198.744 -1085.131)" fill="#fff"/>
  <path id="Path_347" data-name="Path 347" d="M1254,577.992s15.152.488-.749-12.324-58.592-27.838-85.957-13.387c0,0-5.472-11.634-13.382-8.856s5.144,10.781,5.144,10.781-10.1-.326-13.184,4.63c-2.279,3.663,3.907,3.824,7.289,3.658-5.751.978-27.8,14.9-16.731,59.352,3.933-.864,26.343-33.361,26.343-33.361s51.249,28.472,46.18,5.832c0,0,53.095,33.134,45.562,5.764C1254.512,600.081,1275.044,601.586,1254,577.992Z" transform="translate(-1051.18 -461.309)" fill="#606060"/>
  <path id="Path_348" data-name="Path 348" d="M1410.3,670.993s4.245-1.491,8.809,2.13,4.059,16.349,4.059,16.349,21.786,14.047,19.489-45.4c-2.443-63.241-18.173,5.072-18.173,5.072Z" transform="translate(-1325.098 -510.188)" fill="#606060"/>
  <path id="Path_349" data-name="Path 349" d="M170.463,608.46H329.141a9.925,9.925,0,0,1,9.924,9.924v65.483a9.924,9.924,0,0,1-9.924,9.924H204.214c-5.056,7.055-14.223,19.69-15.032,19.69-.758,0,.7-11.934,1.729-19.69H170.463a9.924,9.924,0,0,1-9.924-9.924V618.384A9.924,9.924,0,0,1,170.463,608.46Z" transform="translate(205.477 -504.416)" fill="#daeef7" opacity="0.3" style="mix-blend-mode: multiply;isolation: isolate"/>
  <path id="Path_350" data-name="Path 350" d="M151.28,558.723H309.959a9.924,9.924,0,0,1,9.924,9.924V634.13a9.924,9.924,0,0,1-9.924,9.924H185.031c-5.056,7.055-14.223,19.69-15.032,19.69-.758,0,.7-11.934,1.729-19.69H151.28a9.924,9.924,0,0,1-9.924-9.924V568.647A9.924,9.924,0,0,1,151.28,558.723Z" transform="translate(231.211 -471.665)" fill="#ffd241"/>
  <ellipse id="Ellipse_16" data-name="Ellipse 16" cx="24.879" cy="24.879" rx="24.879" ry="24.879" transform="translate(530.382 162.281) rotate(-157.288)" fill="#fff"/>
  <path id="Path_351" data-name="Path 351" d="M228.621,651.695s2.467-10.124-3.41-13.915-12.153-4.659-16.441-2.474c-5.944,3.028-8.387,11.21-6.485,15.736l15.778-3.963Z" transform="translate(301.367 -521.317)" fill="#040744"/>
  <g id="Group_218" data-name="Group 218" transform="translate(500.104 116.3)">
    <rect id="Rectangle_42" data-name="Rectangle 42" width="7.305" height="7.294" transform="translate(12.997 25.961)" fill="#ffc0bb"/>
    <path id="Path_352" data-name="Path 352" d="M231.214,724.735v-4.373h7.305v3.72C236.946,724.926,234.618,725.412,231.214,724.735Z" transform="translate(-218.217 -694.401)" fill="#f99893"/>
    <path id="Path_353" data-name="Path 353" d="M192.97,657.251a2.714,2.714,0,0,1,2.448.1,13.008,13.008,0,0,1,26.016,0,2.714,2.714,0,0,1,2.448-.1c1.462.721,1.917,2.784,1.015,4.609s-2.818,2.721-4.281,2a2.4,2.4,0,0,1-.548-.376,11.726,11.726,0,0,1-23.285,0,2.4,2.4,0,0,1-.548.376c-1.462.72-3.379-.175-4.281-2S191.508,657.971,192.97,657.251Z" transform="translate(-191.492 -644.345)" fill="#ffc0bb"/>
    <path id="Path_354" data-name="Path 354" d="M231.214,707.028c.321,1.443,1.973,2.577,4,2.639s3.742-.969,4.151-2.39Z" transform="translate(-219.06 -685.621)" fill="#fff"/>
  </g>
  <path id="Path_355" data-name="Path 355" d="M224.24,653.283s-9.561-2.9-13.745-7.733c0,0,1.184,5.826,2.068,6.757-.279.186-9.549-4.322-10.808-8.481s9.478-5.654,9.478-5.654,3.679,1.566,3.866,1.659,3.637.5,4.033,1.376c.515,1.145,2.951,1.247,2.951,1.247l1.538,3.2,1.076,3.367Z" transform="translate(305.806 -523.981)" fill="#040744"/>
  <path id="Path_356" data-name="Path 356" d="M198.061,624.127a10.464,10.464,0,0,1-7.08.466c-5.579-1.714-7.789-1.049-8.531-.628a1.819,1.819,0,0,1-1.464.191c-.551-.184-1.061-.681-.9-1.938a10.138,10.138,0,0,1,4.323-8.321A24.931,24.931,0,0,1,198.061,624.127Z" transform="translate(339.816 -507.994)" fill="#040744"/>
  <g id="Group_220" data-name="Group 220" transform="translate(519.055 112.962)">
    <g id="Group_219" data-name="Group 219" transform="translate(0 0)">
      <path id="Path_357" data-name="Path 357" d="M221.738,637.394v0a.472.472,0,0,0-.115-.68,13.1,13.1,0,0,0-6.208-2.139.474.474,0,0,0-.5.473h0a.472.472,0,0,0,.449.471,12.321,12.321,0,0,1,5.736,1.988A.472.472,0,0,0,221.738,637.394Z" transform="translate(-214.92 -634.573)" fill="#feb546"/>
    </g>
  </g>
  <rect id="Rectangle_43" data-name="Rectangle 43" width="33.33" height="4.323" rx="2.162" transform="translate(453.977 108.29)" fill="#fff"/>
  <rect id="Rectangle_44" data-name="Rectangle 44" width="22.514" height="4.323" rx="2.162" transform="translate(464.793 119.698)" fill="#fff"/>
  <rect id="Rectangle_45" data-name="Rectangle 45" width="27.705" height="4.323" rx="2.162" transform="translate(433.206 119.698)" fill="#fff"/>
  <rect id="Rectangle_46" data-name="Rectangle 46" width="56.478" height="4.323" rx="2.162" transform="translate(391.976 108.29)" fill="#fff"/>
  <rect id="Rectangle_47" data-name="Rectangle 47" width="95.331" height="4.323" rx="2.162" transform="translate(391.976 142.059)" fill="#fff"/>
  <rect id="Rectangle_48" data-name="Rectangle 48" width="49.248" height="4.323" rx="2.162" transform="translate(438.059 131.106)" fill="#fff"/>
  <rect id="Rectangle_49" data-name="Rectangle 49" width="38.879" height="4.323" rx="2.162" transform="translate(391.976 131.106)" fill="#fff"/>
  <ellipse id="Ellipse_17" data-name="Ellipse 17" cx="9.771" cy="13.365" rx="9.771" ry="13.365" transform="translate(347.622 422.214) rotate(-168.092)" fill="#fff"/>
  <path id="Path_358" data-name="Path 358" d="M407.955,319.493l-3.308,24.925,17.7-12.929L476.541,303.8l-41.915,3.838s-21.353,5.187-22.508,6.233A51.962,51.962,0,0,0,407.955,319.493Z" transform="translate(-15.365 -303.805)" fill="#177288"/>
  <path id="Path_359" data-name="Path 359" d="M404.648,304.442l87.146-.636-68.586,15.688Z" transform="translate(-30.618 -303.805)" fill="#21c2e9"/>
  <path id="Path_360" data-name="Path 360" d="M427.482,344.568l-22.834-18.342,63.406-22.422Z" transform="translate(-6.878 -303.805)" fill="#21c2e9"/>
  <g id="Group_224" data-name="Group 224" transform="translate(270.855 25.122)">
    <g id="Group_221" data-name="Group 221" transform="translate(8.738 119.239)">
      <path id="Path_361" data-name="Path 361" d="M922.919,732.553l1.15-1.7a23.46,23.46,0,0,1-4.8-4.341l-1.57,1.321A25.5,25.5,0,0,0,922.919,732.553Z" transform="translate(-917.702 -726.512)" fill="#feb546"/>
    </g>
    <g id="Group_222" data-name="Group 222" transform="translate(0 6.791)">
      <path id="Path_362" data-name="Path 362" d="M712.328,499.015l1.958-.615a57.616,57.616,0,0,1-2.335-12.775l-2.046.157A59.627,59.627,0,0,0,712.328,499.015Zm-2.354-26.646,2.042.207q.085-.845.2-1.687a53.446,53.446,0,0,1,1.087-5.735c.431-1.747.959-3.507,1.569-5.23l-1.935-.685c-.632,1.786-1.18,3.612-1.627,5.424a55.378,55.378,0,0,0-1.129,5.956C710.1,471.185,710.034,471.774,709.974,472.368ZM720.5,448.2a75.937,75.937,0,0,1,7.779-10.481l-1.54-1.356a78,78,0,0,0-7.99,10.765Zm64.12-4.855a11.42,11.42,0,0,0,7.242-.939,10.853,10.853,0,0,0,4.113-4.625l-1.844-.9a8.7,8.7,0,0,1-3.32,3.765,9.459,9.459,0,0,1-5.7.709,1.144,1.144,0,0,1-.206-.065c-.087-.055-.19-.123-.292-.191l-1.139,1.707c.117.078.235.155.355.23A2.688,2.688,0,0,0,784.62,443.345Zm-46.988-14.786a104.73,104.73,0,0,1,10.509-7.845L747.018,419a106.892,106.892,0,0,0-10.716,8Zm38.448,2.712,2.009-.421a18.943,18.943,0,0,1-.4-3.833,22.879,22.879,0,0,1,.687-5.529,27.54,27.54,0,0,1,.957-3.073l-1.921-.722a29.57,29.57,0,0,0-1.029,3.3,24.968,24.968,0,0,0-.747,6.026A21.046,21.046,0,0,0,776.08,431.271Zm18.041-6.315,1.851-.885a20.643,20.643,0,0,0-9.588-9.347l-.282-.135-.873,1.858.261.124A18.564,18.564,0,0,1,794.121,424.956Zm-34.047-9.2a42.452,42.452,0,0,1,8.106-1.9c1.641-.078,3.141-.095,4.587-.051l.063-2.051c-1.5-.045-3.052-.028-4.747.053a46.908,46.908,0,0,0-8.608,1.983Zm25.907-8.307a43.838,43.838,0,0,1,9.731-8.466l-1.106-1.729a45.877,45.877,0,0,0-10.185,8.863Z" transform="translate(-709.905 -397.252)" fill="#feb546"/>
    </g>
    <g id="Group_223" data-name="Group 223" transform="translate(97.035 0)">
      <path id="Path_363" data-name="Path 363" d="M657.774,380.629a39.562,39.562,0,0,1,6.48-1.222l-.207-2.042a41.633,41.633,0,0,0-6.817,1.285Z" transform="translate(-657.23 -377.366)" fill="#feb546"/>
    </g>
  </g>
  <path id="Path_364" data-name="Path 364" d="M387.713,1236.618s.755,7.447,6.632,7.963c-5.877.515-6.632,7.963-6.632,7.963s-.755-7.448-6.633-7.963C386.958,1244.066,387.713,1236.618,387.713,1236.618Z" transform="translate(74.879 -918.048)" fill="#ffd241"/>
  <path id="Path_365" data-name="Path 365" d="M1027.937,925.773s1.2,11.859,10.56,12.679c-9.357.82-10.56,12.678-10.56,12.678s-1.2-11.858-10.561-12.678C1026.734,937.631,1027.937,925.773,1027.937,925.773Z" transform="translate(-786.577 -713.361)" fill="#177288"/>
  <path id="Path_366" data-name="Path 366" d="M80.671,506.363s1.2,11.858,10.56,12.678c-9.358.821-10.56,12.678-10.56,12.678s-1.2-11.858-10.56-12.678C79.469,518.221,80.671,506.363,80.671,506.363Z" transform="translate(484.193 -437.186)" fill="#21c2e9"/>
  <path id="Path_367" data-name="Path 367" d="M747.985,796.807s.917,10.506,8.053,11.233c-7.136.727-8.053,11.233-8.053,11.233s-.917-10.506-8.054-11.233C747.067,807.313,747.985,796.807,747.985,796.807Z" transform="translate(-409.367 -628.439)" fill="#feb546"/>
  <path id="Path_368" data-name="Path 368" d="M205.837,347.052s.917,10.506,8.054,11.233c-7.136.727-8.054,11.233-8.054,11.233s-.917-10.506-8.054-11.233C204.92,357.558,205.837,347.052,205.837,347.052Z" transform="translate(317.933 -332.282)" fill="#feb546"/>
  <path id="Rectangle_130" data-name="Rectangle 130" d="M41.887.591l41.072,3.17a4.4,4.4,0,0,1,2.443.945,5.317,5.317,0,0,1,1.574,2.175,8.457,8.457,0,0,1,.585,3.078,12.539,12.539,0,0,1-.524,3.665L57.847,114.143a14.22,14.22,0,0,1-1.506,3.4,14.661,14.661,0,0,1-2.243,2.841,11.621,11.621,0,0,1-2.692,2,7.287,7.287,0,0,1-2.852.867l-40.948,2.9a5.189,5.189,0,0,1-2.75-.508,4.643,4.643,0,0,1-1.888-1.792,6.528,6.528,0,0,1-.849-2.809,10.35,10.35,0,0,1,.367-3.549L31.531,10.014a14.84,14.84,0,0,1,1.657-3.847A13.985,13.985,0,0,1,35.7,3.106a10.557,10.557,0,0,1,3.015-1.959A6.906,6.906,0,0,1,41.887.591Z" transform="translate(194.074 343.775)" fill="#6e6e6e"/>
  <path id="Ellipse_94" data-name="Ellipse 94" d="M12.293.052A7.816,7.816,0,0,1,15.664.8a7,7,0,0,1,2.489,2.008,7.461,7.461,0,0,1,1.381,2.954,9,9,0,0,1,.048,3.6,10.908,10.908,0,0,1-1.347,3.585A11.966,11.966,0,0,1,15.8,15.874a11.45,11.45,0,0,1-3.185,1.981,9.694,9.694,0,0,1-3.609.741,7.861,7.861,0,0,1-3.368-.7,7.006,7.006,0,0,1-2.52-1.966,7.425,7.425,0,0,1-1.428-2.941,8.953,8.953,0,0,1-.086-3.621A10.882,10.882,0,0,1,2.95,5.729,11.963,11.963,0,0,1,5.414,2.761,11.434,11.434,0,0,1,8.646.768,9.649,9.649,0,0,1,12.293.052Z" transform="translate(236.308 371.398)" fill="#8f8f8f"/>
</svg>
