<svg xmlns="http://www.w3.org/2000/svg" width="626.475" height="679.998" viewBox="0 0 626.475 679.998">
  <g id="Group_2940" data-name="Group 2940" transform="translate(-85 -3567.001)">
    <g id="Group_2917" data-name="Group 2917" transform="translate(53 -114.238)">
      <path id="Path_324" data-name="Path 324" d="M525.537,992.149H664.081a8.139,8.139,0,0,1,8.139,8.139v57.723a8.139,8.139,0,0,1-8.139,8.14H649.694c.835,6.354,1.928,15.469,1.328,15.469-.638,0-7.62-9.589-11.841-15.469H525.537a8.139,8.139,0,0,1-8.139-8.14v-57.723A8.139,8.139,0,0,1,525.537,992.149Z" transform="translate(-166.501 2924.171)" fill="#daeef7" opacity="0.3" style="mix-blend-mode: multiply;isolation: isolate"/>
      <path id="Path_325" data-name="Path 325" d="M544.93,947.222H683.474a8.139,8.139,0,0,1,8.139,8.139v57.722a8.139,8.139,0,0,1-8.139,8.14H669.087c.835,6.355,1.928,15.469,1.328,15.469-.638,0-7.62-9.589-11.841-15.469H544.93a8.139,8.139,0,0,1-8.139-8.14V955.361A8.139,8.139,0,0,1,544.93,947.222Z" transform="translate(-192.517 2953.754)" fill="#faa037"/>
      <circle id="Ellipse_15" data-name="Ellipse 15" cx="20.405" cy="20.405" r="20.405" transform="translate(472.273 3967.039) rotate(-135)" fill="#fff"/>
      <g id="Group_217" data-name="Group 217" transform="translate(458.384 3921.918)">
        <rect id="Rectangle_35" data-name="Rectangle 35" width="5.991" height="5.982" transform="translate(10.66 26.545)" fill="#ffc0bb"/>
        <path id="Path_326" data-name="Path 326" d="M607.244,1089.857v-3.587h5.991v3.051A8.781,8.781,0,0,1,607.244,1089.857Z" transform="translate(-596.584 -1059.724)" fill="#f99893"/>
        <path id="Path_327" data-name="Path 327" d="M575.878,1034.509a2.227,2.227,0,0,1,2.007.079,10.668,10.668,0,0,1,21.337,0,2.228,2.228,0,0,1,2.008-.079,3.1,3.1,0,0,1-2.678,5.421,1.971,1.971,0,0,1-.449-.308,9.617,9.617,0,0,1-19.1,0,1.973,1.973,0,0,1-.449.308,3.1,3.1,0,0,1-2.678-5.421Z" transform="translate(-574.665 -1018.671)" fill="#ffc0bb"/>
        <path id="Path_328" data-name="Path 328" d="M597.382,1011.463s-3.007-2.545-9.841-2.134-8.135,3.977-8.523,9.07l.4,6.06s1.775-1.824,4.085-6.883c0,0,3.827,4.294,5.493,3.785s-.63-3.6-.63-3.6,7.8,6.708,12.389,6.7c0,0,2.43-7.851-.981-10.731,0,0,2.569.123,2.706-.383s-1.226-1.261-3.7-.976c0,0,1.76-3.442.777-3.8S597.382,1011.463,597.382,1011.463Z" transform="translate(-576.197 -1008.541)" fill="#07085b"/>
        <path id="Path_329" data-name="Path 329" d="M607.244,1075.334a3.74,3.74,0,0,0,6.683.2Z" transform="translate(-597.276 -1052.523)" fill="#fff"/>
      </g>
      <path id="Rectangle_36" data-name="Rectangle 36" d="M1.773,0H79.44a1.772,1.772,0,0,1,1.772,1.772v0a1.773,1.773,0,0,1-1.773,1.773H1.773A1.773,1.773,0,0,1,0,1.773v0A1.773,1.773,0,0,1,1.773,0Z" transform="translate(363.633 3917.61)" fill="#fff"/>
      <path id="Rectangle_37" data-name="Rectangle 37" d="M1.773,0H17.407a1.773,1.773,0,0,1,1.773,1.773v0a1.773,1.773,0,0,1-1.773,1.773H1.773A1.773,1.773,0,0,1,0,1.773v0A1.773,1.773,0,0,1,1.773,0Z" transform="translate(425.666 3926.967)" fill="#fff"/>
      <path id="Rectangle_38" data-name="Rectangle 38" d="M1.773,0h51.25a1.772,1.772,0,0,1,1.772,1.772v0a1.773,1.773,0,0,1-1.773,1.773H1.773A1.773,1.773,0,0,1,0,1.773v0A1.773,1.773,0,0,1,1.773,0Z" transform="translate(363.633 3926.967)" fill="#fff"/>
      <path id="Rectangle_39" data-name="Rectangle 39" d="M1.773,0H40.182a1.773,1.773,0,0,1,1.773,1.773v0a1.773,1.773,0,0,1-1.773,1.773H1.773A1.773,1.773,0,0,1,0,1.773v0A1.773,1.773,0,0,1,1.773,0Z" transform="translate(402.891 3936.323)" fill="#fff"/>
      <path id="Rectangle_40" data-name="Rectangle 40" d="M1.773,0H31.348a1.773,1.773,0,0,1,1.773,1.773v0a1.773,1.773,0,0,1-1.773,1.773H1.773A1.773,1.773,0,0,1,0,1.773v0A1.773,1.773,0,0,1,1.773,0Z" transform="translate(363.633 3936.323)" fill="#fff"/>
      <path id="Rectangle_41" data-name="Rectangle 41" d="M1.773,0H79.44a1.773,1.773,0,0,1,1.773,1.773v0A1.773,1.773,0,0,1,79.44,3.546H1.773A1.773,1.773,0,0,1,0,1.773v0A1.773,1.773,0,0,1,1.773,0Z" transform="translate(363.633 3945.679)" fill="#fff"/>
      <path id="Path_349" data-name="Path 349" d="M170.463,608.46H329.141a9.925,9.925,0,0,1,9.924,9.924v65.483a9.924,9.924,0,0,1-9.924,9.924H204.214c-5.056,7.055-14.223,19.69-15.032,19.69-.758,0,.7-11.934,1.729-19.69H170.463a9.924,9.924,0,0,1-9.924-9.924V618.384A9.924,9.924,0,0,1,170.463,608.46Z" transform="translate(288.526 3176.824)" fill="#daeef7" opacity="0.3" style="mix-blend-mode: multiply;isolation: isolate"/>
      <path id="Path_350" data-name="Path 350" d="M151.28,558.723H309.959a9.924,9.924,0,0,1,9.924,9.924V634.13a9.924,9.924,0,0,1-9.924,9.924H185.031c-5.056,7.055-14.223,19.69-15.032,19.69-.758,0,.7-11.934,1.729-19.69H151.28a9.924,9.924,0,0,1-9.924-9.924V568.647A9.924,9.924,0,0,1,151.28,558.723Z" transform="translate(314.26 3209.575)" fill="#ffd241"/>
      <ellipse id="Ellipse_16" data-name="Ellipse 16" cx="24.879" cy="24.879" rx="24.879" ry="24.879" transform="translate(613.431 3843.52) rotate(-157.288)" fill="#fff"/>
      <path id="Path_351" data-name="Path 351" d="M228.621,651.695s2.467-10.124-3.41-13.915-12.153-4.659-16.441-2.474c-5.944,3.028-8.387,11.21-6.485,15.736l15.778-3.963Z" transform="translate(384.417 3159.923)" fill="#040744"/>
      <g id="Group_218" data-name="Group 218" transform="translate(583.153 3797.539)">
        <rect id="Rectangle_42" data-name="Rectangle 42" width="7.305" height="7.294" transform="translate(12.997 25.961)" fill="#ffc0bb"/>
        <path id="Path_352" data-name="Path 352" d="M231.214,724.735v-4.373h7.305v3.72C236.946,724.926,234.618,725.412,231.214,724.735Z" transform="translate(-218.217 -694.401)" fill="#f99893"/>
        <path id="Path_353" data-name="Path 353" d="M192.97,657.251a2.714,2.714,0,0,1,2.448.1,13.008,13.008,0,0,1,26.016,0,2.714,2.714,0,0,1,2.448-.1c1.462.721,1.917,2.784,1.015,4.609s-2.818,2.721-4.281,2a2.4,2.4,0,0,1-.548-.376,11.726,11.726,0,0,1-23.285,0,2.4,2.4,0,0,1-.548.376c-1.462.72-3.379-.175-4.281-2S191.508,657.971,192.97,657.251Z" transform="translate(-191.492 -644.345)" fill="#ffc0bb"/>
        <path id="Path_354" data-name="Path 354" d="M231.214,707.028c.321,1.443,1.973,2.577,4,2.639s3.742-.969,4.151-2.39Z" transform="translate(-219.06 -685.621)" fill="#fff"/>
      </g>
      <path id="Path_355" data-name="Path 355" d="M224.24,653.283s-9.561-2.9-13.745-7.733c0,0,1.184,5.826,2.068,6.757-.279.186-9.549-4.322-10.808-8.481s9.478-5.654,9.478-5.654,3.679,1.566,3.866,1.659,3.637.5,4.033,1.376c.515,1.145,2.951,1.247,2.951,1.247l1.538,3.2,1.076,3.367Z" transform="translate(388.855 3157.258)" fill="#040744"/>
      <path id="Path_356" data-name="Path 356" d="M198.061,624.127a10.464,10.464,0,0,1-7.08.466c-5.579-1.714-7.789-1.049-8.531-.628a1.819,1.819,0,0,1-1.464.191c-.551-.184-1.061-.681-.9-1.938a10.138,10.138,0,0,1,4.323-8.321A24.931,24.931,0,0,1,198.061,624.127Z" transform="translate(422.865 3173.245)" fill="#040744"/>
      <g id="Group_220" data-name="Group 220" transform="translate(602.104 3794.202)">
        <g id="Group_219" data-name="Group 219" transform="translate(0 0)">
          <path id="Path_357" data-name="Path 357" d="M221.738,637.394v0a.472.472,0,0,0-.115-.68,13.1,13.1,0,0,0-6.208-2.139.474.474,0,0,0-.5.473h0a.472.472,0,0,0,.449.471,12.321,12.321,0,0,1,5.736,1.988A.472.472,0,0,0,221.738,637.394Z" transform="translate(-214.92 -634.573)" fill="#feb546"/>
        </g>
      </g>
      <rect id="Rectangle_43" data-name="Rectangle 43" width="33.33" height="4.323" rx="2.162" transform="translate(537.026 3789.53)" fill="#fff"/>
      <rect id="Rectangle_44" data-name="Rectangle 44" width="22.514" height="4.323" rx="2.162" transform="translate(547.842 3800.938)" fill="#fff"/>
      <rect id="Rectangle_45" data-name="Rectangle 45" width="27.705" height="4.323" rx="2.162" transform="translate(516.255 3800.938)" fill="#fff"/>
      <rect id="Rectangle_46" data-name="Rectangle 46" width="56.478" height="4.323" rx="2.162" transform="translate(475.025 3789.53)" fill="#fff"/>
      <rect id="Rectangle_47" data-name="Rectangle 47" width="95.331" height="4.323" rx="2.162" transform="translate(475.025 3823.299)" fill="#fff"/>
      <rect id="Rectangle_48" data-name="Rectangle 48" width="49.248" height="4.323" rx="2.162" transform="translate(521.108 3812.346)" fill="#fff"/>
      <rect id="Rectangle_49" data-name="Rectangle 49" width="38.879" height="4.323" rx="2.162" transform="translate(475.025 3812.346)" fill="#fff"/>
      <ellipse id="Ellipse_17" data-name="Ellipse 17" cx="9.771" cy="13.365" rx="9.771" ry="13.365" transform="translate(430.671 4103.454) rotate(-168.092)" fill="#fff"/>
      <path id="Path_358" data-name="Path 358" d="M407.955,319.493l-3.308,24.925,17.7-12.929L476.541,303.8l-41.915,3.838s-21.353,5.187-22.508,6.233A51.962,51.962,0,0,0,407.955,319.493Z" transform="translate(67.684 3377.435)" fill="#177288"/>
      <path id="Path_359" data-name="Path 359" d="M404.648,304.442l87.146-.636-68.586,15.688Z" transform="translate(52.431 3377.434)" fill="#21c2e9"/>
      <path id="Path_360" data-name="Path 360" d="M427.482,344.568l-22.834-18.342,63.406-22.422Z" transform="translate(76.172 3377.434)" fill="#21c2e9"/>
      <g id="Group_224" data-name="Group 224" transform="translate(353.905 3706.362)">
        <g id="Group_221" data-name="Group 221" transform="translate(8.738 119.239)">
          <path id="Path_361" data-name="Path 361" d="M922.919,732.553l1.15-1.7a23.46,23.46,0,0,1-4.8-4.341l-1.57,1.321A25.5,25.5,0,0,0,922.919,732.553Z" transform="translate(-917.702 -726.512)" fill="#feb546"/>
        </g>
        <g id="Group_222" data-name="Group 222" transform="translate(0 6.791)">
          <path id="Path_362" data-name="Path 362" d="M712.328,499.015l1.958-.615a57.616,57.616,0,0,1-2.335-12.775l-2.046.157A59.627,59.627,0,0,0,712.328,499.015Zm-2.354-26.646,2.042.207q.085-.845.2-1.687a53.446,53.446,0,0,1,1.087-5.735c.431-1.747.959-3.507,1.569-5.23l-1.935-.685c-.632,1.786-1.18,3.612-1.627,5.424a55.378,55.378,0,0,0-1.129,5.956C710.1,471.185,710.034,471.774,709.974,472.368ZM720.5,448.2a75.937,75.937,0,0,1,7.779-10.481l-1.54-1.356a78,78,0,0,0-7.99,10.765Zm64.12-4.855a11.42,11.42,0,0,0,7.242-.939,10.853,10.853,0,0,0,4.113-4.625l-1.844-.9a8.7,8.7,0,0,1-3.32,3.765,9.459,9.459,0,0,1-5.7.709,1.144,1.144,0,0,1-.206-.065c-.087-.055-.19-.123-.292-.191l-1.139,1.707c.117.078.235.155.355.23A2.688,2.688,0,0,0,784.62,443.345Zm-46.988-14.786a104.73,104.73,0,0,1,10.509-7.845L747.018,419a106.892,106.892,0,0,0-10.716,8Zm38.448,2.712,2.009-.421a18.943,18.943,0,0,1-.4-3.833,22.879,22.879,0,0,1,.687-5.529,27.54,27.54,0,0,1,.957-3.073l-1.921-.722a29.57,29.57,0,0,0-1.029,3.3,24.968,24.968,0,0,0-.747,6.026A21.046,21.046,0,0,0,776.08,431.271Zm18.041-6.315,1.851-.885a20.643,20.643,0,0,0-9.588-9.347l-.282-.135-.873,1.858.261.124A18.564,18.564,0,0,1,794.121,424.956Zm-34.047-9.2a42.452,42.452,0,0,1,8.106-1.9c1.641-.078,3.141-.095,4.587-.051l.063-2.051c-1.5-.045-3.052-.028-4.747.053a46.908,46.908,0,0,0-8.608,1.983Zm25.907-8.307a43.838,43.838,0,0,1,9.731-8.466l-1.106-1.729a45.877,45.877,0,0,0-10.185,8.863Z" transform="translate(-709.905 -397.252)" fill="#feb546"/>
        </g>
        <g id="Group_223" data-name="Group 223" transform="translate(97.035 0)">
          <path id="Path_363" data-name="Path 363" d="M657.774,380.629a39.562,39.562,0,0,1,6.48-1.222l-.207-2.042a41.633,41.633,0,0,0-6.817,1.285Z" transform="translate(-657.23 -377.366)" fill="#feb546"/>
        </g>
      </g>
      <path id="Path_364" data-name="Path 364" d="M387.713,1236.618s.755,7.447,6.632,7.963c-5.877.515-6.632,7.963-6.632,7.963s-.755-7.448-6.633-7.963C386.958,1244.066,387.713,1236.618,387.713,1236.618Z" transform="translate(157.928 2763.192)" fill="#ffd241"/>
      <path id="Path_365" data-name="Path 365" d="M1027.937,925.773s1.2,11.859,10.56,12.679c-9.357.82-10.56,12.678-10.56,12.678s-1.2-11.858-10.561-12.678C1026.734,937.631,1027.937,925.773,1027.937,925.773Z" transform="translate(-703.528 2967.878)" fill="#177288"/>
      <path id="Path_366" data-name="Path 366" d="M80.671,506.363s1.2,11.858,10.56,12.678c-9.358.821-10.56,12.678-10.56,12.678s-1.2-11.858-10.56-12.678C79.469,518.221,80.671,506.363,80.671,506.363Z" transform="translate(567.243 3244.053)" fill="#21c2e9"/>
      <path id="Path_367" data-name="Path 367" d="M747.985,796.807s.917,10.506,8.053,11.233c-7.136.727-8.053,11.233-8.053,11.233s-.917-10.506-8.054-11.233C747.067,807.313,747.985,796.807,747.985,796.807Z" transform="translate(-326.317 3052.8)" fill="#feb546"/>
      <path id="Path_368" data-name="Path 368" d="M205.837,347.052s.917,10.506,8.054,11.233c-7.136.727-8.054,11.233-8.054,11.233s-.917-10.506-8.054-11.233C204.92,357.558,205.837,347.052,205.837,347.052Z" transform="translate(400.982 3348.957)" fill="#feb546"/>
    </g>
    <g id="Group_2918" data-name="Group 2918" transform="translate(-101.029 3546.979)">
      <path id="Path_2102" data-name="Path 2102" d="M533.709,508.9q83.957.048,167.914.092c3.487,0,6.934.579,10.374.813,8.223.558,13.759,8.89,11.628,17.949-1.8,7.644-5.343,14.595-8.463,21.677-13.9,31.565-26.9,63.515-40.668,95.135-5.018,11.526-9.971,23.154-16.249,34.131-1.183,2.069-3.916,2.688-4.237,5.292-4.48.4-8.917-.423-13.4-.418q-105.076.12-210.154.045c-2.987,0-6,.249-8.937-.471-3.7-1.517-2.324-4.358-1.479-6.739a247.994,247.994,0,0,1,11.523-27.026,10.853,10.853,0,0,1,.567-1.361c1.116-2.051,2.168-4.14,3.112-6.281a14.214,14.214,0,0,1,4.842-11.259c1.457-1.3,1.486-3.238,1.459-5.088,11.9-21.164,21.064-43.653,31.679-65.439,2.039-4.184,4.179-8.321,6.059-12.586,3.7-9.049,8.16-17.755,12.357-26.564,3.864-8.108,10.408-13.159,19.967-13.151,4.306,0,8.612.073,12.92-.091C527.613,507.831,530.9,506.752,533.709,508.9Z" fill="#eaeaea"/>
      <path id="Path_2103" data-name="Path 2103" d="M480.165,547.907q-16.773,35.85-33.605,71.672c-1.105,2.337-3.025,4.288-4.567,6.418-1.424,5.6-5.941,9.3-8.883,13.956-2.016,3.19-4.511.792-5.875-1.886-3.193-8.609-8.385-16.143-13.136-23.879-6.111-9.95-11.495-20.17-14.534-31.505a152.048,152.048,0,0,1-.876-18.367c-.017-1.989.114-4.026-1.106-5.773-.808-1.157-1.876-2.287-3.16-.772-1.355,1.6-2.662,1.421-4.4.818-2.766-.96-2.8.839-2.176,2.67a12.39,12.39,0,0,0,5.811,6.623c4.333,2.451,6.115,5.8,5.357,10.648-.209,1.336.413,2.613.477,3.937.791,2.7,1.469,5.427,2.455,8.075.5,1.332,1.44,3.135-.034,4.145-1.741,1.194-2.468-.984-3.508-1.844-2.191-1.811-3.146-4.693-5.417-6.338,13.3,14.271,23.546,30.749,32.813,47.894.929,1.718,1.759,3.475-1.177,4.131-4.791-1.612-8.474-5.124-12.832-7.493a68.635,68.635,0,0,0-10.88-4.852,14.081,14.081,0,0,0-10.186.482c-1.167.477-2.786.636-2.942,2.3-.171,1.83.848,3.077,2.363,4.04,4.924,3.127,10.549,3.828,16.118,4.63,6.407.924,12.861,1.758,18.909,4.073,2.745,1.05,6.837,2.152,4.39,6.913-2.3,1.085-4.6.379-6.862-.054q-45.838-8.777-91.839-16.643c-2.419-.415-5.043-.141-7.176-1.78-1.3-1.917-1.129-4.044-.9-6.18,1.5-14.517,2.234-29.1,3.607-43.632.458-4.848-.536-5.454-6.086-4.5a389.919,389.919,0,0,1-63.9,5.662,44.769,44.769,0,0,1-6.461-.334c-3.385-.473-6.016-1.829-6.847-5.47-3.315-15.7-8.9-30.824-11.654-46.672-.811-4.662.28-9.672-2.459-13.989-1.445-18.642.248-36.939,7.361-54.337,5.051-12.353,13.329-21.55,26.993-25.218,11.3-3.034,22.776-4.582,34.339-5.809a11.14,11.14,0,0,1,4.927.527c6.207,4.161,6.882,5.923,5.34,13.883-.893,4.63-1.333,9.344-2.525,13.919a233.815,233.815,0,0,1-16.783,52.1c-.5,1.1-.56,3.011-2.32,2.711-1.479-.252-1.659-1.978-1.935-3.235-1.037-4.719-.563-9.64-1.814-14.335-1.646-6.179-1.9-13.065-8.374-16.841-1.673-.976-3.374-2.741-5.372-1.05-1.7,1.435-1.551,3.5-.955,5.558a45.419,45.419,0,0,0,5.182,11.859c3.215,5.068,5.894,10.428,8.692,15.729a13.09,13.09,0,0,1-.147,13.285c-5.179,9.624-12.2,17.814-19.38,25.9,6.516-7.711,13.392-15.132,18.541-23.928,3.262-5.573,4.414-5.936,10.526-4.182,5.785,1.661,11.186,4.293,16.773,6.456,3.733,1.446,7.525,2.68,11.614,2.583,2.755-.065,4.9-1.008,5.676-3.886.767-2.837-1.147-4.5-3.1-5.691a19.821,19.821,0,0,0-10.047-2.632c-5.48-.089-10.986-.54-16.431.637a16.865,16.865,0,0,1-5.478.163c-3.986-.457-4.89-2.019-3.044-5.716,5.44-10.894,9.161-22.447,13.054-33.925,2.213-6.526,6.3-12.1,8.8-18.452,3.535-5.6,8.864-9.319,14.019-13.206,2.26-1.7,4.7-3.31,6.107-5.764,1.02-1.778,3.633-4.067-1.353-5.242-2.853-.672-3.292-4.058-.984-6.74,3.568-.464,4.835-2.486,4.776-6.048-.056-3.349-.881-6.882,1.116-10.044,1.719-.568,1.941.8,2.258,1.854a16.867,16.867,0,0,1,.372,4.96c-.026,11.535-.324,9.517,9.443,13.3a138.615,138.615,0,0,0,37.182,9.233,47.206,47.206,0,0,0,14.366-1.13c4.877-1.041,6.645-3.178,7.174-8.206.206-1.964,0-4.047,1.717-5.545,6.412-1.606,12.963-1.925,19.525-2.026,4.442-.068,8.887-.068,13.325-.043,5.852,2.95,11.011,7.018,13.8,12.877,6.659,13.982,10.955,28.851,14.845,43.807.99,3.81-.142,7.549-1.824,11.06-3.25,2.323-3.238-1.087-3.763-2.46-2.019-5.279-3.585-10.73-5.843-15.925-2.021-4.652-4.7-8.877-9.141-11.548-2.07-1.245-4.827-3.039-6.9-1.182-2.263,2.025-.917,4.981.393,7.34a40.915,40.915,0,0,0,7.744,9.721c4.361,4.143,7.946,8.932,11.707,13.589,3.143,3.891,3.612,8,2.222,12.64a106.448,106.448,0,0,1-10.522,24.19c-1.075,1.8-2.376,3.5-2.733,5.661,5.231-9.411,10.122-18.978,13.572-29.23,1.782-5.3,3.45-5.994,9.005-4.089,2.444,2.833,2.4,6.485,3.2,9.841,2.15,9.067,3.85,18.235,6.024,27.3C480.539,542.627,481.084,545.256,480.165,547.907Z" fill="#ffd241"/>
      <path id="Path_2104" data-name="Path 2104" d="M243.091,575.693c2.392,4.052,6.37,4.182,10.394,4.215a388.376,388.376,0,0,0,70.849-6.244c1.7-.3,4.013-1.542,3.774,1.758-1.176,16.211-2.007,32.453-4.127,48.584-1.819,1.717-4.2,1.924-6.477,2.34-9.609,1.755-18.708,5.144-24.917,7.37a80.949,80.949,0,0,1,23.863-5.836c2.861-.234,5.671-.467,7.827,1.988,15.687,1.557,31.09,4.889,46.59,7.582,18.6,3.232,37.121,6.964,55.682,10.442a22.934,22.934,0,0,0,3.476.131c1.4-.738,2.165.174,2.925,1.112-3.844,9.047-7.736,18.075-11.492,27.159a38.022,38.022,0,0,0-1.41,5.694c-1.874,1.862-4.3,1.515-6.575,1.531-10.116.07-20.233-.018-30.349.046-7.5.047-8.267.848-8.592,8.187-.094,2.118.23,4.367-1.514,6.086l-4.99.208c-1.262.658-2.936.935-3.783.066-3.564-3.653-8.021-2.517-12.233-2.637-5.155-.147-10.317.13-15.471-.155-1.326-.073-2.94-.186-3.442-1.551-.517-1.407.77-2.414,1.723-3.34a13.417,13.417,0,0,1,7.864-3.954,63.92,63.92,0,0,0,12.247-2.318c7.654-2.552,12.2-7.945,13.39-15.87.9-6-1.98-10.281-7.7-12.346a21.314,21.314,0,0,0-4.808-1.315c-3.632-.4-5.393-2.422-5.194-5.993.243-4.362-2.149-5.246-5.913-5.219-14.144.1-28.29.05-42.435.034a38.022,38.022,0,0,1-7.463-.363c-3.986-1.708-7.957-2.269-11.886.186-2.775.543-2.427,2.752-2.468,4.7-.217,10.27-.549,20.554,2.877,30.484-3.039,2.378-6.109,4.69-10.316,4.219-12.673-10.326-15.538-25.253-19.055-39.995-4.613-19.33-7.684-38.923-10.64-58.542A66.3,66.3,0,0,1,243.091,575.693Z" fill="#fcbba9"/>
      <path id="Path_2105" data-name="Path 2105" d="M373.018,697.838c-.006-2.982-.055-5.965-.01-8.947.082-5.319,1.5-6.819,6.778-6.845,13.42-.065,26.841-.044,40.262-.058q112.995.018,225.991.029c2.833,0,5.706-.281,7.968,1.973,1.751,3.835.93,7.88.767,11.819-.1,2.4-1.912,3.817-4.347,4.084a36.647,36.647,0,0,1-3.994.1q-132.719,0-265.436.031C378.071,700.023,375.361,699.729,373.018,697.838Z" fill="#c3c3c3"/>
      <path id="Path_2106" data-name="Path 2106" d="M293.622,641.788c17.641.068,35.283.29,52.921.1,4.422-.048,6.2,1.172,5.48,5.581-.612,3.771.526,5.339,4.846,5.869,7.957.977,12.679,5.658,13.123,11.344.678,8.661-4.865,17.652-12.964,20.362-3.893,1.3-8.037,2.642-12.052,2.6-4.956-.051-7.923,2.659-11.693,5.759,4.089,1.142,7.816.446,11.464.567,3.99.131,7.993-.09,11.981.068,3.011.12,6.845-1.513,8.072,3.358.116.459,2.107.445,3.228.652A24.563,24.563,0,0,1,357.945,700q-41.49-.013-82.981-.009a23.18,23.18,0,0,1-3.49-.121c-2.1-.32-2.528-1.847-2.452-3.7.074-1.793,1.224-2.152,2.7-2.171,1.832-.022,3.664-.074,5.5-.113a2.167,2.167,0,0,1,2.379-1.4c4.209.526,8.492-.226,12.655.809-3-.74-5.987-1.458-7.662-4.485.188-3.168,1.385-6.223,1.018-9.452.008-3.449.034-6.893-.058-10.34-.7-5.888-2.479-11.615-2.854-17.528C282.065,641.489,283.759,640.091,293.622,641.788Z" fill="#fdddce"/>
      <path id="Path_2107" data-name="Path 2107" d="M484.93,425.066c3.39.442,5.3,4.279,9.039,3.928a3.081,3.081,0,0,0,1.006,2.649c15.233,12.46,22.324,29.829,28.6,47.662,3.461,9.837,6.763,19.729,10.137,29.6l-9.747-.076c-2.574-.934-3.779-3.181-5-5.351A575.082,575.082,0,0,0,480.6,444.411c-2.051-2.778-5.4-5.37-3.743-9.712C478.89,430.939,481.041,427.273,484.93,425.066Z" fill="#ffd241"/>
      <path id="Path_2108" data-name="Path 2108" d="M439.943,298.983c-2.426.256-4.306,2.372-6.908,2.029-2.341,1.93-4.755.532-7.13.125a21.7,21.7,0,0,0-5.909-.652,13.644,13.644,0,0,1,4.147,12.624,8.869,8.869,0,0,1-5.85,7.451,9.9,9.9,0,0,1-10.313-1.617c-5.258-4.409-5.665-13.217-1.063-18.292,5.157-5.687,14.755-9.626,24.875-3.787l7.358.023C441.462,296.811,440.845,297.843,439.943,298.983Z" fill="#030202"/>
      <path id="Path_2109" data-name="Path 2109" d="M279.026,693.146l-1.8.745c-1.46-2.4-2.884-4.812-4.393-7.174-.916-1.433-2.147-2.789.181-4.039,3.421-1.045,5.945-4.383,9.965-3.884a2.452,2.452,0,0,1,2.563-.445,2.662,2.662,0,0,1,1.282,1.522c.331,3.224.261,6.376-1.662,9.194A6.806,6.806,0,0,1,279.026,693.146Z" fill="#765767"/>
      <path id="Path_2110" data-name="Path 2110" d="M477.858,435.148a3.093,3.093,0,0,0,.222,3.642c16.576,22.115,31.341,45.416,45.231,69.286a5.181,5.181,0,0,0,.654.75c-6.707.9-13.642-1.32-20.215,1.7A21.817,21.817,0,0,0,492.722,521.4q-6.261,13.262-12.557,26.505c-3.538-14.937-6.054-30.1-10.18-44.907a7.218,7.218,0,0,1-1.948-3.789,11.935,11.935,0,0,1-.4-2.43,109.757,109.757,0,0,0-3.581-19.267c-3.5-11.231-6.864-22.486-11.3-33.406-1.851-4.562-4.057-8.537-8.433-11.289-2.135-1.342-3.523-3.87-5.25-5.861-2.01-.454-2.792-2.209-3.817-3.671-3.912-5.579-6.5-11.886-9.626-17.891-1.51-2.9-.291-5.529,1.107-8.673,3.6-8.087,9.759-7.49,16.461-6.621a17.7,17.7,0,0,0,1.977-.125c3.911.82,8.314-.228,11.585,3.032,3.254,3.04,4.424,7.23,6.024,11.149,2.541,6.221,4.9,12.518,7.331,18.783,2.221,1.413,2.145,3.989,3.05,6.063a11.694,11.694,0,0,0,3.877,5.06A5.424,5.424,0,0,1,477.858,435.148Z" fill="#fcbba9"/>
      <path id="Path_2111" data-name="Path 2111" d="M569,595.243c.7-13.463,9.987-21.961,22.248-22.033,14.885-.087,22.736,11.467,22.526,21.71-.3,14.568-9.1,22.291-22.868,22.956C579.491,618.426,568.913,606.993,569,595.243Z" fill="#fdfdfd"/>
      <path id="Path_2112" data-name="Path 2112" d="M432.95,649.135l-2.925-1.113c-.758-3.967-4.015-4.956-7.2-5.884-7.34-2.139-14.965-2.775-22.463-4.08-4.28-.745-8.478-1.838-11.946-4.544-3.815-2.976-3.17-6.4,1.328-8.1a17.19,17.19,0,0,1,13.528.053,102.765,102.765,0,0,1,21.78,12.795c1.053.651,1.913-.813,2.956-.27,1.779,3.026,3.4,3.469,5.52.114,2.631-4.159,5.627-8.086,8.466-12.113,2.06,1.786.427,3.42-.489,4.721-2.061,2.929-5.9,4.942-4.266,9.578.138.392-.931,1.21-1.439,1.829-1.125,1.748-2.506,3.374-2.664,5.583Z" fill="#f9f7f8"/>
      <path id="Path_2113" data-name="Path 2113" d="M433.135,647.708c-1.977-3.228.555-4.3,2.664-5.583A8.326,8.326,0,0,1,433.135,647.708Z" fill="#86747c"/>
      <path id="Path_2114" data-name="Path 2114" d="M431.792,296.864c-4.9-.466-9.683-2.293-14.75-.97-8.3,2.167-13.111,8.034-11.985,15.017.676,4.2,2.709,7.575,6.895,8.965a7.693,7.693,0,0,0,8.645-2.152c3.126-3.462,3.273-7.475,1.956-11.642-.937-2.963-3.263-4.829-6.33-6.66,6.178-1.721,11.361,1.5,16.812,1.589,8,16.367,12.077,33.5,10.067,51.805a38.256,38.256,0,0,1-4.156,14.151c-1.98.9-3-1.862-5.184-1.321-.41,3.577,3.024,6.292,2.253,9.853a89.239,89.239,0,0,1-10.953,19.467A28.263,28.263,0,0,1,403.8,406.4c-14.64,1.477-29.28,2.7-44.3-.453,12.062,9.452,25.556,14.161,40.022,16.427,3.468.543,6.248,1.486,5.641,5.841-.045.252-.091.505-.138.757,1.086,15.2-4.379,14.976-16.7,15.715-15.029.9-29.221-3.683-43.158-8.845-11.157-4.132-11.13-4.139-11.366-16-.039-1.964.417-4.012-.634-5.877-.05-5.654-.177-11.31-.114-16.964.028-2.506-.645-3.229-3.181-2.365a55.112,55.112,0,0,1-8.217,1.974A24.213,24.213,0,0,1,304.8,393.9c-10.794-6.284-19.1-14.859-23.922-26.539-1.588-3.848-3.663-7.932-.363-11.706,3.892-4.452,8.917-6.865,15.044-6.067,3.015.392,5.647,1.853,8.3,3.243,7.629,3.994,15.171,8.181,24.255,10.063-1.6-1.412-3.313-2.714-4.767-4.262a85.189,85.189,0,0,1-6.159-7.189c-8.136-10.872-8.208-11.556-1.088-22.813,5.09-8.051,8.425-16.877,11.885-25.662a22.169,22.169,0,0,1,4.991-5.858,32.792,32.792,0,0,1,21.851-6.589c-8.993-3.071-15.519,2.079-22.18,6.785-1.1.912-1.919,2.407-3.743,1.724,4.757-16.223,7.482-32.7,5.954-49.663-.224-2.494.93-3.484,2.886-4.493a78.954,78.954,0,0,0,9.425-5.542c3.732-2.637,7.613-2.96,11.843-1.819,16.871,4.554,51.434,27.784,62.942,42.569a76.512,76.512,0,0,0-9.007.076c-2.9.357-5.907,1.054-6.936,4.643,3.458,1.084,6.376-.593,9.392-1.2C425.968,281.465,431.626,285.977,431.792,296.864Z" fill="#fcbba9"/>
      <g id="Group_2772" data-name="Group 2772">
        <path id="Path_2115" data-name="Path 2115" d="M303.071,431.06c-14.807.372-29.373,2.375-43.424,7.161-12.013,4.092-18.4,13.664-22.727,24.837-5.781,14.92-7.286,30.526-6.953,46.4.039,1.853.956,4.015-.989,5.575-11.835-9.429-19.061-22.161-24.6-35.793-7.118-17.514-14.552-34.978-17.6-53.859-2.655-16.478,1.788-30.923,12.1-43.8a173.2,173.2,0,0,1,16.725-17.861c15.983-15.027,27.016-32.783,30.84-54.614,3.381-19.3,2.92-21.552,5.353-35.278.46-.477,8.668-18.392,16.2-26.654,14.023-15.392,17.543-22.5,42.953-31.794s38.668-6.9,58.686-5.389c29.586,2.229,66.887,24.342,67.171,69.844.036,5.8-.482,11.652,2.345,17.057-1.953,1.969-4.222,1.581-6.531.889-1.733-.91-1.66-2.726-2.135-4.278-2.215-7.241-7.076-10.129-14.46-8.611-2.273.467-4.482,1.322-6.847,1.248-1.34-.042-2.821-.134-3.383-1.6-.655-1.7.525-2.8,1.723-3.761,1.63-1.3,3.974-1.8,10.995-2.368-4.332-5.777-9.827-9.94-15.181-14.171-12.735-10.063-26.993-17.588-41.692-24.308-5.025-2.3-9.739-2-14.61,1.178-12.47,8.142-10.734,3.654-10.621,19.479.094,13.155-2.479,25.743-6.394,38.166a42.371,42.371,0,0,0-1.2,4.377,107.444,107.444,0,0,1-15.027,31.426c-2.126,3.05-1.982,5.69-.215,8.765a80.478,80.478,0,0,0,12.31,16.308c1.107,1.131,2.988,2.489,1.921,4.161-1.113,1.744-3.065.439-4.529-.131-7.782-3.026-15.03-7.18-22.508-10.847-5.222-2.56-10.219-2.54-15.233.457-4.934,2.948-6.234,5.84-4.385,11.272a47.883,47.883,0,0,0,14.1,20.889,51.258,51.258,0,0,0,11.458,7.977c6.754,3.213,13.59,2.356,20.534.719,6.222-1.466,7.144-.794,6.977,5.6-.123,4.743,1.214,9.636-1.045,14.231-.069,3.3-.222,6.607-.191,9.909.066,7.073.1,7.073-7.017,7.164-1.078,1.16-2.513,1.238-3.949,1.311-6.1.482-12.05-1.267-18.123-1.227Z" fill="#3c0a07"/>
        <path id="Path_2116" data-name="Path 2116" d="M439.943,298.983c6.986,17.568,14.211,35.045,20.867,52.737a98.579,98.579,0,0,0,15.816,27.5c5.742,7.107,11.725,14.082,15.719,22.408,4.255,8.874,5.832,17.962,1.624,27.365-4,2.025-6.165-2.131-9.377-2.77a12.167,12.167,0,0,0-2.822-.938c-3.717-1.236-7.7-.467-11.439-1.531-2.153-1.108-2.541-3.331-3.383-5.293-3.523-8.207-5.686-17.016-10.849-24.493-5.792-7.429-10.278-15.759-16.025-23.223a6.412,6.412,0,0,1-1.716-4.533c6.921-18.713,3.923-36.981-2.384-55.128-1.135-3.268-3.3-6.2-3.276-9.858C434.762,299.35,436.9,297.713,439.943,298.983Z" fill="#3c0a07"/>
        <path id="Path_2117" data-name="Path 2117" d="M403.99,405.028c9.735-.555,16.759-5.541,22.012-13.443a111.51,111.51,0,0,0,9.057-16.52,1.39,1.39,0,0,1,2.18-.025c3.71,4.654,6.8,9.623,7.341,15.762-3.227,1.245-6.489-.061-9.744.081-3.009.13-4.76.973-4.782,4.228-.007.926.36,2.438-.756,2.641-6.53,1.189-3.45,5.116-2.105,8a141.3,141.3,0,0,0,11.885,21.21c-.678.931-1.691.928-2.689.961l-31.361,1.049-.284-.036c-.426-6-3.078-11.7-2.31-17.872C402.7,408.962,402.415,406.771,403.99,405.028Z" fill="#3c0a07"/>
      </g>
      <path id="Path_2118" data-name="Path 2118" d="M312,457c-8.772,16.609-15.581,38.861-23.617,55.786-2.421,5.1-2.034,5.6,3.741,5.136,8.449-.673,16.879-1.961,25.335-.106,7.084,1.554,10.479,4.929,9.369,9.352s-5.417,5.788-12.655,4.087c-8.3-1.949-15.716-6.261-23.847-8.726-4.119-1.249-6.117-.582-8.185,3.239-5.1,9.418-12.671,17.069-19.178,25.484-.8,1.033-1.805,2.58-3.185,1.567-1.734-1.273-.36-2.7.675-3.747a128.955,128.955,0,0,0,19.678-25.051c2.574-4.343,2.893-8.2.718-12.646-2.927-5.984-6.282-11.71-9.727-17.4a36.321,36.321,0,0,1-4.89-12.467c-.424-2.384.021-4.835,2.214-6.2,1.968-1.23,3.767.154,5.519,1.156,5.552,3.175,7.666,8.46,9.021,14.286,1.661,7.141,2.044,14.462,3.559,21.821,7.981-17.449,13.52-35.69,17.678-54.391,1.357-.206,1.467.859,1.772,1.729a5.569,5.569,0,0,1-1.025,4.63c1.255-1.422,2.03-3.356,4.1-3.927C309.551,460.589,311.655,456.658,312,457Z" fill="#faf9fa"/>
      <path id="Path_2119" data-name="Path 2119" d="M468.991,498.934a6.089,6.089,0,0,1,.994,4.068c-4.26-.74-6.254.784-7.526,5.256-2.87,10.093-8.379,19.125-12.963,28.518-.611,1.251-1.23,3.51-2.944,2.554-1.735-.967-.7-2.944.219-4.4a134.366,134.366,0,0,0,13.008-26.821c2.08-5.845,1.536-10.589-2.682-15.094-4.317-4.608-8.495-9.347-12.69-14.068-3.1-3.491-6.184-7.082-7.286-11.745-1.216-5.146,1.278-7.212,6.288-5.608a17.928,17.928,0,0,1,10.721,9.073c3.944,7.36,6.565,15.211,8.982,23.152.042.137.181.351.266.347a4.861,4.861,0,0,0,.847-.173q.51.981,1.019,1.963C466.414,497.052,467.762,497.918,468.991,498.934Z" fill="#f9f8f9"/>
      <path id="Path_2120" data-name="Path 2120" d="M368.9,564.416c-1.545-2.473-2.9-4.547-4.15-6.68-.69-1.177-1.187-2.459.132-3.6,1.227-1.065,2.549-.658,3.736-.034,3.524,1.854,5.645,5.1,7.852,8.226,4.385,6.211,7.441,13.288,12.8,18.981a6.624,6.624,0,0,1-1.089.385c-4.352-7.174-10.929-8.833-18.7-7.633a5.14,5.14,0,0,1-1.987-.138c-3.689-.93-7.78-2.237-7.1-6.836C361.136,562.081,365.52,564.538,368.9,564.416Z" fill="#f9f7f9"/>
      <path id="Path_2121" data-name="Path 2121" d="M428.007,638c-.816,1.955-1.763,2.47-2.956.269,2.311-1.785.186-3.262-.537-4.542a310.123,310.123,0,0,0-31.725-46.489,7.478,7.478,0,0,1-2.063-4.3l11.182,12.657L399.242,583q.436-.7.967-.068a164.917,164.917,0,0,0,15.27,31.466A175.452,175.452,0,0,1,428.007,638Z" fill="#f5f3f5"/>
      <path id="Path_2122" data-name="Path 2122" d="M400.209,582.928q-.483.042-.967.068c-.764-7-2.613-13.344-9.656-16.771a5.46,5.46,0,0,1-1.886-2.284c-1.225-2.165-2.948-4.684-.98-6.882,2.462-2.747,3.826,1.224,5.961,1.544.718-1.2.49-3.519,2.691-3.48,2.1.037,2.978,1.829,3.758,3.534,1.892,4.135.914,8.543,1.168,12.821C400.523,575.279,400.258,579.11,400.209,582.928Z" fill="#f7f5f7"/>
      <path id="Path_2123" data-name="Path 2123" d="M324.277,629.868c-7.837-1.951-15.364.261-22.847,1.988-4.923,1.136-9.657,3.1-14.505,4.7,4.542-4.543,25.9-11.769,37.056-12.55Q324.129,626.937,324.277,629.868Z" fill="#f99a80"/>
      <path id="Path_2124" data-name="Path 2124" d="M306.765,443.819c2.074-5.21.138-9.259-3.694-12.759l-.019.013c.136-.094.263-.255.409-.274,10.214-1.339,11-.344,7.26,9.265-.656,1.685-1.068,3.5-2.413,4.846C307.22,445.36,306.644,445.081,306.765,443.819Z" fill="#f6f4f5"/>
      <path id="Path_2125" data-name="Path 2125" d="M262.071,454.241a2.647,2.647,0,0,1-2.779,2.74,2.739,2.739,0,0,1-3.065-3.037,2.835,2.835,0,0,1,3.313-2.839C261.17,451.266,262.085,452.449,262.071,454.241Z" fill="#f6f3f5"/>
      <path id="Path_2126" data-name="Path 2126" d="M391.924,496.032a2.75,2.75,0,0,1,3.118,2.559c.219,1.877-.63,3.193-2.647,3.38a2.763,2.763,0,0,1-3.1-2.52C388.989,497.575,390.214,496.469,391.924,496.032Z" fill="#f6f3f5"/>
      <path id="Path_2127" data-name="Path 2127" d="M357.093,607.115c1.629.219,2.808.963,2.965,2.7.18,1.992-.875,3.068-2.811,3.232a2.69,2.69,0,0,1-3.012-2.587C354,608.571,355.291,607.522,357.093,607.115Z" fill="#f5f3f4"/>
      <path id="Path_2128" data-name="Path 2128" d="M452.051,572.042c1.73.412,2.991,1.475,2.7,3.365a2.835,2.835,0,0,1-3.1,2.545c-2.009-.135-2.85-1.46-2.676-3.342C449.135,572.887,450.282,572.1,452.051,572.042Z" fill="#f7f4f6"/>
      <path id="Path_2129" data-name="Path 2129" d="M306.765,443.819l1.128,1.127c1.4,5.481,1.088,10.648-2.77,15.167l-.9-1.935Q305.494,451,306.765,443.819Z" fill="#f6f4f5"/>
      <path id="Path_2130" data-name="Path 2130" d="M305.123,460.113c1.7-4.913,2.127-10.06,2.77-15.167,1.114-3.414,2.085-6.884,3.384-10.226,1.176-3.024.586-4.274-2.819-3.84-1.781.227-13.655.066-15.458.12,4-3,16.616-1.005,19.973-.656,3.074.319,11.948-.615,15.027-.344-2.971,4.639-9.867,10.807-8.517,16.2.407,1.627-1.065,2.72-2.483,3.8-3.863,2.929-11.021,14.654-12.833,16.67C304.51,464.317,304.817,462.215,305.123,460.113Z" fill="#ffd241"/>
      <path id="Path_2131" data-name="Path 2131" d="M333.162,298.127l-5.178,4.841c.29-1.316-.722-2.937.919-3.938l3.042-2.108A1.431,1.431,0,0,1,333.162,298.127Z" fill="#763c33"/>
      <path id="Path_2132" data-name="Path 2132" d="M285.827,678.857l-2.851-.063c-2.813-3.891-3.568-8.514-3.862-13.041-.418-6.424-.041-12.9-.14-19.345-.048-3.1,1.043-4.76,4.355-4.346-1.12,9.376,1.562,18.319,3.121,27.392C286.139,672.583,287.27,675.8,285.827,678.857Z" fill="#fadacc"/>
      <path id="Path_2133" data-name="Path 2133" d="M285.924,669.014c-1.75-8.9-5.288-17.625-2.6-26.952,3.351-3.083,6.8-2.554,10.293-.274-10.194.674-11.051,1.806-9.29,12.244q1.266,7.508,2.521,15.015C286.528,669.471,286.218,669.483,285.924,669.014Z" fill="#4d3e37"/>
      <path id="Path_2134" data-name="Path 2134" d="M364.021,667.03c0,7.756-8.3,15.451-15.835,14.667-1.587-.166-1.939-.914-1.067-2.333a33.02,33.02,0,0,0,4.925-17.86c-.012-1.617.767-2.283,2.374-2.511C359.635,658.253,364.022,661.863,364.021,667.03Z" fill="#fbbba9"/>
      <path id="Path_2135" data-name="Path 2135" d="M279.026,693.146l6.132-4.081,7.876,4.048C288.326,693.632,283.668,694.925,279.026,693.146Z" fill="#faf8f6"/>
      <path id="Path_2136" data-name="Path 2136" d="M285.924,669.014a4.973,4.973,0,0,0,.929.033,40.861,40.861,0,0,1-.033,10.824l-.993-1.014Q285.875,673.935,285.924,669.014Z" fill="#130d0e"/>
      <path id="Path_2137" data-name="Path 2137" d="M444.58,390.8c-2.084-4.151-4.087-8.346-6.3-12.426-.72-1.328-.982-3.36-3.222-3.31.141-2.256-1.1-4.041-2.01-5.942-.856-1.792-1.968-3.873.024-5.324,2.133-1.553,2.921,1.175,4.29,2.042.546.346,1.057.748,1.584,1.125l17.82,26.044C452.862,391.4,448.456,392.561,444.58,390.8Z" fill="#f7967c"/>
      <path id="Path_2138" data-name="Path 2138" d="M476.462,434.979c-4.892-2.548-4.739-7.755-6.342-12.036,4.372.056,8.762-.082,13.014,1.239C481.775,428.315,478.893,431.508,476.462,434.979Z" fill="#ffd241"/>
      <path id="Path_2139" data-name="Path 2139" d="M476.462,434.979c1.62-3.973,3.334-7.887,6.672-10.8l1.8.884-7.071,10.08C477.393,435.092,476.928,435.035,476.462,434.979Z" fill="#f1eef2"/>
      <path id="Path_2140" data-name="Path 2140" d="M500.192,453.959a2.654,2.654,0,0,1-2.387-3.027,2.623,2.623,0,0,1,2.809-2.834,2.943,2.943,0,1,1-.422,5.861Z" fill="#f6f4f6"/>
      <path id="Path_2141" data-name="Path 2141" d="M468.991,498.934c-2.2.212-4.654.743-3.748-2.97.458-1.521.915-3.04,1.59-5.285A15.335,15.335,0,0,1,468.991,498.934Z" fill="#ffd241"/>
      <path id="Path_2142" data-name="Path 2142" d="M422.9,639.994c-10.427-2.167-19.343-3.933-28.212-5.911-2.811-.627-7.108-1.213-6.554-4.7.625-3.944,5.118-3.14,7.962-2.523C405.58,628.914,414.105,633.162,422.9,639.994Z" fill="#ffd241"/>
      <path id="Path_2143" data-name="Path 2143" d="M403.99,405.028q.378,11.953.755,23.906c-.775-2.809-1.4-4.727-5.418-5.281-15.458-2.129-29.724-7.659-42.077-17.522-.624-.5-1.512-.706-1.376-2.15C371.85,407.711,387.914,406.806,403.99,405.028Z" fill="#f9977c"/>
      <path id="Path_2144" data-name="Path 2144" d="M343.535,317.006c-5.623,3.276-10.263,9.452-18.758,5.111,7.334-1.383,12.387-5.763,18.007-9.143,8.249-4.96,15.2-.93,22.816,3.519-2.957.685-4.687-1.566-6.922-1.256q5.073,10.158-.42,15.565a7.819,7.819,0,0,1-9.594,1.5C343.745,329.924,342.11,325.067,343.535,317.006Z" fill="#020202"/>
      <path id="Path_2145" data-name="Path 2145" d="M333.162,298.127l-1.217-1.205a28.227,28.227,0,0,1,14.825-8.48c4.365-1.029,8.5-.65,13.016,3.8C349.515,291.24,340.82,292.764,333.162,298.127Z" fill="#420f0b"/>
      <path id="Path_2146" data-name="Path 2146" d="M403.961,338.613c-.149,1.261.125,3.114-1.559,3.16-1.556.043-1.216-1.647-1.119-2.763a3.787,3.787,0,0,0-1.3-3.56c-4.725-3.8-6.142-9.233-7.348-14.789-.2-.944-.964-2.013.4-2.477,1.282-.434,1.626.788,1.959,1.686,1.09,2.933,1.155,6.172,2.845,8.948a17.537,17.537,0,0,0,3.708,4.609A5.71,5.71,0,0,1,403.961,338.613Z" fill="#1d1312"/>
      <path id="Path_2147" data-name="Path 2147" d="M409.542,356.967c-6.077,6-17.192,6.407-23.013.9C394.35,360.877,402.016,360.928,409.542,356.967Z" fill="#2d1f1c"/>
      <path id="Path_2148" data-name="Path 2148" d="M282.317,509.919c-4.181-8.1-8.5-16.123-12.462-24.324-1.259-2.606-4.059-6.636-.421-8.333,3.84-1.792,6.076,2.531,7.452,5.654A59.739,59.739,0,0,1,282.317,509.919Z" fill="#ffd241"/>
      <path id="Path_2149" data-name="Path 2149" d="M293.928,520.14a127.628,127.628,0,0,1,23.81,1.05,14.452,14.452,0,0,1,3.295,1.069c1.937.811,3.663,2.1,3.393,4.371-.311,2.625-2.665,2.6-4.649,2.631C310.461,529.409,302.927,524.577,293.928,520.14Z" fill="#ffd241"/>
      <path id="Path_2150" data-name="Path 2150" d="M460.072,493.609c-7-8.472-13.337-16.054-19.549-23.733a9.914,9.914,0,0,1-1.74-4.047c-.537-2.47.765-3.352,3.12-2.913a9.706,9.706,0,0,1,5.968,4.191A70.135,70.135,0,0,1,460.072,493.609Z" fill="#ffd241"/>
      <path id="Path_2151" data-name="Path 2151" d="M375,570.544a24.559,24.559,0,0,1-10.022.137c-1.516-.337-2.974-1.471-2.608-3.1.4-1.777,2.249-1.8,3.722-1.374C369.023,567.059,372.2,567.472,375,570.544Z" fill="#ffd241"/>
      <path id="Path_2152" data-name="Path 2152" d="M375.907,567.407a34.2,34.2,0,0,1-8.354-9.64C371.1,559.054,373.56,561.83,375.907,567.407Z" fill="#ffd241"/>
      <path id="Path_2153" data-name="Path 2153" d="M325.937,445.162c-.381-2.339.621-3.55,1.337-4.7.73-1.176,1.292-3.876,3.176-2.507,1.5,1.093-.351,2.9-1.281,4.122A30.617,30.617,0,0,1,325.937,445.162Z" fill="#ffd241"/>
      <path id="Path_2154" data-name="Path 2154" d="M322.333,442.511c-1.668-4.3-.624-6.952,1.8-9.3C325.15,436.3,323.812,438.964,322.333,442.511Z" fill="#ffd241"/>
      <path id="Path_2155" data-name="Path 2155" d="M393.529,565.7c-3.168-1.173-5.159-3.228-6.006-8.017A13.319,13.319,0,0,1,393.529,565.7Z" fill="#ffd241"/>
      <path id="Path_2156" data-name="Path 2156" d="M398.649,564.858c-2.617-2.268-3.511-4.609-3.346-7.345.01-.165,1.01-.534,1.181-.385C398.72,559.069,398.841,561.662,398.649,564.858Z" fill="#ffd241"/>
    </g>
  </g>
</svg>
