<svg xmlns="http://www.w3.org/2000/svg" width="208.509" height="174.742" viewBox="0 0 208.509 174.742">
  <g id="Group_2947" data-name="Group 2947" transform="translate(-719.915 -2452.618)">
    <g id="freepik--background-simple--inject-4" transform="translate(720.915 2453.532)">
      <path id="Path_1203" data-name="Path 1203" d="M114.6,55.681c54.548-14.151,72.519,23.28,95.041,59.641s45.922,81.673,7.118,110.123H55s-23.616-6-24-37.805c-.293-23.4,23.093-26.578,30.744-62.468S86.836,62.881,114.6,55.681Z" transform="translate(-30.994 -52.617)" fill="#ffdf78" stroke="#fff" stroke-width="2"/>
      <path id="Path_1204" data-name="Path 1204" d="M114.6,55.681c54.548-14.151,72.519,23.28,95.041,59.641s45.922,81.673,7.118,110.123H55s-23.616-6-24-37.805c-.293-23.4,23.093-26.578,30.744-62.468S86.836,62.881,114.6,55.681Z" transform="translate(-30.994 -52.617)" fill="#ffd241" stroke="#fff" stroke-width="2"/>
    </g>
    <g id="sell" transform="translate(765.091 2485)">
      <g id="Group_191" data-name="Group 191" transform="translate(0 0)">
        <g id="Group_181" data-name="Group 181" transform="translate(42.3 68.933)">
          <path id="Path_316" data-name="Path 316" d="M263,250.667H216v26.28a3.487,3.487,0,0,0,5.651,2.734l14.932-11.821a4.7,4.7,0,0,1,5.834,0l14.932,11.821A3.487,3.487,0,0,0,263,276.947Z" transform="translate(-216 -250.667)" fill="#555a6e"/>
        </g>
        <g id="Group_182" data-name="Group 182" transform="translate(23.5)">
          <path id="Path_317" data-name="Path 317" d="M199,91.2h-9.4a37.6,37.6,0,1,1,0-75.2H199a37.6,37.6,0,1,1,0,75.2Z" transform="translate(-152 -16)" fill="#177288"/>
        </g>
        <g id="Group_188" data-name="Group 188" transform="translate(0 103.4)">
          <g id="Group_183" data-name="Group 183" transform="translate(28.2 4.7)">
            <path id="Path_318" data-name="Path 318" d="M203.25,384H183.24a14.1,14.1,0,0,0-9.97,4.13L168,393.4l11.75,11.75,5.673-5.673a4.7,4.7,0,0,1,3.323-1.376h14.5a7.05,7.05,0,1,0,0-14.1Z" transform="translate(-168 -384)" fill="#fab991"/>
          </g>
          <g id="Group_184" data-name="Group 184" transform="translate(39.95)">
            <path id="Path_319" data-name="Path 319" d="M265.373,369.376a4.7,4.7,0,0,0-6.647,0L241.3,386.8H217a4.7,4.7,0,0,0-3.323,1.376L208,393.849l7.05,7.05,4.7-4.7h22.527a7,7,0,0,0,4.985-2.065l18.112-18.112a4.7,4.7,0,0,0,0-6.647Z" transform="translate(-208 -367.999)" fill="#d67034"/>
          </g>
          <g id="Group_185" data-name="Group 185" transform="translate(59.533 7.833)">
            <path id="Path_320" data-name="Path 320" d="M278.584,402.5h-1.567a2.35,2.35,0,0,1-2.35-2.35v-3.133a2.35,2.35,0,0,1,2.35-2.35h1.567a3.917,3.917,0,0,1,0,7.833Z" transform="translate(-274.667 -394.666)" fill="#f0915a"/>
          </g>
          <g id="Group_186" data-name="Group 186" transform="translate(0 12.724)">
            <path id="Path_321" data-name="Path 321" d="M99.512,412,111.95,424.44l-11.75,11.75H72L96.188,412A2.35,2.35,0,0,1,99.512,412Z" transform="translate(-72 -411.314)" fill="#555a6e"/>
          </g>
          <g id="Group_187" data-name="Group 187" transform="translate(28.2 25.85)">
            <path id="Path_322" data-name="Path 322" d="M179.75,456l7.738,7.738a2.35,2.35,0,0,1,0,3.323l-.688.688H168Z" transform="translate(-168 -456)" fill="#463c4b"/>
          </g>
        </g>
        <g id="Group_189" data-name="Group 189" transform="translate(24.05 0.328)">
          <circle id="Ellipse_11" data-name="Ellipse 11" cx="37.5" cy="37.5" r="37.5" transform="translate(-0.141 -0.328)" fill="#d6f7ff"/>
        </g>
        <g id="Group_190" data-name="Group 190" transform="translate(32.448 9.776)">
          <ellipse id="Ellipse_12" data-name="Ellipse 12" cx="28" cy="27.5" rx="28" ry="27.5" transform="translate(0.461 0.224)" fill="#faa037"/>
        </g>
        <path id="Path_323" data-name="Path 323" d="M261.15,82.8a2.35,2.35,0,0,0,2.35-2.35V80a8.958,8.958,0,0,0-8.948-8.948H254.1v-4.7a2.35,2.35,0,1,0-4.7,0v4.7h-.452a8.948,8.948,0,0,0-2.17,17.629l8.8,2.2a4.248,4.248,0,0,1-1.03,8.37h-5.6A4.253,4.253,0,0,1,244.7,95V94.55a2.35,2.35,0,1,0-4.7,0V95a8.958,8.958,0,0,0,8.948,8.948h.452v4.7a2.35,2.35,0,0,0,4.7,0v-4.7h.452a8.948,8.948,0,0,0,2.17-17.629l-8.8-2.2a4.248,4.248,0,0,1,1.03-8.37h5.6A4.253,4.253,0,0,1,258.8,80v.452A2.351,2.351,0,0,0,261.15,82.8Z" transform="translate(-190.65 -49.9)" fill="#e6e6eb"/>
      </g>
    </g>
  </g>
</svg>
