<svg xmlns="http://www.w3.org/2000/svg" width="1772.142" height="138.815" viewBox="0 0 1772.142 138.815">
  <g id="Group_2936" data-name="Group 2936" transform="translate(-73.929 -4936.602)">
    <path id="Polygon_9" data-name="Polygon 9" d="M22,0,44,37.95H0Z" transform="matrix(0.819, 0.574, -0.574, 0.819, 802.508, 4937.039)" fill="#faa037"/>
    <path id="Path_1328" data-name="Path 1328" d="M2.17,7.734a15.515,15.515,0,0,1,26.845,0l.055.095a15.515,15.515,0,0,1-13.422,23.3h-.11A15.515,15.515,0,0,1,2.116,7.828Z" transform="translate(567.807 5032.115) rotate(25)" fill="#ffd241"/>
    <path id="Polygon_10" data-name="Polygon 10" d="M16,0,32,34H0Z" transform="matrix(0.966, -0.259, 0.259, 0.966, 73.929, 4987.826)" fill="#cfcfcf"/>
    <path id="Polygon_12" data-name="Polygon 12" d="M21,0,42,28H0Z" transform="matrix(0.819, 0.574, -0.574, 0.819, 1162.293, 4996.684)" fill="#21c2e9"/>
    <path id="Polygon_13" data-name="Polygon 13" d="M20.5,0,41,34.638H0Z" transform="translate(297.099 4936.602) rotate(30)" fill="#3c9fb7"/>
    <g id="Path_1329" data-name="Path 1329" transform="translate(1029.872 5052.906) rotate(25)" fill="none">
      <path d="M1.179,4.209a8.419,8.419,0,0,1,14.581,0l.03.052A8.444,8.444,0,0,1,8.5,16.939H8.44A8.444,8.444,0,0,1,1.149,4.261Z" stroke="none"/>
      <path d="M 8.469616889953613 3.000003814697266 C 6.512666702270508 3.000003814697266 4.757906913757324 4.013593673706055 3.775496482849121 5.711613655090332 L 3.745817184448242 5.762903213500977 C 2.75745677947998 7.471193313598633 2.756107330322266 9.511833190917969 3.742206573486328 11.22160339355469 C 4.723636627197266 12.92329406738281 6.47974681854248 13.93922328948975 8.439796447753906 13.93922328948975 L 8.49942684173584 13.93922328948975 C 10.45947647094727 13.93922328948975 12.21558666229248 12.92329406738281 13.1970272064209 11.22160339355469 C 14.18312644958496 9.511833190917969 14.18176651000977 7.471193313598633 13.19333648681641 5.762763977050781 L 13.16359710693359 5.711373329162598 C 12.1813268661499 4.013603210449219 10.42656707763672 3.000003814697266 8.469616889953613 3.000003814697266 M 8.469616889953613 3.814697265625e-06 C 11.3032341003418 3.814697265625e-06 14.1368522644043 1.403003692626953 15.76030731201172 4.209003448486328 L 15.79011726379395 4.260533332824707 C 19.0469970703125 9.889753341674805 14.99329662322998 16.93922424316406 8.49942684173584 16.93922424316406 L 8.439796447753906 16.93922424316406 C 1.945926666259766 16.93922424316406 -2.107763290405273 9.889753341674805 1.149106979370117 4.260533332824707 L 1.178926467895508 4.209003448486328 C 2.80238151550293 1.403003692626953 5.63599967956543 3.814697265625e-06 8.469616889953613 3.814697265625e-06 Z" stroke="none" fill="#707070"/>
    </g>
    <path id="Polygon_14" data-name="Polygon 14" d="M26.5,0,53,36.632H0Z" transform="matrix(0.966, -0.259, 0.259, 0.966, 1219.929, 4960.813)" fill="#ffd241"/>
    <path id="Polygon_15" data-name="Polygon 15" d="M22,0,44,38H0Z" transform="matrix(0.819, 0.574, -0.574, 0.819, 1565.286, 5007.309)" fill="#f4efef"/>
    <path id="Path_1330" data-name="Path 1330" d="M2.17,7.734a15.515,15.515,0,0,1,26.845,0l.055.095a15.515,15.515,0,0,1-13.422,23.3h-.11A15.515,15.515,0,0,1,2.116,7.828Z" transform="translate(1817.807 4952.074) rotate(25)" fill="#faa037"/>
  </g>
</svg>
