<svg width="1440" height="336" viewBox="0 0 1440 336" fill="none" xmlns="http://www.w3.org/2000/svg">
<mask id="mask0" mask-type="alpha" maskUnits="userSpaceOnUse" x="0" y="0" width="1440" height="336">
<rect width="1440" height="336" fill="#C4C4C4"/>
</mask>
<g mask="url(#mask0)">
<path d="M0 -94H1440V221.85C1440 221.85 1009.04 334 720 334C430.956 334 0 221.85 0 221.85V-94Z" fill="#D6F7FF"/>
</g>
<path d="M622.107 268.279L619.354 300.396L593 281.838L622.107 268.279Z" fill="#FAA037"/>
<path d="M346.655 228.817C348.286 227.675 350.187 226.982 352.168 226.81C354.149 226.638 356.14 226.991 357.942 227.836C359.744 228.68 361.293 229.985 362.435 231.62C363.577 233.256 364.271 235.164 364.448 237.154L364.455 237.234C364.633 239.229 364.284 241.237 363.444 243.053C362.605 244.87 361.303 246.433 359.671 247.583C358.039 248.734 356.134 249.432 354.148 249.607C352.162 249.783 350.165 249.429 348.358 248.583L348.285 248.549C346.478 247.702 344.924 246.392 343.781 244.751C342.638 243.109 341.946 241.194 341.774 239.198C341.603 237.202 341.957 235.196 342.803 233.382C343.648 231.567 344.955 230.009 346.59 228.863L346.655 228.817Z" fill="#FFD241"/>
<path display="none" d="M75.3081 163.027L93.0946 184.123L70.4784 190.177L75.3081 163.027Z" fill="#CFCFCF"/>
<path d="M324.649 94.5316L324.967 124.105L299 109.042L324.649 94.5316Z" fill="#3C9FB7"/>
<path d="M1054.33 185.857L1055.16 211.565L1030 193.85L1054.33 185.857Z" fill="#21C2E9"/>
<path d="M907.489 276.323C906.034 275.737 904.498 275.898 903.38 276.754L903.346 276.779C902.221 277.64 901.753 279.021 902.095 280.474C902.436 281.92 903.509 283.133 904.966 283.72L905.01 283.738C906.467 284.325 908.004 284.163 909.123 283.305C910.247 282.443 910.712 281.061 910.368 279.608L910.358 279.565C910.016 278.121 908.943 276.909 907.489 276.323ZM908.174 274.292C910.281 275.141 912.066 276.939 912.632 279.325L912.642 279.369C913.776 284.155 909.151 287.714 904.324 285.769L904.28 285.751C899.453 283.807 898.051 277.82 901.759 274.985L901.793 274.959C903.641 273.545 906.068 273.444 908.174 274.292Z" fill="#707070"/>
<path d="M1103.72 47.0432L1129.38 68.0017L1091.94 78.0882L1103.72 47.0432Z" fill="#FFD241"/>
<path d="M1386.13 97.2789L1383.35 129.426L1357 110.868L1386.13 97.2789Z" fill="#B5B5B5"/>
<path d="M1259.66 210.817C1261.29 209.675 1263.19 208.982 1265.17 208.81C1267.15 208.638 1269.14 208.991 1270.94 209.836C1272.74 210.68 1274.29 211.985 1275.44 213.62C1276.58 215.256 1277.27 217.164 1277.45 219.154L1277.46 219.234C1277.63 221.229 1277.28 223.237 1276.44 225.053C1275.6 226.87 1274.3 228.433 1272.67 229.583C1271.04 230.734 1269.13 231.432 1267.15 231.607C1265.16 231.783 1263.16 231.429 1261.36 230.583L1261.28 230.549C1259.48 229.702 1257.92 228.392 1256.78 226.751C1255.64 225.109 1254.95 223.194 1254.77 221.198C1254.6 219.202 1254.96 217.196 1255.8 215.382C1256.65 213.567 1257.95 212.009 1259.59 210.863L1259.66 210.817Z" fill="#FAA037"/>
</svg>
