<svg width="24" height="24" viewBox="0 0 24 24" fill="none" xmlns="http://www.w3.org/2000/svg">
<path d="M5.23005 2.6854C6.86078 1.54248 8.7618 0.850182 10.7427 0.677848C12.7235 0.505514 14.7147 0.859197 16.5167 1.70347C18.3187 2.54774 19.8682 3.85295 21.0101 5.48836C22.152 7.12377 22.8461 9.03194 23.0229 11.0217L23.03 11.1021C23.2078 13.0973 22.8593 15.1045 22.0194 16.9213C21.1795 18.7381 19.878 20.3005 18.2459 21.4511C16.6138 22.6017 14.7088 23.2999 12.7227 23.4754C10.7366 23.6509 8.73949 23.2974 6.9326 22.4506L6.8597 22.4165C5.05251 21.5701 3.49922 20.2601 2.35627 18.6186C1.21333 16.977 0.521091 15.0619 0.349285 13.066C0.17748 11.0701 0.532173 9.06392 1.37764 7.24959C2.2231 5.43526 3.52949 3.87682 5.1652 2.73123L5.23005 2.6854Z" fill="#FFD241"/>
</svg>
