<svg width="24" height="24" viewBox="0 0 24 24" fill="none" xmlns="http://www.w3.org/2000/svg">
<path d="M5.6551 2.81748C7.28583 1.67456 9.18684 0.98226 11.1677 0.809926C13.1486 0.637593 15.1397 0.991276 16.9417 1.83555C18.7437 2.67982 20.2932 3.98503 21.4351 5.62043C22.577 7.25584 23.2711 9.16402 23.4479 11.1538L23.455 11.2342C23.6329 13.2294 23.2843 15.2365 22.4444 17.0534C21.6046 18.8702 20.303 20.4326 18.6709 21.5832C17.0389 22.7338 15.1338 23.432 13.1477 23.6075C11.1616 23.7829 9.16454 23.4295 7.35765 22.5827L7.28474 22.5485C5.47756 21.7021 3.92427 20.3922 2.78132 18.7507C1.63838 17.1091 0.946145 15.1939 0.774339 13.198C0.602535 11.2021 0.957228 9.196 1.80269 7.38167C2.64816 5.56734 3.95454 4.00889 5.59025 2.86331L5.6551 2.81748Z" fill="#FAA037"/>
</svg>
